<svg xmlns="http://www.w3.org/2000/svg" xmlns:xlink="http://www.w3.org/1999/xlink" xmlns:lucid="lucid" width="3324" height="2392.25"><g transform="translate(-1018 3330.25474609375)" lucid:page-tab-id="0_0"><path d="M1020-3274a6 6 0 0 1 6-6h3308a6 6 0 0 1 6 6v2328a6 6 0 0 1-6 6H1026a6 6 0 0 1-6-6z" stroke="#000" stroke-width="4" fill-opacity="0"/><path d="M1020-3322.26a6 6 0 0 1 6-6h572.15a6 6 0 0 1 6 6v24.26a6 6 0 0 1-6 6H1026a6 6 0 0 1-6-6z" stroke="#000" stroke-width="4"/><use xlink:href="#a" transform="matrix(1,0,0,1,1028,-3320.25474609375) translate(0 16.589501953125)"/><use xlink:href="#b" transform="matrix(1,0,0,1,1028,-3320.25474609375) translate(80.275166015625 16.589501953125)"/><use xlink:href="#c" transform="matrix(1,0,0,1,1028,-3320.25474609375) translate(104.99282226562501 16.589501953125)"/><use xlink:href="#d" transform="matrix(1,0,0,1,1028,-3320.25474609375) translate(183.608701171875 16.589501953125)"/><use xlink:href="#e" transform="matrix(1,0,0,1,1028,-3320.25474609375) translate(225.36061523437502 16.589501953125)"/><use xlink:href="#f" transform="matrix(1,0,0,1,1028,-3320.25474609375) translate(237.76848632812502 16.589501953125)"/><use xlink:href="#g" transform="matrix(1,0,0,1,1028,-3320.25474609375) translate(305.2434375 16.589501953125)"/><use xlink:href="#b" transform="matrix(1,0,0,1,1028,-3320.25474609375) translate(392.5072265625 16.589501953125)"/><use xlink:href="#h" transform="matrix(1,0,0,1,1028,-3320.25474609375) translate(417.2248828125 16.589501953125)"/><use xlink:href="#b" transform="matrix(1,0,0,1,1028,-3320.25474609375) translate(502.31443359375004 16.589501953125)"/><use xlink:href="#i" transform="matrix(1,0,0,1,1028,-3320.25474609375) translate(527.0320898437501 16.589501953125)"/><path d="M1102.67-3174a6 6 0 0 1 6-6h384a6 6 0 0 1 6 6v1052.8a6 6 0 0 1-6 6h-384a6 6 0 0 1-6-6z" stroke="#fc9432" stroke-width="4" fill-opacity="0"/><path d="M1102.67-3222.26a6 6 0 0 1 6-6h157.1a6 6 0 0 1 6 6v24.26a6 6 0 0 1-6 6h-157.1a6 6 0 0 1-6-6z" stroke="#fc9432" stroke-width="4" fill="#fc9432"/><use xlink:href="#j" transform="matrix(1,0,0,1,1110.6740451388887,-3220.25474609375) translate(0 16.589501953125)"/><path d="M1188.12-3094a6 6 0 0 1 6-6h213.1a6 6 0 0 1 6 6v157.5a6 6 0 0 1-6 6h-213.1a6 6 0 0 1-6-6z" stroke="#1071e5" stroke-width="4" fill="#cfe4ff"/><use xlink:href="#k" transform="matrix(1,0,0,1,1200.1210937499998,-3088) translate(8.454427083333343 81.12543402777777)"/><path d="M1196.05-2724.5a6 6 0 0 1 6-6h197.23a6 6 0 0 1 6 6v145.58a6 6 0 0 1-6 6h-197.23a6 6 0 0 1-6-6z" stroke="#1071e5" stroke-width="4" fill="#cfe4ff"/><use xlink:href="#l" transform="matrix(1,0,0,1,1208.0529513888887,-2718.486914866255) translate(8.386284722222229 75.18012152777777)"/><path d="M1182.67-2366.92a6 6 0 0 1 6-6h224a6 6 0 0 1 6 6v165.72a6 6 0 0 1-6 6h-224a6 6 0 0 1-6-6z" stroke="#1071e5" stroke-width="4" fill="#cfe4ff"/><use xlink:href="#m" transform="matrix(1,0,0,1,1194.6740451388887,-2360.920578275034) translate(8.007378472222214 84.99262152777777)"/><path d="M1102.67-3174a6 6 0 0 1 6-6h384a6 6 0 0 1 6 6v1052.8a6 6 0 0 1-6 6h-384a6 6 0 0 1-6-6z" stroke="#fc9432" stroke-width="4" fill-opacity="0"/><path d="M1102.67-3222.26a6 6 0 0 1 6-6h157.1a6 6 0 0 1 6 6v24.26a6 6 0 0 1-6 6h-157.1a6 6 0 0 1-6-6z" stroke="#fc9432" stroke-width="4" fill="#fc9432"/><use xlink:href="#j" transform="matrix(1,0,0,1,1110.6740451388887,-3220.25474609375) translate(0 16.589501953125)"/><path d="M1188.12-3094a6 6 0 0 1 6-6h213.1a6 6 0 0 1 6 6v157.5a6 6 0 0 1-6 6h-213.1a6 6 0 0 1-6-6z" stroke="#1071e5" stroke-width="4" fill="#cfe4ff"/><use xlink:href="#k" transform="matrix(1,0,0,1,1200.1210937499998,-3088) translate(8.454427083333343 81.12543402777777)"/><path d="M1196.05-2724.5a6 6 0 0 1 6-6h197.23a6 6 0 0 1 6 6v145.58a6 6 0 0 1-6 6h-197.23a6 6 0 0 1-6-6z" stroke="#1071e5" stroke-width="4" fill="#cfe4ff"/><use xlink:href="#l" transform="matrix(1,0,0,1,1208.0529513888887,-2718.486914866255) translate(8.386284722222229 75.18012152777777)"/><path d="M1182.67-2366.92a6 6 0 0 1 6-6h224a6 6 0 0 1 6 6v165.72a6 6 0 0 1-6 6h-224a6 6 0 0 1-6-6z" stroke="#1071e5" stroke-width="4" fill="#cfe4ff"/><use xlink:href="#m" transform="matrix(1,0,0,1,1194.6740451388887,-2360.920578275034) translate(8.007378472222214 84.99262152777777)"/><path d="M1880-3194a6 6 0 0 1 6-6h2288a6 6 0 0 1 6 6v1008a6 6 0 0 1-6 6H1886a6 6 0 0 1-6-6z" stroke="#00c2a8" stroke-width="4" fill-opacity="0"/><path d="M1880-3242.26a6 6 0 0 1 6-6h171.67a6 6 0 0 1 6 6v24.26a6 6 0 0 1-6 6H1886a6 6 0 0 1-6-6z" stroke="#00c2a8" stroke-width="4" fill="#00c2a8"/><use xlink:href="#n" transform="matrix(1,0,0,1,1888,-3240.25474609375) translate(0 16.589501953125)"/><path d="M2020.78-3114a6 6 0 0 1 6-6h282.4a6 6 0 0 1 6 6v822.74a6 6 0 0 1-6 6h-282.4a6 6 0 0 1-6-6z" stroke="#fcce14" stroke-width="4" fill-opacity="0"/><path d="M2020.78-3162.26a6 6 0 0 1 6-6h85.18a6 6 0 0 1 6 6v24.26a6 6 0 0 1-6 6h-85.18a6 6 0 0 1-6-6z" stroke="#fcce14" stroke-width="4" fill="#fcce14"/><use xlink:href="#o" transform="matrix(1,0,0,1,2028.7747395833333,-3160.25474609375) translate(0 16.589501953125)"/><path d="M2101.46-3034a6 6 0 0 1 6-6h121.04a6 6 0 0 1 6 6v88.2a6 6 0 0 1-6 6h-121.04a6 6 0 0 1-6-6z" stroke="#1071e5" stroke-width="4" fill="#cfe4ff"/><use xlink:href="#p" transform="matrix(1,0,0,1,2113.4637586805557,-3028) translate(8.483072916666671 46.49262152777778)"/><path d="M2119.3-2733.8a6 6 0 0 1 6-6h85.36a6 6 0 0 1 6 6v61.3a6 6 0 0 1-6 6h-85.36a6 6 0 0 1-6-6z" stroke="#1071e5" stroke-width="4" fill="#cfe4ff"/><use xlink:href="#q" transform="matrix(1,0,0,1,2131.296875,-2727.814011059671) translate(8.316189236111114 33.24652777777778)"/><path d="M2100.78-2460.5a6 6 0 0 1 6-6h122.4a6 6 0 0 1 6 6v89.24a6 6 0 0 1-6 6h-122.4a6 6 0 0 1-6-6z" stroke="#1071e5" stroke-width="4" fill="#cfe4ff"/><use xlink:href="#r" transform="matrix(1,0,0,1,2112.774739583333,-2454.487777563443) translate(8.294053819444436 47.12152777777778)"/><path d="M2020.78-3114a6 6 0 0 1 6-6h282.4a6 6 0 0 1 6 6v822.74a6 6 0 0 1-6 6h-282.4a6 6 0 0 1-6-6z" stroke="#fcce14" stroke-width="4" fill-opacity="0"/><path d="M2020.78-3162.26a6 6 0 0 1 6-6h85.18a6 6 0 0 1 6 6v24.26a6 6 0 0 1-6 6h-85.18a6 6 0 0 1-6-6z" stroke="#fcce14" stroke-width="4" fill="#fcce14"/><use xlink:href="#o" transform="matrix(1,0,0,1,2028.7747395833333,-3160.25474609375) translate(0 16.589501953125)"/><path d="M2101.46-3034a6 6 0 0 1 6-6h121.04a6 6 0 0 1 6 6v88.2a6 6 0 0 1-6 6h-121.04a6 6 0 0 1-6-6z" stroke="#1071e5" stroke-width="4" fill="#cfe4ff"/><use xlink:href="#p" transform="matrix(1,0,0,1,2113.4637586805557,-3028) translate(8.483072916666671 46.49262152777778)"/><path d="M2119.3-2733.8a6 6 0 0 1 6-6h85.36a6 6 0 0 1 6 6v61.3a6 6 0 0 1-6 6h-85.36a6 6 0 0 1-6-6z" stroke="#1071e5" stroke-width="4" fill="#cfe4ff"/><use xlink:href="#q" transform="matrix(1,0,0,1,2131.296875,-2727.814011059671) translate(8.316189236111114 33.24652777777778)"/><path d="M2100.78-2460.5a6 6 0 0 1 6-6h122.4a6 6 0 0 1 6 6v89.24a6 6 0 0 1-6 6h-122.4a6 6 0 0 1-6-6z" stroke="#1071e5" stroke-width="4" fill="#cfe4ff"/><use xlink:href="#r" transform="matrix(1,0,0,1,2112.774739583333,-2454.487777563443) translate(8.294053819444436 47.12152777777778)"/><path d="M2480-3101.64a6 6 0 0 1 6-6h336.3a6 6 0 0 1 6 6v899.87a6 6 0 0 1-6 6H2486a6 6 0 0 1-6-6z" stroke="#e08fff" stroke-width="4" fill-opacity="0"/><path d="M2480-3149.9a6 6 0 0 1 6-6h117.63a6 6 0 0 1 6 6v24.26a6 6 0 0 1-6 6H2486a6 6 0 0 1-6-6z" stroke="#e08fff" stroke-width="4" fill="#e08fff"/><use xlink:href="#s" transform="matrix(1,0,0,1,2488,-3147.8919337009174) translate(0 16.589501953125)"/><path d="M2576.5-3021.64a6 6 0 0 1 6-6h143.3a6 6 0 0 1 6 6v104.97a6 6 0 0 1-6 6h-143.3a6 6 0 0 1-6-6z" stroke="#1071e5" stroke-width="4" fill="#cfe4ff"/><use xlink:href="#t" transform="matrix(1,0,0,1,2588.4930555555557,-3015.6371876071676) translate(8.339409722222229 54.58637152777778)"/><path d="M2592.35-2704.67a6 6 0 0 1 6-6h111.6a6 6 0 0 1 6 6v81.1a6 6 0 0 1-6 6h-111.6a6 6 0 0 1-6-6z" stroke="#1071e5" stroke-width="4" fill="#cfe4ff"/><use xlink:href="#u" transform="matrix(1,0,0,1,2604.3513454861113,-2698.6669158307614) translate(8.197699652777779 43.12934027777778)"/><path d="M2560-2411.58a6 6 0 0 1 6-6h176.3a6 6 0 0 1 6 6v129.8a6 6 0 0 1-6 6H2566a6 6 0 0 1-6-6z" stroke="#1071e5" stroke-width="4" fill="#cfe4ff"/><use xlink:href="#v" transform="matrix(1,0,0,1,2572,-2405.5819696287726) translate(8.346354166666671 67.16059027777777)"/><path d="M2480-3101.64a6 6 0 0 1 6-6h336.3a6 6 0 0 1 6 6v899.87a6 6 0 0 1-6 6H2486a6 6 0 0 1-6-6z" stroke="#e08fff" stroke-width="4" fill-opacity="0"/><path d="M2480-3149.9a6 6 0 0 1 6-6h117.63a6 6 0 0 1 6 6v24.26a6 6 0 0 1-6 6H2486a6 6 0 0 1-6-6z" stroke="#e08fff" stroke-width="4" fill="#e08fff"/><use xlink:href="#s" transform="matrix(1,0,0,1,2488,-3147.8919337009174) translate(0 16.589501953125)"/><path d="M2576.5-3021.64a6 6 0 0 1 6-6h143.3a6 6 0 0 1 6 6v104.97a6 6 0 0 1-6 6h-143.3a6 6 0 0 1-6-6z" stroke="#1071e5" stroke-width="4" fill="#cfe4ff"/><use xlink:href="#t" transform="matrix(1,0,0,1,2588.4930555555557,-3015.6371876071676) translate(8.339409722222229 54.58637152777778)"/><path d="M2592.35-2704.67a6 6 0 0 1 6-6h111.6a6 6 0 0 1 6 6v81.1a6 6 0 0 1-6 6h-111.6a6 6 0 0 1-6-6z" stroke="#1071e5" stroke-width="4" fill="#cfe4ff"/><use xlink:href="#u" transform="matrix(1,0,0,1,2604.3513454861113,-2698.6669158307614) translate(8.197699652777779 43.12934027777778)"/><path d="M2560-2411.58a6 6 0 0 1 6-6h176.3a6 6 0 0 1 6 6v129.8a6 6 0 0 1-6 6H2566a6 6 0 0 1-6-6z" stroke="#1071e5" stroke-width="4" fill="#cfe4ff"/><use xlink:href="#v" transform="matrix(1,0,0,1,2572,-2405.5819696287726) translate(8.346354166666671 67.16059027777777)"/><path d="M3080-3054a6 6 0 0 1 6-6h288.52a6 6 0 0 1 6 6v539.65a6 6 0 0 1-6 6H3086a6 6 0 0 1-6-6z" stroke="#fc9432" stroke-width="4" fill-opacity="0"/><path d="M3080-3102.26a6 6 0 0 1 6-6h117.7a6 6 0 0 1 6 6v24.26a6 6 0 0 1-6 6H3086a6 6 0 0 1-6-6z" stroke="#fc9432" stroke-width="4" fill="#fc9432"/><use xlink:href="#w" transform="matrix(1,0,0,1,3088,-3100.25474609375) translate(0 16.589501953125)"/><path d="M3173.28-2974a6 6 0 0 1 6-6h101.96a6 6 0 0 1 6 6v73.83a6 6 0 0 1-6 6h-101.96a6 6 0 0 1-6-6z" stroke="#1071e5" stroke-width="4" fill="#cfe4ff"/><use xlink:href="#x" transform="matrix(1,0,0,1,3185.275824652778,-2968) translate(8.015407986111114 38.96527777777778)"/><path d="M3160-2688.17a6 6 0 0 1 6-6h128.52a6 6 0 0 1 6 6v93.82a6 6 0 0 1-6 6H3166a6 6 0 0 1-6-6z" stroke="#1071e5" stroke-width="4" fill="#cfe4ff"/><use xlink:href="#y" transform="matrix(1,0,0,1,3172,-2682.1713552383403) translate(8.239583333333336 49.07465277777778)"/><path d="M3080-3054a6 6 0 0 1 6-6h288.52a6 6 0 0 1 6 6v539.65a6 6 0 0 1-6 6H3086a6 6 0 0 1-6-6z" stroke="#fc9432" stroke-width="4" fill-opacity="0"/><path d="M3080-3102.26a6 6 0 0 1 6-6h117.7a6 6 0 0 1 6 6v24.26a6 6 0 0 1-6 6H3086a6 6 0 0 1-6-6z" stroke="#fc9432" stroke-width="4" fill="#fc9432"/><use xlink:href="#w" transform="matrix(1,0,0,1,3088,-3100.25474609375) translate(0 16.589501953125)"/><path d="M3173.28-2974a6 6 0 0 1 6-6h101.96a6 6 0 0 1 6 6v73.83a6 6 0 0 1-6 6h-101.96a6 6 0 0 1-6-6z" stroke="#1071e5" stroke-width="4" fill="#cfe4ff"/><use xlink:href="#x" transform="matrix(1,0,0,1,3185.275824652778,-2968) translate(8.015407986111114 38.96527777777778)"/><path d="M3160-2688.17a6 6 0 0 1 6-6h128.52a6 6 0 0 1 6 6v93.82a6 6 0 0 1-6 6H3166a6 6 0 0 1-6-6z" stroke="#1071e5" stroke-width="4" fill="#cfe4ff"/><use xlink:href="#y" transform="matrix(1,0,0,1,3172,-2682.1713552383403) translate(8.239583333333336 49.07465277777778)"/><path d="M3560-3040.93a6 6 0 0 1 6-6h403.96a6 6 0 0 1 6 6v340.76a6 6 0 0 1-6 6H3566a6 6 0 0 1-6-6z" stroke="#00c2a8" stroke-width="4" fill-opacity="0"/><path d="M3560-3089.2a6 6 0 0 1 6-6h139.2a6 6 0 0 1 6 6v24.27a6 6 0 0 1-6 6H3566a6 6 0 0 1-6-6z" stroke="#00c2a8" stroke-width="4" fill="#00c2a8"/><use xlink:href="#z" transform="matrix(1,0,0,1,3568,-3087.187134211034) translate(0 16.589501953125)"/><path d="M3640-2960.93a6 6 0 0 1 6-6h243.96a6 6 0 0 1 6 6v180.76a6 6 0 0 1-6 6H3646a6 6 0 0 1-6-6z" stroke="#1071e5" stroke-width="4" fill="#cfe4ff"/><use xlink:href="#A" transform="matrix(1,0,0,1,3652,-2954.932388117284) translate(8.019314236111114 92.49457465277777)"/><path d="M3560-3040.93a6 6 0 0 1 6-6h403.96a6 6 0 0 1 6 6v340.76a6 6 0 0 1-6 6H3566a6 6 0 0 1-6-6z" stroke="#00c2a8" stroke-width="4" fill-opacity="0"/><path d="M3560-3089.2a6 6 0 0 1 6-6h139.2a6 6 0 0 1 6 6v24.27a6 6 0 0 1-6 6H3566a6 6 0 0 1-6-6z" stroke="#00c2a8" stroke-width="4" fill="#00c2a8"/><use xlink:href="#z" transform="matrix(1,0,0,1,3568,-3087.187134211034) translate(0 16.589501953125)"/><path d="M3640-2960.93a6 6 0 0 1 6-6h243.96a6 6 0 0 1 6 6v180.76a6 6 0 0 1-6 6H3646a6 6 0 0 1-6-6z" stroke="#1071e5" stroke-width="4" fill="#cfe4ff"/><use xlink:href="#A" transform="matrix(1,0,0,1,3652,-2954.932388117284) translate(8.019314236111114 92.49457465277777)"/><path d="M1071.03-1694a6 6 0 0 1 6-6h861.04a6 6 0 0 1 6 6v708.55a6 6 0 0 1-6 6h-861.04a6 6 0 0 1-6-6z" stroke="#fcce14" stroke-width="4" fill-opacity="0"/><path d="M1071.03-1742.26a6 6 0 0 1 6-6h144.14a6 6 0 0 1 6 6v24.26a6 6 0 0 1-6 6h-144.14a6 6 0 0 1-6-6z" stroke="#fcce14" stroke-width="4" fill="#fcce14"/><use xlink:href="#B" transform="matrix(1,0,0,1,1079.0334201388887,-1740.25474609375) translate(0 16.589501953125)"/><path d="M1151.03-1614a6 6 0 0 1 6-6h255.63a6 6 0 0 1 6 6v189.55a6 6 0 0 1-6 6h-255.63a6 6 0 0 1-6-6z" stroke="#1071e5" stroke-width="4" fill="#cfe4ff"/><use xlink:href="#C" transform="matrix(1,0,0,1,1163.0334201388887,-1608) translate(8.187065972222214 96.96918402777777)"/><path d="M1618.66-1605.64a6 6 0 0 1 6-6h233.4a6 6 0 0 1 6 6v172.82a6 6 0 0 1-6 6h-233.4a6 6 0 0 1-6-6z" stroke="#1071e5" stroke-width="4" fill="#cfe4ff"/><use xlink:href="#D" transform="matrix(1,0,0,1,1630.6592881944443,-1599.6364588691702) translate(8.292751736111143 88.50629340277777)"/><path d="M1179.28-1212.45a6 6 0 0 1 6-6h199.13a6 6 0 0 1 6 6v147a6 6 0 0 1-6 6H1185.3a6 6 0 0 1-6-6z" stroke="#1071e5" stroke-width="4" fill="#cfe4ff"/><use xlink:href="#E" transform="matrix(1,0,0,1,1191.2777777777776,-1206.4545931927298) translate(8.431423611111114 75.98090277777777)"/><path d="M1071.03-1694a6 6 0 0 1 6-6h861.04a6 6 0 0 1 6 6v708.55a6 6 0 0 1-6 6h-861.04a6 6 0 0 1-6-6z" stroke="#fcce14" stroke-width="4" fill-opacity="0"/><path d="M1071.03-1742.26a6 6 0 0 1 6-6h144.14a6 6 0 0 1 6 6v24.26a6 6 0 0 1-6 6h-144.14a6 6 0 0 1-6-6z" stroke="#fcce14" stroke-width="4" fill="#fcce14"/><use xlink:href="#B" transform="matrix(1,0,0,1,1079.0334201388887,-1740.25474609375) translate(0 16.589501953125)"/><path d="M1151.03-1614a6 6 0 0 1 6-6h255.63a6 6 0 0 1 6 6v189.55a6 6 0 0 1-6 6h-255.63a6 6 0 0 1-6-6z" stroke="#1071e5" stroke-width="4" fill="#cfe4ff"/><use xlink:href="#C" transform="matrix(1,0,0,1,1163.0334201388887,-1608) translate(8.187065972222214 96.96918402777777)"/><path d="M1618.66-1605.64a6 6 0 0 1 6-6h233.4a6 6 0 0 1 6 6v172.82a6 6 0 0 1-6 6h-233.4a6 6 0 0 1-6-6z" stroke="#1071e5" stroke-width="4" fill="#cfe4ff"/><use xlink:href="#D" transform="matrix(1,0,0,1,1630.6592881944443,-1599.6364588691702) translate(8.292751736111143 88.50629340277777)"/><path d="M1179.28-1212.45a6 6 0 0 1 6-6h199.13a6 6 0 0 1 6 6v147a6 6 0 0 1-6 6H1185.3a6 6 0 0 1-6-6z" stroke="#1071e5" stroke-width="4" fill="#cfe4ff"/><use xlink:href="#E" transform="matrix(1,0,0,1,1191.2777777777776,-1206.4545931927298) translate(8.431423611111114 75.98090277777777)"/><path d="M2780-1774a6 6 0 0 1 6-6h1348a6 6 0 0 1 6 6v828a6 6 0 0 1-6 6H2786a6 6 0 0 1-6-6z" stroke="#e08fff" stroke-width="4" fill-opacity="0"/><path d="M2780-1822.26a6 6 0 0 1 6-6h202.12a6 6 0 0 1 6 6v24.26a6 6 0 0 1-6 6H2786a6 6 0 0 1-6-6z" stroke="#e08fff" stroke-width="4" fill="#e08fff"/><use xlink:href="#F" transform="matrix(1,0,0,1,2788,-1820.25474609375) translate(0 16.589501953125)"/><path d="M2860-1656.3a6 6 0 0 1 6-6h176.7a6 6 0 0 1 6 6v130.12a6 6 0 0 1-6 6H2866a6 6 0 0 1-6-6z" stroke="#1071e5" stroke-width="4" fill="#cfe4ff"/><use xlink:href="#G" transform="matrix(1,0,0,1,2872,-1650.2884784379287) translate(8.151041666666657 67.54730902777777)"/><path d="M3248.7-1694a6 6 0 0 1 6-6h276.85a6 6 0 0 1 6 6v205.53a6 6 0 0 1-6 6H3254.7a6 6 0 0 1-6-6z" stroke="#1071e5" stroke-width="4" fill="#cfe4ff"/><use xlink:href="#H" transform="matrix(1,0,0,1,3260.697916666667,-1688) translate(8.075086805555529 105.26605902777777)"/><path d="M3737.55-1681.74a6 6 0 0 1 6-6h244.3a6 6 0 0 1 6 6v181a6 6 0 0 1-6 6h-244.3a6 6 0 0 1-6-6z" stroke="#1071e5" stroke-width="4" fill="#cfe4ff"/><use xlink:href="#I" transform="matrix(1,0,0,1,3749.5477430555557,-1675.742734053498) translate(8.3511284722222 93.24652777777777)"/><path d="M2862.36-1276.47a6 6 0 0 1 6-6h171.98a6 6 0 0 1 6 6v126.55a6 6 0 0 1-6 6h-171.98a6 6 0 0 1-6-6z" stroke="#1071e5" stroke-width="4" fill="#cfe4ff"/><use xlink:href="#J" transform="matrix(1,0,0,1,2874.3600260416665,-1270.471118398491) translate(8.011067708333343 65.55121527777777)"/><path d="M3304.26-1274.1a6 6 0 0 1 6-6h165.72a6 6 0 0 1 6 6v121.82a6 6 0 0 1-6 6h-165.72a6 6 0 0 1-6-6z" stroke="#1071e5" stroke-width="4" fill="#cfe4ff"/><use xlink:href="#K" transform="matrix(1,0,0,1,3316.264322916667,-1268.1136375814472) translate(8.141493055555557 63.20746527777778)"/><path d="M2780-1774a6 6 0 0 1 6-6h1348a6 6 0 0 1 6 6v828a6 6 0 0 1-6 6H2786a6 6 0 0 1-6-6z" stroke="#e08fff" stroke-width="4" fill-opacity="0"/><path d="M2780-1822.26a6 6 0 0 1 6-6h202.12a6 6 0 0 1 6 6v24.26a6 6 0 0 1-6 6H2786a6 6 0 0 1-6-6z" stroke="#e08fff" stroke-width="4" fill="#e08fff"/><use xlink:href="#F" transform="matrix(1,0,0,1,2788,-1820.25474609375) translate(0 16.589501953125)"/><path d="M2860-1656.3a6 6 0 0 1 6-6h176.7a6 6 0 0 1 6 6v130.12a6 6 0 0 1-6 6H2866a6 6 0 0 1-6-6z" stroke="#1071e5" stroke-width="4" fill="#cfe4ff"/><use xlink:href="#G" transform="matrix(1,0,0,1,2872,-1650.2884784379287) translate(8.151041666666657 67.54730902777777)"/><path d="M3248.7-1694a6 6 0 0 1 6-6h276.85a6 6 0 0 1 6 6v205.53a6 6 0 0 1-6 6H3254.7a6 6 0 0 1-6-6z" stroke="#1071e5" stroke-width="4" fill="#cfe4ff"/><use xlink:href="#H" transform="matrix(1,0,0,1,3260.697916666667,-1688) translate(8.075086805555529 105.26605902777777)"/><path d="M3737.55-1681.74a6 6 0 0 1 6-6h244.3a6 6 0 0 1 6 6v181a6 6 0 0 1-6 6h-244.3a6 6 0 0 1-6-6z" stroke="#1071e5" stroke-width="4" fill="#cfe4ff"/><use xlink:href="#I" transform="matrix(1,0,0,1,3749.5477430555557,-1675.742734053498) translate(8.3511284722222 93.24652777777777)"/><path d="M2862.36-1276.47a6 6 0 0 1 6-6h171.98a6 6 0 0 1 6 6v126.55a6 6 0 0 1-6 6h-171.98a6 6 0 0 1-6-6z" stroke="#1071e5" stroke-width="4" fill="#cfe4ff"/><use xlink:href="#J" transform="matrix(1,0,0,1,2874.3600260416665,-1270.471118398491) translate(8.011067708333343 65.55121527777777)"/><path d="M3304.26-1274.1a6 6 0 0 1 6-6h165.72a6 6 0 0 1 6 6v121.82a6 6 0 0 1-6 6h-165.72a6 6 0 0 1-6-6z" stroke="#1071e5" stroke-width="4" fill="#cfe4ff"/><use xlink:href="#K" transform="matrix(1,0,0,1,3316.264322916667,-1268.1136375814472) translate(8.141493055555557 63.20746527777778)"/><path d="M2080-1754a6 6 0 0 1 6-6h354.04a6 6 0 0 1 6 6v658.33a6 6 0 0 1-6 6H2086a6 6 0 0 1-6-6z" stroke="#fc9432" stroke-width="4" fill-opacity="0"/><path d="M2080-1802.26a6 6 0 0 1 6-6h150a6 6 0 0 1 6 6v24.26a6 6 0 0 1-6 6h-150a6 6 0 0 1-6-6z" stroke="#fc9432" stroke-width="4" fill="#fc9432"/><use xlink:href="#L" transform="matrix(1,0,0,1,2088,-1800.25474609375) translate(0 16.589501953125)"/><path d="M2160-1318.84a6 6 0 0 1 6-6h194.04a6 6 0 0 1 6 6v143.17a6 6 0 0 1-6 6H2166a6 6 0 0 1-6-6z" stroke="#1071e5" stroke-width="4" fill="#cfe4ff"/><use xlink:href="#M" transform="matrix(1,0,0,1,2172,-1312.8360875342935) translate(8.481336805555557 74.12152777777777)"/><path d="M2263.02-1327.34v-179.1" stroke="#3a414a" fill="none"/><path d="M2263.5-1326.84h-.96v-.5h.95z" stroke="#3a414a" stroke-width=".05" fill="#3a414a"/><path d="M2263.02-1521.22l4.63 14.27h-9.27z" stroke="#3a414a" fill="#3a414a"/><path d="M2160-1674a6 6 0 0 1 6-6h194.04a6 6 0 0 1 6 6v143.16a6 6 0 0 1-6 6H2166a6 6 0 0 1-6-6z" stroke="#1071e5" stroke-width="4" fill="#cfe4ff"/><use xlink:href="#N" transform="matrix(1,0,0,1,2172,-1668) translate(48.39019097222223 74.12152777777777)"/><path d="M2080-1754a6 6 0 0 1 6-6h354.04a6 6 0 0 1 6 6v658.33a6 6 0 0 1-6 6H2086a6 6 0 0 1-6-6z" stroke="#fc9432" stroke-width="4" fill-opacity="0"/><path d="M2080-1802.26a6 6 0 0 1 6-6h150a6 6 0 0 1 6 6v24.26a6 6 0 0 1-6 6h-150a6 6 0 0 1-6-6z" stroke="#fc9432" stroke-width="4" fill="#fc9432"/><use xlink:href="#L" transform="matrix(1,0,0,1,2088,-1800.25474609375) translate(0 16.589501953125)"/><path d="M2160-1318.84a6 6 0 0 1 6-6h194.04a6 6 0 0 1 6 6v143.17a6 6 0 0 1-6 6H2166a6 6 0 0 1-6-6z" stroke="#1071e5" stroke-width="4" fill="#cfe4ff"/><use xlink:href="#M" transform="matrix(1,0,0,1,2172,-1312.8360875342935) translate(8.481336805555557 74.12152777777777)"/><path d="M2263.02-1327.34v-179.1" stroke="#3a414a" fill="none"/><path d="M2263.5-1326.84h-.96v-.5h.95z" stroke="#3a414a" stroke-width=".05" fill="#3a414a"/><path d="M2263.02-1521.22l4.63 14.27h-9.27z" stroke="#3a414a" fill="#3a414a"/><path d="M2160-1674a6 6 0 0 1 6-6h194.04a6 6 0 0 1 6 6v143.16a6 6 0 0 1-6 6H2166a6 6 0 0 1-6-6z" stroke="#1071e5" stroke-width="4" fill="#cfe4ff"/><use xlink:href="#N" transform="matrix(1,0,0,1,2172,-1668) translate(48.39019097222223 74.12152777777777)"/><path d="M1501.66-2647.6h10.25m10.26 0h20.5m10.25 0h20.5m10.26 0h20.5m10.25 0h20.5m10.26 0h20.5m10.25 0h13.43v-7.08m0-10.25v-20.5m0-10.25v-20.5m0-10.25v-20.5m0-10.25v-20.5m0-10.25v-20.5m0-10.25v-20.5m6.17-4.1h20.5m10.25 0h20.5m10.25 0h20.5m10.25 0h20.5m10.25 0h20.5m10.25 0h10.25" stroke="#000" stroke-width="2" fill="none"/><path d="M1501.68-2646.63h-1.02v-1.95h1.02z" stroke="#000" stroke-width=".05"/><path d="M1874.76-2843.27l-14.26 4.64v-9.27z" stroke="#000" stroke-width="2"/><path d="M2777-1569.64h-9.96v-1.95h9.96zm-19.93 0h-20.05v-1.83h.98v-.12h19.07zm-18.1-11.8h-1.94v-19.92h1.94zm0-29.88h-1.94v-19.92h1.94zm0-29.9h-1.94v-19.9h1.94zm0-29.88h-1.94v-19.92h1.94zm0-29.88h-1.94v-19.93h1.94zm0-29.9h-1.94v-19.92h1.94zm0-29.88h-1.94v-19.93h1.94zm0-29.9h-1.94v-19.9l1.94-.02zm0-29.88h-1.94v-19.92h1.94zm0-29.9h-1.94v-19.9h1.94zm0-29.87h-1.94v-19.94h1.94zm0-29.9h-1.94v-19.93h1.94zm0-29.9h-1.94V-1960h1.94zm8.93-38.93h-8.93v9.05h-1.94v-11h10.87zm29.9 0h-19.93v-1.94h19.92zm29.88 0h-19.92v-1.94h19.92zm29.9 0h-19.94v-1.94h19.93zm29.88 0h-19.93v-1.94h19.93zm29.9 0h-19.94v-1.94h19.93zm29.87 0h-19.92v-1.94h19.93zm29.9 0h-19.93v-1.94h19.92zm29.88 0h-19.9v-1.94h19.9zm29.9 0h-19.93v-1.94h19.93zm29.9 0h-19.94v-1.94h19.93zm29.88 0h-19.93v-1.94h19.93zm29.88 0h-19.92v-1.94h19.92zm29.9 0h-19.93v-1.94h19.92zm29.88 0h-19.93v-1.94h19.94zm29.9 0h-19.94v-1.94h19.93zm29.88 0h-19.93v-1.94h19.92zm29.9 0h-19.94v-1.94H3256zm29.87 0h-19.93v-1.94h19.92zm29.88 0h-19.92v-1.94h19.92zm29.9 0h-19.94v-1.94h19.93zm29.88 0h-19.93v-1.94h19.93zm29.9 0h-19.94v-1.94h19.93zm29.88 0h-19.93v-1.94h19.93zm29.88 0h-19.92v-1.94h19.92zm209.22 0h-19.93v-1.94h19.94zm29.9 0h-19.94v-1.94h19.93zm29.88 0h-19.93v-1.94h19.92zm29.9 0h-19.94v-1.94h19.93zm29.87 0h-19.93v-1.94H3794zm29.88 0h-19.92v-1.94h19.92zm29.9 0h-19.94v-1.94h19.93zm29.88 0h-19.93v-1.94h19.93zm29.9 0h-19.94v-1.94h19.93zm29.88 0h-19.93v-1.94h19.93zm29.88 0h-19.92v-1.94h19.92zm29.9 0h-19.93v-1.94h19.9zm29.88 0h-19.93v-1.94h19.93zm29.9 0h-19.94v-1.94H4063zm29.88 0h-19.93v-1.94h19.93zm29.9 0h-19.94v-1.94h19.93zm29.87 0h-19.92v-1.94h19.92zm29.9 0h-19.93v-1.94h19.92zm29.88 0h-19.93v-1.94h19.93zm-567.88 0h-6.78v-1.94h6.78zm578.43-1.36h-1.95v-19.92h1.95zm0-29.88h-1.95v-19.93h1.95zm0-29.9h-1.95v-19.9h1.95zm0-29.88h-1.95v-19.92h1.95zm0-29.9h-1.95v-19.9h1.95zm0-29.87h-1.95v-19.93h1.95zm0-29.9h-1.95v-19.92h1.95zm0-29.88h-1.95v-19.94h1.95zm0-29.9h-1.95v-19.92h1.95zm0-29.9h-1.95v-19.9h1.95zm0-29.88h-1.95v-19.92h1.95zm0-29.88h-1.95v-19.93h1.95zm0-29.9h-1.95v-19.92h1.95zm0-29.88h-1.95v-19.92h1.95zm0-29.9h-1.95v-19.9h1.95zm0-29.88h-1.95v-19.92h1.95zm0-29.88h-1.95v-19.93h1.95zm0-29.9h-1.95v-19.92h1.95zm0-29.88h-1.95v-17.38h-.6v-1.95h2.55zm-12.5-17.38h-9.98v-1.95h9.97z" stroke="#000" stroke-width=".05"/><path d="M2778-1569.64h-1.03v-1.95h1.03z"/><path stroke="#000" stroke-width=".05"/><path d="M4199.5-2532.1l-14.26-4.63 14.26-4.64z"/><path d="M4200.48-2530.76l-18.4-5.97 18.4-5.98zm-12.1-5.97l10.15 3.3v-6.6z" stroke="#000" stroke-width=".05"/><g><use xlink:href="#O" transform="matrix(1,0,0,1,3469.582898106707,-1990.7552083333333) translate(0.0049999999999954525 17.22222222222222)"/><use xlink:href="#P" transform="matrix(1,0,0,1,3469.582898106707,-1990.7552083333333) translate(126.958125 17.22222222222222)"/></g><path d="M2110-2179v9.86m0 9.86v19.7m0 9.87v19.7m0 9.87v19.7m0 9.87v19.72m0 9.86v19.7m0 9.87v19.7m0 9.86v19.72m0 9.86v11.26h-8.45m-9.86 0h-19.73m-9.86 0h-19.7m-9.86 0h-19.72m-9.86 0h-19.7m-9.87 0h-19.73m-9.86 0h-19.7m-9.86 0h-19.72m-9.86 0h-19.7m-6.25 3.62v19.7m0 9.87v19.7m0 9.87v19.7m0 9.87v19.72m0 9.86v19.7m0 9.87v19.7m0 9.87v19.7m0 9.87v9.86" stroke="#000" stroke-width="2" fill="none"/><path stroke="#000" stroke-width=".05"/><path d="M1858.7-1705.24l-4.63-14.26h9.27z" stroke="#000" stroke-width="2"/><path d="M2337.3-2177v9.8m0 9.82v19.6m0 9.82v19.6m0 9.82v19.62m0 9.8v19.62m0 9.8v19.63m0 9.8v19.62m0 9.8v10.85h-8.78m-9.8 0h-19.62m-9.8 0h-19.62m-6.66 3.15v19.62m0 9.8v19.62m0 9.8v19.6m0 9.82v19.62m0 9.8v19.62m0 9.8v19.62m0 9.8v9.82" stroke="#000" stroke-width="2" fill="none"/><path d="M2338.27-2176.97h-1.95v-1.03h1.95z" stroke="#000" stroke-width=".05"/><path d="M2263.02-1765.24l-4.64-14.26h9.27z" stroke="#000" stroke-width="2"/><defs><path fill="#fff" d="M645 0H180v-1490h484c435 0 692 280 692 742 0 466-257 748-711 748zM370-168h263c363 0 539-218 539-580 0-358-176-574-521-574H370v1154" id="Q"/><path fill="#fff" d="M158 0v-1118h180V0H158zm91-1301c-68 0-125-53-125-119s57-119 125-119c69 0 126 53 126 119s-57 119-126 119" id="R"/><path fill="#fff" d="M471 26C259 26 90-98 90-318c0-256 228-303 435-329 202-27 287-16 287-108 0-139-79-219-234-219-161 0-248 86-283 164l-173-57c86-203 278-265 451-265 150 0 419 46 419 395V0H815v-152h-12C765-73 660 26 471 26zm31-159c199 0 310-134 310-271v-155c-30 35-226 55-295 64-131 17-246 59-246 186 0 116 97 176 231 176" id="S"/><path fill="#fff" d="M611 442c-248 0-391-105-460-228l146-94c47 65 117 165 314 165 178 0 307-82 307-266v-224h-17C863-141 792-18 576-18c-268 0-472-195-472-546 0-346 197-568 476-568 216 0 288 133 326 193h17v-179h175V29c0 289-215 413-487 413zm-5-620c203 0 314-146 314-390 0-237-108-403-314-403-213 0-319 180-319 403 0 230 109 390 319 390" id="T"/><path fill="#fff" d="M158 0v-1118h174v172h12c41-113 157-188 290-188 26 0 70 2 91 3v181c-11-2-60-10-108-10-161 0-279 109-279 260V0H158" id="U"/><path fill="#fff" d="M158 0v-1118h175l1 205c55-151 181-225 313-225 147 0 245 90 285 228 53-141 190-228 352-228 194 0 352 125 352 384V0h-181v-749c0-161-105-225-225-225-151 0-243 103-243 244V0H807v-767c0-124-93-207-219-207-131 0-250 92-250 270V0H158" id="V"/><g id="a"><use transform="matrix(0.008173828125000001,0,0,0.008173828125000001,0,0)" xlink:href="#Q"/><use transform="matrix(0.008173828125000001,0,0,0.008173828125000001,12.08091796875,0)" xlink:href="#R"/><use transform="matrix(0.008173828125000001,0,0,0.008173828125000001,16.13513671875,0)" xlink:href="#S"/><use transform="matrix(0.008173828125000001,0,0,0.008173828125000001,25.535039062500005,0)" xlink:href="#T"/><use transform="matrix(0.008173828125000001,0,0,0.008173828125000001,35.801367187500006,0)" xlink:href="#U"/><use transform="matrix(0.008173828125000001,0,0,0.008173828125000001,42.10338867187501,0)" xlink:href="#S"/><use transform="matrix(0.008173828125000001,0,0,0.008173828125000001,51.50329101562501,0)" xlink:href="#V"/><use transform="matrix(0.008173828125000001,0,0,0.008173828125000001,66.16713867187501,0)" xlink:href="#S"/></g><path fill="#fff" d="M577 24c-279 0-473-224-473-580 0-354 195-576 474-576 218 0 287 134 324 193h14v-551h180V0H922v-173h-20C865-111 790 24 577 24zm27-161c203 0 314-172 314-421 0-247-108-413-314-413-212 0-317 181-317 413 0 235 108 421 317 421" id="W"/><path fill="#fff" d="M628 24c-324 0-524-230-524-574 0-343 198-582 503-582 237 0 487 146 487 559v75H286c9 234 145 362 343 362 132 0 231-58 273-172l174 48C1024-91 857 24 628 24zM287-650h624c-17-190-120-322-304-322-192 0-309 151-320 322" id="X"/><g id="b"><use transform="matrix(0.008173828125000001,0,0,0.008173828125000001,0,0)" xlink:href="#W"/><use transform="matrix(0.008173828125000001,0,0,0.008173828125000001,10.249980468750001,0)" xlink:href="#X"/></g><path fill="#fff" d="M180 0v-1490h510c348 0 508 209 508 474 0 266-160 477-507 477H370V0H180zm190-706h312c236 0 327-133 327-310 0-176-91-307-329-307H370v617" id="Y"/><path fill="#fff" d="M1096 418H916v-591h-14C865-111 790 24 577 24c-279 0-473-224-473-580 0-354 195-576 474-576 218 0 287 134 324 193h20v-179h174V418zM604-137c203 0 314-172 314-421 0-247-108-413-314-413-212 0-317 181-317 413 0 235 108 421 317 421" id="Z"/><path fill="#fff" d="M537 14c-226 0-379-139-379-422v-710h180v695c0 172 97 275 253 275 160 0 281-109 281-300v-670h181V0H879v-209C806-46 684 14 537 14" id="aa"/><path fill="#fff" d="M598-1118v154H368v674c0 100 37 144 132 144 23 0 62-6 92-12L629-6c-37 13-88 20-134 20-193 0-307-107-307-290v-688H20v-154h168v-266h180v266h230" id="ab"/><path fill="#fff" d="M538 24C308 24 148-78 108-271l171-41c32 123 123 178 257 178 156 0 256-77 256-169 0-77-54-128-164-154l-186-44c-203-48-300-148-300-305 0-192 176-326 414-326 230 0 351 112 402 269l-163 42c-31-80-94-158-238-158-133 0-233 69-233 162 0 83 57 129 188 160l169 40c203 48 298 149 298 302 0 196-179 339-441 339" id="ac"/><g id="c"><use transform="matrix(0.008173828125000001,0,0,0.008173828125000001,0,0)" xlink:href="#Y"/><use transform="matrix(0.008173828125000001,0,0,0.008173828125000001,10.691367187500001,0)" xlink:href="#S"/><use transform="matrix(0.008173828125000001,0,0,0.008173828125000001,20.091269531250003,0)" xlink:href="#Z"/><use transform="matrix(0.008173828125000001,0,0,0.008173828125000001,30.341250000000002,0)" xlink:href="#aa"/><use transform="matrix(0.008173828125000001,0,0,0.008173828125000001,40.239755859375,0)" xlink:href="#X"/><use transform="matrix(0.008173828125000001,0,0,0.008173828125000001,49.999306640625,0)" xlink:href="#ab"/><use transform="matrix(0.008173828125000001,0,0,0.008173828125000001,55.312294921875,0)" xlink:href="#X"/><use transform="matrix(0.008173828125000001,0,0,0.008173828125000001,65.071845703125,0)" xlink:href="#ac"/></g><path fill="#fff" d="M763 24c-353 0-583-224-583-531v-983h190v968c0 214 149 370 393 370 243 0 391-156 391-370v-968h190v983c0 307-230 531-581 531" id="ad"/><path fill="#fff" d="M180 0v-1490h270l367 940c28 72 75 218 110 339 35-117 81-264 110-339l362-940h271V0h-187c2-448-5-837 7-1287-157 497-311 829-483 1287H842C666-458 514-784 354-1284c12 438 5 843 7 1284H180" id="ae"/><path fill="#fff" d="M180 0v-1490h190v1322h690V0H180" id="af"/><g id="d"><use transform="matrix(0.008173828125000001,0,0,0.008173828125000001,0,0)" xlink:href="#ad"/><use transform="matrix(0.008173828125000001,0,0,0.008173828125000001,12.456914062500001,0)" xlink:href="#ae"/><use transform="matrix(0.008173828125000001,0,0,0.008173828125000001,27.578496093750005,0)" xlink:href="#af"/></g><path fill="#fff" d="M798-719v166H144v-166h654" id="ag"/><use transform="matrix(0.008173828125000001,0,0,0.008173828125000001,0,0)" xlink:href="#ag" id="e"/><path fill="#fff" d="M657 26c-323 0-524-166-541-416h195c15 169 171 246 346 246 202 0 356-106 356-265 5-203-294-238-475-293-239-73-380-191-380-389 0-252 224-419 512-419 294 0 499 171 508 396H992c-17-145-151-228-328-228-193 0-321 102-321 242 0 156 175 211 284 241l149 41c160 44 422 134 422 412 0 244-197 432-541 432" id="ah"/><g id="f"><use transform="matrix(0.008173828125000001,0,0,0.008173828125000001,0,0)" xlink:href="#ah"/><use transform="matrix(0.008173828125000001,0,0,0.008173828125000001,10.740410156250002,0)" xlink:href="#R"/><use transform="matrix(0.008173828125000001,0,0,0.008173828125000001,14.794628906250002,0)" xlink:href="#ac"/><use transform="matrix(0.008173828125000001,0,0,0.008173828125000001,23.630537109375005,0)" xlink:href="#ab"/><use transform="matrix(0.008173828125000001,0,0,0.008173828125000001,28.943525390625005,0)" xlink:href="#X"/><use transform="matrix(0.008173828125000001,0,0,0.008173828125000001,38.703076171875004,0)" xlink:href="#V"/><use transform="matrix(0.008173828125000001,0,0,0.008173828125000001,53.36692382812501,0)" xlink:href="#S"/></g><path fill="#fff" d="M370-1490V0H180v-1490h190" id="ai"/><path fill="#fff" d="M338-670V0H158v-1118h173l1 207c72-158 192-221 342-221 226 0 378 139 378 422V0H872v-695c0-172-96-275-252-275-161 0-282 109-282 300" id="aj"/><path fill="#fff" d="M338-1490V0H158v-1490h180" id="ak"/><g id="g"><use transform="matrix(0.008173828125000001,0,0,0.008173828125000001,0,0)" xlink:href="#ai"/><use transform="matrix(0.008173828125000001,0,0,0.008173828125000001,4.495605468750001,0)" xlink:href="#aj"/><use transform="matrix(0.008173828125000001,0,0,0.008173828125000001,14.3859375,0)" xlink:href="#ab"/><use transform="matrix(0.008173828125000001,0,0,0.008173828125000001,19.69892578125,0)" xlink:href="#X"/><use transform="matrix(0.008173828125000001,0,0,0.008173828125000001,29.458476562500003,0)" xlink:href="#ak"/><use transform="matrix(0.008173828125000001,0,0,0.008173828125000001,33.5126953125,0)" xlink:href="#R"/><use transform="matrix(0.008173828125000001,0,0,0.008173828125000001,37.566914062500004,0)" xlink:href="#T"/><use transform="matrix(0.008173828125000001,0,0,0.008173828125000001,47.833242187500005,0)" xlink:href="#X"/><use transform="matrix(0.008173828125000001,0,0,0.008173828125000001,57.592792968750004,0)" xlink:href="#aj"/><use transform="matrix(0.008173828125000001,0,0,0.008173828125000001,67.483125,0)" xlink:href="#ab"/><use transform="matrix(0.008173828125000001,0,0,0.008173828125000001,72.79611328124999,0)" xlink:href="#X"/></g><path fill="#fff" d="M783 20c-382 0-661-292-661-764 0-473 279-766 661-766 302 0 548 182 601 489h-190c-42-204-217-313-411-313-268 0-476 208-476 590 0 381 209 588 476 588 195 0 369-110 411-313h190c-52 303-296 489-601 489" id="al"/><path fill="#fff" d="M158 418v-1536h174v179h20c37-59 106-193 324-193 279 0 474 222 474 576 0 356-194 580-473 580-213 0-288-135-325-197h-14v591H158zm492-555c209 0 317-186 317-421 0-232-105-413-317-413-206 0-314 166-314 413 0 249 111 421 314 421" id="am"/><path fill="#fff" d="M613 24c-304 0-509-231-509-576 0-350 205-580 509-580 216 0 392 114 453 309l-173 49c-33-115-133-197-280-197-223 0-326 196-326 419 0 220 103 415 326 415 150 0 252-85 285-206l172 49C1010-95 832 24 613 24" id="an"/><path fill="#fff" d="M613 24c-304 0-509-231-509-576 0-350 205-580 509-580 305 0 511 230 511 580 0 345-206 576-511 576zm0-161c226 0 329-195 329-415 0-222-103-419-329-419-223 0-326 196-326 419 0 220 103 415 326 415zm-79-1127l140-294h201l-194 294H534" id="ao"/><g id="h"><use transform="matrix(0.008173828125000001,0,0,0.008173828125000001,0,0)" xlink:href="#al"/><use transform="matrix(0.008173828125000001,0,0,0.008173828125000001,12.228046875000002,0)" xlink:href="#S"/><use transform="matrix(0.008173828125000001,0,0,0.008173828125000001,21.627949218750004,0)" xlink:href="#am"/><use transform="matrix(0.008173828125000001,0,0,0.008173828125000001,31.877929687500007,0)" xlink:href="#ab"/><use transform="matrix(0.008173828125000001,0,0,0.008173828125000001,37.436132812500006,0)" xlink:href="#S"/><use transform="matrix(0.008173828125000001,0,0,0.008173828125000001,46.836035156250006,0)" xlink:href="#an"/><use transform="matrix(0.008173828125000001,0,0,0.008173828125000001,56.39941406250001,0)" xlink:href="#R"/><use transform="matrix(0.008173828125000001,0,0,0.008173828125000001,60.453632812500004,0)" xlink:href="#ao"/><use transform="matrix(0.008173828125000001,0,0,0.008173828125000001,70.49109375,0)" xlink:href="#aj"/></g><path fill="#fff" d="M52 0l541-1490h220L1361 0h-200l-149-416H398L254 0H52zm404-582h497c-103-290-145-390-251-756-108 377-145 460-246 756" id="ap"/><g id="i"><use transform="matrix(0.008173828125000001,0,0,0.008173828125000001,0,0)" xlink:href="#ap"/><use transform="matrix(0.008173828125000001,0,0,0.008173828125000001,11.549619140625001,0)" xlink:href="#T"/><use transform="matrix(0.008173828125000001,0,0,0.008173828125000001,21.815947265625002,0)" xlink:href="#aa"/><use transform="matrix(0.008173828125000001,0,0,0.008173828125000001,31.71445312500001,0)" xlink:href="#S"/></g><path d="M783 20c-382 0-661-292-661-764 0-473 279-766 661-766 302 0 548 182 601 489h-190c-42-204-217-313-411-313-268 0-476 208-476 590 0 381 209 588 476 588 195 0 369-110 411-313h190c-52 303-296 489-601 489" id="aq"/><path d="M471 26C259 26 90-98 90-318c0-256 228-303 435-329 202-27 287-16 287-108 0-139-79-219-234-219-161 0-248 86-283 164l-173-57c86-203 278-265 451-265 150 0 419 46 419 395V0H815v-152h-12C765-73 660 26 471 26zm31-159c199 0 310-134 310-271v-155c-30 35-226 55-295 64-131 17-246 59-246 186 0 116 97 176 231 176" id="ar"/><path d="M158 418v-1536h174v179h20c37-59 106-193 324-193 279 0 474 222 474 576 0 356-194 580-473 580-213 0-288-135-325-197h-14v591H158zm492-555c209 0 317-186 317-421 0-232-105-413-317-413-206 0-314 166-314 413 0 249 111 421 314 421" id="as"/><path d="M934 0v166H0V0h934" id="at"/><path d="M180 0v-1490h510c348 0 508 209 508 474 0 266-160 477-507 477H370V0H180zm190-706h312c236 0 327-133 327-310 0-176-91-307-329-307H370v617" id="au"/><path d="M158 0v-1118h174v172h12c41-113 157-188 290-188 26 0 70 2 91 3v181c-11-2-60-10-108-10-161 0-279 109-279 260V0H158" id="av"/><path d="M628 24c-324 0-524-230-524-574 0-343 198-582 503-582 237 0 487 146 487 559v75H286c9 234 145 362 343 362 132 0 231-58 273-172l174 48C1024-91 857 24 628 24zM287-650h624c-17-190-120-322-304-322-192 0-309 151-320 322" id="aw"/><path d="M538 24C308 24 148-78 108-271l171-41c32 123 123 178 257 178 156 0 256-77 256-169 0-77-54-128-164-154l-186-44c-203-48-300-148-300-305 0-192 176-326 414-326 230 0 351 112 402 269l-163 42c-31-80-94-158-238-158-133 0-233 69-233 162 0 83 57 129 188 160l169 40c203 48 298 149 298 302 0 196-179 339-441 339" id="ax"/><path d="M338-670V0H158v-1118h173l1 207c72-158 192-221 342-221 226 0 378 139 378 422V0H872v-695c0-172-96-275-252-275-161 0-282 109-282 300" id="ay"/><path d="M598-1118v154H368v674c0 100 37 144 132 144 23 0 62-6 92-12L629-6c-37 13-88 20-134 20-193 0-307-107-307-290v-688H20v-154h168v-266h180v266h230" id="az"/><path d="M613 24c-304 0-509-231-509-576 0-350 205-580 509-580 216 0 392 114 453 309l-173 49c-33-115-133-197-280-197-223 0-326 196-326 419 0 220 103 415 326 415 150 0 252-85 285-206l172 49C1010-95 832 24 613 24" id="aA"/><path d="M158 0v-1118h180V0H158zm91-1301c-68 0-125-53-125-119s57-119 125-119c69 0 126 53 126 119s-57 119-126 119" id="aB"/><path d="M613 24c-304 0-509-231-509-576 0-350 205-580 509-580 305 0 511 230 511 580 0 345-206 576-511 576zm0-161c226 0 329-195 329-415 0-222-103-419-329-419-223 0-326 196-326 419 0 220 103 415 326 415" id="aC"/><g id="j"><use transform="matrix(0.008173828125000001,0,0,0.008173828125000001,0,0)" xlink:href="#aq"/><use transform="matrix(0.008173828125000001,0,0,0.008173828125000001,12.228046875000002,0)" xlink:href="#ar"/><use transform="matrix(0.008173828125000001,0,0,0.008173828125000001,21.627949218750004,0)" xlink:href="#as"/><use transform="matrix(0.008173828125000001,0,0,0.008173828125000001,32.04140625000001,0)" xlink:href="#ar"/><use transform="matrix(0.008173828125000001,0,0,0.008173828125000001,41.44130859375,0)" xlink:href="#at"/><use transform="matrix(0.008173828125000001,0,0,0.008173828125000001,49.63965820312501,0)" xlink:href="#au"/><use transform="matrix(0.008173828125000001,0,0,0.008173828125000001,60.33102539062501,0)" xlink:href="#av"/><use transform="matrix(0.008173828125000001,0,0,0.008173828125000001,66.35513671875,0)" xlink:href="#aw"/><use transform="matrix(0.008173828125000001,0,0,0.008173828125000001,76.1146875,0)" xlink:href="#ax"/><use transform="matrix(0.008173828125000001,0,0,0.008173828125000001,84.950595703125,0)" xlink:href="#aw"/><use transform="matrix(0.008173828125000001,0,0,0.008173828125000001,94.710146484375,0)" xlink:href="#ay"/><use transform="matrix(0.008173828125000001,0,0,0.008173828125000001,104.600478515625,0)" xlink:href="#az"/><use transform="matrix(0.008173828125000001,0,0,0.008173828125000001,110.158681640625,0)" xlink:href="#ar"/><use transform="matrix(0.008173828125000001,0,0,0.008173828125000001,119.55858398437499,0)" xlink:href="#aA"/><use transform="matrix(0.008173828125000001,0,0,0.008173828125000001,129.12196289062499,0)" xlink:href="#aB"/><use transform="matrix(0.008173828125000001,0,0,0.008173828125000001,133.17618164062497,0)" xlink:href="#aC"/><use transform="matrix(0.008173828125000001,0,0,0.008173828125000001,143.21364257812496,0)" xlink:href="#ay"/></g><path d="M645 0H180v-1490h484c435 0 692 280 692 742 0 466-257 748-711 748zM370-168h263c363 0 539-218 539-580 0-358-176-574-521-574H370v1154" id="aD"/><path d="M338-670V0H158v-1490h180v566c73-149 190-208 336-208 226 0 379 139 379 422V0H872v-695c0-172-96-275-252-275-161 0-282 109-282 300" id="aE"/><path d="M677 24c-213 0-288-135-325-197h-20V0H158v-1490h180v551h14c37-59 106-193 324-193 279 0 474 222 474 576 0 356-194 580-473 580zm-27-161c209 0 317-186 317-421 0-232-105-413-317-413-206 0-314 166-314 413 0 249 111 421 314 421" id="aF"/><path d="M577 24c-279 0-473-224-473-580 0-354 195-576 474-576 218 0 287 134 324 193h14v-551h180V0H922v-173h-20C865-111 790 24 577 24zm27-161c203 0 314-172 314-421 0-247-108-413-314-413-212 0-317 181-317 413 0 235 108 421 317 421" id="aG"/><path d="M180 0v-1490h510c348 0 508 194 508 460 0 198-88 351-276 417L1256 0h-220L726-579c-117 2-238 0-356 1V0H180zm190-747h312c235 0 327-108 327-283 0-177-92-293-329-293H370v576" id="aH"/><g id="k"><use transform="matrix(0.010850694444444444,0,0,0.010850694444444444,0,0)" xlink:href="#aD"/><use transform="matrix(0.010850694444444444,0,0,0.010850694444444444,16.03732638888889,0)" xlink:href="#ar"/><use transform="matrix(0.010850694444444444,0,0,0.010850694444444444,28.515625,0)" xlink:href="#ax"/><use transform="matrix(0.010850694444444444,0,0,0.010850694444444444,40.24522569444444,0)" xlink:href="#aE"/><use transform="matrix(0.010850694444444444,0,0,0.010850694444444444,53.385416666666664,0)" xlink:href="#aF"/><use transform="matrix(0.010850694444444444,0,0,0.010850694444444444,66.9921875,0)" xlink:href="#aC"/><use transform="matrix(0.010850694444444444,0,0,0.010850694444444444,80.53385416666666,0)" xlink:href="#ar"/><use transform="matrix(0.010850694444444444,0,0,0.010850694444444444,93.01215277777777,0)" xlink:href="#av"/><use transform="matrix(0.010850694444444444,0,0,0.010850694444444444,101.00911458333333,0)" xlink:href="#aG"/><use transform="matrix(0.010850694444444444,0,0,0.010850694444444444,114.61588541666666,0)" xlink:href="#at"/><use transform="matrix(0.010850694444444444,0,0,0.010850694444444444,125.49913194444444,0)" xlink:href="#aH"/><use transform="matrix(0.010850694444444444,0,0,0.010850694444444444,139.47482638888889,0)" xlink:href="#aw"/><use transform="matrix(0.010850694444444444,0,0,0.010850694444444444,152.64756944444443,0)" xlink:href="#ar"/><use transform="matrix(0.010850694444444444,0,0,0.010850694444444444,165.12586805555554,0)" xlink:href="#aA"/><use transform="matrix(0.010850694444444444,0,0,0.010850694444444444,177.82118055555554,0)" xlink:href="#az"/></g><path d="M600 0L52-1490h200c166 485 304 806 458 1336 156-533 285-846 449-1336h202L819 0H600" id="aI"/><g id="l"><use transform="matrix(0.010850694444444444,0,0,0.010850694444444444,0,0)" xlink:href="#aI"/><use transform="matrix(0.010850694444444444,0,0,0.010850694444444444,15.33203125,0)" xlink:href="#aB"/><use transform="matrix(0.010850694444444444,0,0,0.010850694444444444,20.713975694444443,0)" xlink:href="#ax"/><use transform="matrix(0.010850694444444444,0,0,0.010850694444444444,32.443576388888886,0)" xlink:href="#az"/><use transform="matrix(0.010850694444444444,0,0,0.010850694444444444,39.82204861111111,0)" xlink:href="#ar"/><use transform="matrix(0.010850694444444444,0,0,0.010850694444444444,52.30034722222221,0)" xlink:href="#ax"/><use transform="matrix(0.010850694444444444,0,0,0.010850694444444444,64.02994791666666,0)" xlink:href="#at"/><use transform="matrix(0.010850694444444444,0,0,0.010850694444444444,74.91319444444444,0)" xlink:href="#aH"/><use transform="matrix(0.010850694444444444,0,0,0.010850694444444444,88.88888888888889,0)" xlink:href="#aw"/><use transform="matrix(0.010850694444444444,0,0,0.010850694444444444,101.84461805555556,0)" xlink:href="#as"/><use transform="matrix(0.010850694444444444,0,0,0.010850694444444444,115.45138888888889,0)" xlink:href="#aC"/><use transform="matrix(0.010850694444444444,0,0,0.010850694444444444,128.77604166666666,0)" xlink:href="#av"/><use transform="matrix(0.010850694444444444,0,0,0.010850694444444444,137.48914930555554,0)" xlink:href="#az"/><use transform="matrix(0.010850694444444444,0,0,0.010850694444444444,144.54210069444443,0)" xlink:href="#aw"/><use transform="matrix(0.010850694444444444,0,0,0.010850694444444444,157.4978298611111,0)" xlink:href="#ax"/></g><path d="M370-1490V0H180v-1490h190" id="aJ"/><path d="M678-1118v154H420V0H240v-964H20v-154h220v-149c0-194 155-293 318-293 85 0 141 18 168 30l-50 154c-19-6-47-17-97-17-111 0-159 58-159 166v109h258" id="aK"/><path d="M126 0v-134l627-806v-11H146v-167h839v143L376-178v11h629V0H126" id="aL"/><path d="M657 26c-323 0-524-166-541-416h195c15 169 171 246 346 246 202 0 356-106 356-265 5-203-294-238-475-293-239-73-380-191-380-389 0-252 224-419 512-419 294 0 499 171 508 396H992c-17-145-151-228-328-228-193 0-321 102-321 242 0 156 175 211 284 241l149 41c160 44 422 134 422 412 0 244-197 432-541 432" id="aM"/><path d="M158 0v-1118h175l1 205c55-151 181-225 313-225 147 0 245 90 285 228 53-141 190-228 352-228 194 0 352 125 352 384V0h-181v-749c0-161-105-225-225-225-151 0-243 103-243 244V0H807v-767c0-124-93-207-219-207-131 0-250 92-250 270V0H158" id="aN"/><path d="M537 14c-226 0-379-139-379-422v-710h180v695c0 172 97 275 253 275 160 0 281-109 281-300v-670h181V0H879v-209C806-46 684 14 537 14" id="aO"/><path d="M338-1490V0H158v-1490h180" id="aP"/><g id="m"><use transform="matrix(0.010850694444444444,0,0,0.010850694444444444,0,0)" xlink:href="#aJ"/><use transform="matrix(0.010850694444444444,0,0,0.010850694444444444,5.967881944444445,0)" xlink:href="#ay"/><use transform="matrix(0.010850694444444444,0,0,0.010850694444444444,19.09722222222222,0)" xlink:href="#az"/><use transform="matrix(0.010850694444444444,0,0,0.010850694444444444,26.15017361111111,0)" xlink:href="#aw"/><use transform="matrix(0.010850694444444444,0,0,0.010850694444444444,39.10590277777778,0)" xlink:href="#av"/><use transform="matrix(0.010850694444444444,0,0,0.010850694444444444,47.819010416666664,0)" xlink:href="#aK"/><use transform="matrix(0.010850694444444444,0,0,0.010850694444444444,55.69661458333333,0)" xlink:href="#ar"/><use transform="matrix(0.010850694444444444,0,0,0.010850694444444444,68.17491319444444,0)" xlink:href="#aL"/><use transform="matrix(0.010850694444444444,0,0,0.010850694444444444,80.44704861111111,0)" xlink:href="#at"/><use transform="matrix(0.010850694444444444,0,0,0.010850694444444444,90.58159722222221,0)" xlink:href="#aM"/><use transform="matrix(0.010850694444444444,0,0,0.010850694444444444,104.83940972222224,0)" xlink:href="#aB"/><use transform="matrix(0.010850694444444444,0,0,0.010850694444444444,110.22135416666666,0)" xlink:href="#aN"/><use transform="matrix(0.010850694444444444,0,0,0.010850694444444444,129.6875,0)" xlink:href="#aO"/><use transform="matrix(0.010850694444444444,0,0,0.010850694444444444,142.82769097222223,0)" xlink:href="#aP"/><use transform="matrix(0.010850694444444444,0,0,0.010850694444444444,148.20963541666669,0)" xlink:href="#ar"/><use transform="matrix(0.010850694444444444,0,0,0.010850694444444444,160.6879340277778,0)" xlink:href="#aG"/><use transform="matrix(0.010850694444444444,0,0,0.010850694444444444,174.29470486111114,0)" xlink:href="#aC"/><use transform="matrix(0.010850694444444444,0,0,0.010850694444444444,187.6193576388889,0)" xlink:href="#av"/></g><g id="n"><use transform="matrix(0.008173828125000001,0,0,0.008173828125000001,0,0)" xlink:href="#aq"/><use transform="matrix(0.008173828125000001,0,0,0.008173828125000001,12.228046875000002,0)" xlink:href="#ar"/><use transform="matrix(0.008173828125000001,0,0,0.008173828125000001,21.627949218750004,0)" xlink:href="#as"/><use transform="matrix(0.008173828125000001,0,0,0.008173828125000001,32.04140625000001,0)" xlink:href="#ar"/><use transform="matrix(0.008173828125000001,0,0,0.008173828125000001,41.44130859375,0)" xlink:href="#at"/><use transform="matrix(0.008173828125000001,0,0,0.008173828125000001,49.63965820312501,0)" xlink:href="#au"/><use transform="matrix(0.008173828125000001,0,0,0.008173828125000001,60.33102539062501,0)" xlink:href="#av"/><use transform="matrix(0.008173828125000001,0,0,0.008173828125000001,66.35513671875,0)" xlink:href="#aC"/><use transform="matrix(0.008173828125000001,0,0,0.008173828125000001,76.39259765625,0)" xlink:href="#aA"/><use transform="matrix(0.008173828125000001,0,0,0.008173828125000001,85.95597656250001,0)" xlink:href="#aw"/><use transform="matrix(0.008173828125000001,0,0,0.008173828125000001,95.71552734375001,0)" xlink:href="#ax"/><use transform="matrix(0.008173828125000001,0,0,0.008173828125000001,104.55143554687501,0)" xlink:href="#ar"/><use transform="matrix(0.008173828125000001,0,0,0.008173828125000001,113.95133789062501,0)" xlink:href="#aN"/><use transform="matrix(0.008173828125000001,0,0,0.008173828125000001,128.615185546875,0)" xlink:href="#aB"/><use transform="matrix(0.008173828125000001,0,0,0.008173828125000001,132.669404296875,0)" xlink:href="#aw"/><use transform="matrix(0.008173828125000001,0,0,0.008173828125000001,142.428955078125,0)" xlink:href="#ay"/><use transform="matrix(0.008173828125000001,0,0,0.008173828125000001,152.319287109375,0)" xlink:href="#az"/><use transform="matrix(0.008173828125000001,0,0,0.008173828125000001,157.632275390625,0)" xlink:href="#aC"/></g><path d="M611 442c-248 0-391-105-460-228l146-94c47 65 117 165 314 165 178 0 307-82 307-266v-224h-17C863-141 792-18 576-18c-268 0-472-195-472-546 0-346 197-568 476-568 216 0 288 133 326 193h17v-179h175V29c0 289-215 413-487 413zm-5-620c203 0 314-146 314-390 0-237-108-403-314-403-213 0-319 180-319 403 0 230 109 390 319 390" id="aQ"/><g id="o"><use transform="matrix(0.008173828125000001,0,0,0.008173828125000001,0,0)" xlink:href="#aM"/><use transform="matrix(0.008173828125000001,0,0,0.008173828125000001,10.740410156250002,0)" xlink:href="#aw"/><use transform="matrix(0.008173828125000001,0,0,0.008173828125000001,20.499960937500003,0)" xlink:href="#aQ"/><use transform="matrix(0.008173828125000001,0,0,0.008173828125000001,30.766289062500004,0)" xlink:href="#aO"/><use transform="matrix(0.008173828125000001,0,0,0.008173828125000001,40.66479492187501,0)" xlink:href="#av"/><use transform="matrix(0.008173828125000001,0,0,0.008173828125000001,47.22837890625,0)" xlink:href="#aB"/><use transform="matrix(0.008173828125000001,0,0,0.008173828125000001,51.282597656250005,0)" xlink:href="#aG"/><use transform="matrix(0.008173828125000001,0,0,0.008173828125000001,61.53257812500001,0)" xlink:href="#ar"/><use transform="matrix(0.008173828125000001,0,0,0.008173828125000001,70.93248046875001,0)" xlink:href="#aG"/></g><path d="M763 24c-353 0-583-224-583-531v-983h190v968c0 214 149 370 393 370 243 0 391-156 391-370v-968h190v983c0 307-230 531-581 531" id="aR"/><g id="p"><use transform="matrix(0.010850694444444444,0,0,0.010850694444444444,0,0)" xlink:href="#aR"/><use transform="matrix(0.010850694444444444,0,0,0.010850694444444444,16.536458333333332,0)" xlink:href="#ax"/><use transform="matrix(0.010850694444444444,0,0,0.010850694444444444,28.266059027777775,0)" xlink:href="#aO"/><use transform="matrix(0.010850694444444444,0,0,0.010850694444444444,41.40625,0)" xlink:href="#ar"/><use transform="matrix(0.010850694444444444,0,0,0.010850694444444444,53.88454861111112,0)" xlink:href="#av"/><use transform="matrix(0.010850694444444444,0,0,0.010850694444444444,62.59765625,0)" xlink:href="#aB"/><use transform="matrix(0.010850694444444444,0,0,0.010850694444444444,67.97960069444444,0)" xlink:href="#aC"/><use transform="matrix(0.010850694444444444,0,0,0.010850694444444444,81.30425347222221,0)" xlink:href="#ax"/></g><g id="q"><use transform="matrix(0.010850694444444444,0,0,0.010850694444444444,0,0)" xlink:href="#aH"/><use transform="matrix(0.010850694444444444,0,0,0.010850694444444444,13.975694444444445,0)" xlink:href="#aC"/><use transform="matrix(0.010850694444444444,0,0,0.010850694444444444,27.30034722222222,0)" xlink:href="#aP"/><use transform="matrix(0.010850694444444444,0,0,0.010850694444444444,32.682291666666664,0)" xlink:href="#aw"/><use transform="matrix(0.010850694444444444,0,0,0.010850694444444444,45.63802083333333,0)" xlink:href="#ax"/></g><path d="M52 0l541-1490h220L1361 0h-200l-149-416H398L254 0H52zm404-582h497c-103-290-145-390-251-756-108 377-145 460-246 756" id="aS"/><g id="r"><use transform="matrix(0.010850694444444444,0,0,0.010850694444444444,0,0)" xlink:href="#aS"/><use transform="matrix(0.010850694444444444,0,0,0.010850694444444444,15.33203125,0)" xlink:href="#aO"/><use transform="matrix(0.010850694444444444,0,0,0.010850694444444444,28.47222222222222,0)" xlink:href="#aG"/><use transform="matrix(0.010850694444444444,0,0,0.010850694444444444,42.07899305555556,0)" xlink:href="#aB"/><use transform="matrix(0.010850694444444444,0,0,0.010850694444444444,47.4609375,0)" xlink:href="#az"/><use transform="matrix(0.010850694444444444,0,0,0.010850694444444444,54.5138888888889,0)" xlink:href="#aC"/><use transform="matrix(0.010850694444444444,0,0,0.010850694444444444,67.83854166666667,0)" xlink:href="#av"/><use transform="matrix(0.010850694444444444,0,0,0.010850694444444444,76.55164930555557,0)" xlink:href="#aB"/><use transform="matrix(0.010850694444444444,0,0,0.010850694444444444,81.93359375000001,0)" xlink:href="#ar"/></g><path d="M789 20c-398 0-667-293-667-764 0-473 273-766 655-766 315 0 558 198 612 487h-196c-61-191-204-311-415-311-262 0-471 207-471 590 0 380 208 588 482 588 249 0 420-165 425-427H828v-166h572v163c0 370-256 606-611 606" id="aT"/><g id="s"><use transform="matrix(0.008173828125000001,0,0,0.008173828125000001,0,0)" xlink:href="#aT"/><use transform="matrix(0.008173828125000001,0,0,0.008173828125000001,12.489609375000002,0)" xlink:href="#aw"/><use transform="matrix(0.008173828125000001,0,0,0.008173828125000001,22.249160156250003,0)" xlink:href="#ax"/><use transform="matrix(0.008173828125000001,0,0,0.008173828125000001,31.085068359375004,0)" xlink:href="#az"/><use transform="matrix(0.008173828125000001,0,0,0.008173828125000001,36.561533203125,0)" xlink:href="#aB"/><use transform="matrix(0.008173828125000001,0,0,0.008173828125000001,40.615751953125,0)" xlink:href="#aC"/><use transform="matrix(0.008173828125000001,0,0,0.008173828125000001,50.653212890625,0)" xlink:href="#ay"/><use transform="matrix(0.008173828125000001,0,0,0.008173828125000001,60.543544921875,0)" xlink:href="#at"/><use transform="matrix(0.008173828125000001,0,0,0.008173828125000001,68.74189453125,0)" xlink:href="#aH"/><use transform="matrix(0.008173828125000001,0,0,0.008173828125000001,79.515,0)" xlink:href="#aB"/><use transform="matrix(0.008173828125000001,0,0,0.008173828125000001,83.56921875,0)" xlink:href="#aw"/><use transform="matrix(0.008173828125000001,0,0,0.008173828125000001,93.32876953124999,0)" xlink:href="#aQ"/><use transform="matrix(0.008173828125000001,0,0,0.008173828125000001,103.59509765625,0)" xlink:href="#aC"/></g><g id="t"><use transform="matrix(0.010850694444444444,0,0,0.010850694444444444,0,0)" xlink:href="#aD"/><use transform="matrix(0.010850694444444444,0,0,0.010850694444444444,16.03732638888889,0)" xlink:href="#aw"/><use transform="matrix(0.010850694444444444,0,0,0.010850694444444444,28.99305555555556,0)" xlink:href="#aA"/><use transform="matrix(0.010850694444444444,0,0,0.010850694444444444,41.68836805555556,0)" xlink:href="#aB"/><use transform="matrix(0.010850694444444444,0,0,0.010850694444444444,47.0703125,0)" xlink:href="#ax"/><use transform="matrix(0.010850694444444444,0,0,0.010850694444444444,58.79991319444444,0)" xlink:href="#aB"/><use transform="matrix(0.010850694444444444,0,0,0.010850694444444444,64.18185763888889,0)" xlink:href="#aC"/><use transform="matrix(0.010850694444444444,0,0,0.010850694444444444,77.50651041666666,0)" xlink:href="#ay"/><use transform="matrix(0.010850694444444444,0,0,0.010850694444444444,90.63585069444441,0)" xlink:href="#aw"/><use transform="matrix(0.010850694444444444,0,0,0.010850694444444444,103.59157986111111,0)" xlink:href="#ax"/></g><path d="M180 0v-1490h908v168H370v486h669v168H370v500h727V0H180" id="aU"/><path d="M481 0L54-1118h197c107 314 236 620 325 951 87-331 217-637 324-951h197L670 0H481" id="aV"/><g id="u"><use transform="matrix(0.010850694444444444,0,0,0.010850694444444444,0,0)" xlink:href="#aU"/><use transform="matrix(0.010850694444444444,0,0,0.010850694444444444,13.35720486111111,0)" xlink:href="#aV"/><use transform="matrix(0.010850694444444444,0,0,0.010850694444444444,25.41232638888889,0)" xlink:href="#aw"/><use transform="matrix(0.010850694444444444,0,0,0.010850694444444444,38.36805555555555,0)" xlink:href="#ay"/><use transform="matrix(0.010850694444444444,0,0,0.010850694444444444,51.49739583333333,0)" xlink:href="#az"/><use transform="matrix(0.010850694444444444,0,0,0.010850694444444444,58.55034722222222,0)" xlink:href="#aC"/><use transform="matrix(0.010850694444444444,0,0,0.010850694444444444,71.875,0)" xlink:href="#ax"/></g><g id="v"><use transform="matrix(0.010850694444444444,0,0,0.010850694444444444,0,0)" xlink:href="#aU"/><use transform="matrix(0.010850694444444444,0,0,0.010850694444444444,13.35720486111111,0)" xlink:href="#ax"/><use transform="matrix(0.010850694444444444,0,0,0.010850694444444444,25.08680555555556,0)" xlink:href="#az"/><use transform="matrix(0.010850694444444444,0,0,0.010850694444444444,32.46527777777778,0)" xlink:href="#ar"/><use transform="matrix(0.010850694444444444,0,0,0.010850694444444444,44.943576388888886,0)" xlink:href="#aG"/><use transform="matrix(0.010850694444444444,0,0,0.010850694444444444,58.55034722222221,0)" xlink:href="#aC"/><use transform="matrix(0.010850694444444444,0,0,0.010850694444444444,71.87499999999999,0)" xlink:href="#at"/><use transform="matrix(0.010850694444444444,0,0,0.010850694444444444,82.0095486111111,0)" xlink:href="#aS"/><use transform="matrix(0.010850694444444444,0,0,0.010850694444444444,97.34157986111111,0)" xlink:href="#aA"/><use transform="matrix(0.010850694444444444,0,0,0.010850694444444444,110.03689236111111,0)" xlink:href="#az"/><use transform="matrix(0.010850694444444444,0,0,0.010850694444444444,117.30685763888887,0)" xlink:href="#aO"/><use transform="matrix(0.010850694444444444,0,0,0.010850694444444444,130.4470486111111,0)" xlink:href="#ar"/><use transform="matrix(0.010850694444444444,0,0,0.010850694444444444,142.9253472222222,0)" xlink:href="#aP"/></g><path d="M180 0v-1490h224l606 953c40 63 108 177 176 312-27-437-7-821-13-1265h190V0h-226C860-448 622-778 356-1262c27 476 11 792 15 1262H180" id="aW"/><g id="w"><use transform="matrix(0.008173828125000001,0,0,0.008173828125000001,0,0)" xlink:href="#aW"/><use transform="matrix(0.008173828125000001,0,0,0.008173828125000001,12.612216796875002,0)" xlink:href="#aC"/><use transform="matrix(0.008173828125000001,0,0,0.008173828125000001,22.649677734375004,0)" xlink:href="#az"/><use transform="matrix(0.008173828125000001,0,0,0.008173828125000001,28.126142578125005,0)" xlink:href="#aB"/><use transform="matrix(0.008173828125000001,0,0,0.008173828125000001,32.180361328125,0)" xlink:href="#aK"/><use transform="matrix(0.008173828125000001,0,0,0.008173828125000001,38.376123046875,0)" xlink:href="#aB"/><use transform="matrix(0.008173828125000001,0,0,0.008173828125000001,42.430341796875,0)" xlink:href="#aA"/><use transform="matrix(0.008173828125000001,0,0,0.008173828125000001,52.157197265625,0)" xlink:href="#ar"/><use transform="matrix(0.008173828125000001,0,0,0.008173828125000001,61.557099609375,0)" xlink:href="#aA"/><use transform="matrix(0.008173828125000001,0,0,0.008173828125000001,71.120478515625,0)" xlink:href="#aB"/><use transform="matrix(0.008173828125000001,0,0,0.008173828125000001,75.174697265625,0)" xlink:href="#aC"/><use transform="matrix(0.008173828125000001,0,0,0.008173828125000001,85.212158203125,0)" xlink:href="#ay"/><use transform="matrix(0.008173828125000001,0,0,0.008173828125000001,95.102490234375,0)" xlink:href="#aw"/><use transform="matrix(0.008173828125000001,0,0,0.008173828125000001,104.862041015625,0)" xlink:href="#ax"/></g><g id="x"><use transform="matrix(0.010850694444444444,0,0,0.010850694444444444,0,0)" xlink:href="#aS"/><use transform="matrix(0.010850694444444444,0,0,0.010850694444444444,15.33203125,0)" xlink:href="#aP"/><use transform="matrix(0.010850694444444444,0,0,0.010850694444444444,20.713975694444443,0)" xlink:href="#aw"/><use transform="matrix(0.010850694444444444,0,0,0.010850694444444444,33.66970486111111,0)" xlink:href="#av"/><use transform="matrix(0.010850694444444444,0,0,0.010850694444444444,42.38281249999999,0)" xlink:href="#az"/><use transform="matrix(0.010850694444444444,0,0,0.010850694444444444,49.76128472222221,0)" xlink:href="#ar"/><use transform="matrix(0.010850694444444444,0,0,0.010850694444444444,62.23958333333333,0)" xlink:href="#ax"/></g><g id="y"><use transform="matrix(0.010850694444444444,0,0,0.010850694444444444,0,0)" xlink:href="#aR"/><use transform="matrix(0.010850694444444444,0,0,0.010850694444444444,16.536458333333332,0)" xlink:href="#aN"/><use transform="matrix(0.010850694444444444,0,0,0.010850694444444444,36.002604166666664,0)" xlink:href="#aF"/><use transform="matrix(0.010850694444444444,0,0,0.010850694444444444,49.609375,0)" xlink:href="#av"/><use transform="matrix(0.010850694444444444,0,0,0.010850694444444444,57.975260416666664,0)" xlink:href="#ar"/><use transform="matrix(0.010850694444444444,0,0,0.010850694444444444,70.45355902777777,0)" xlink:href="#aP"/><use transform="matrix(0.010850694444444444,0,0,0.010850694444444444,75.83550347222221,0)" xlink:href="#aw"/><use transform="matrix(0.010850694444444444,0,0,0.010850694444444444,88.79123263888889,0)" xlink:href="#ax"/></g><path d="M180 0v-1490h270l367 940c28 72 75 218 110 339 35-117 81-264 110-339l362-940h271V0h-187c2-448-5-837 7-1287-157 497-311 829-483 1287H842C666-458 514-784 354-1284c12 438 5 843 7 1284H180" id="aX"/><g id="z"><use transform="matrix(0.008173828125000001,0,0,0.008173828125000001,0,0)" xlink:href="#aJ"/><use transform="matrix(0.008173828125000001,0,0,0.008173828125000001,4.495605468750001,0)" xlink:href="#ay"/><use transform="matrix(0.008173828125000001,0,0,0.008173828125000001,14.3859375,0)" xlink:href="#az"/><use transform="matrix(0.008173828125000001,0,0,0.008173828125000001,19.69892578125,0)" xlink:href="#aw"/><use transform="matrix(0.008173828125000001,0,0,0.008173828125000001,29.458476562500003,0)" xlink:href="#aQ"/><use transform="matrix(0.008173828125000001,0,0,0.008173828125000001,39.724804687500004,0)" xlink:href="#av"/><use transform="matrix(0.008173828125000001,0,0,0.008173828125000001,46.026826171875,0)" xlink:href="#ar"/><use transform="matrix(0.008173828125000001,0,0,0.008173828125000001,55.426728515625,0)" xlink:href="#aA"/><use transform="matrix(0.008173828125000001,0,0,0.008173828125000001,64.990107421875,0)" xlink:href="#aB"/><use transform="matrix(0.008173828125000001,0,0,0.008173828125000001,69.044326171875,0)" xlink:href="#aC"/><use transform="matrix(0.008173828125000001,0,0,0.008173828125000001,79.081787109375,0)" xlink:href="#ay"/><use transform="matrix(0.008173828125000001,0,0,0.008173828125000001,88.972119140625,0)" xlink:href="#at"/><use transform="matrix(0.008173828125000001,0,0,0.008173828125000001,97.17046875,0)" xlink:href="#aX"/><use transform="matrix(0.008173828125000001,0,0,0.008173828125000001,112.29205078125,0)" xlink:href="#aq"/><use transform="matrix(0.008173828125000001,0,0,0.008173828125000001,124.52009765625,0)" xlink:href="#au"/></g><g id="A"><use transform="matrix(0.010850694444444444,0,0,0.010850694444444444,0,0)" xlink:href="#aM"/><use transform="matrix(0.010850694444444444,0,0,0.010850694444444444,14.2578125,0)" xlink:href="#aB"/><use transform="matrix(0.010850694444444444,0,0,0.010850694444444444,19.639756944444443,0)" xlink:href="#ay"/><use transform="matrix(0.010850694444444444,0,0,0.010850694444444444,32.76909722222222,0)" xlink:href="#aA"/><use transform="matrix(0.010850694444444444,0,0,0.010850694444444444,45.46440972222222,0)" xlink:href="#av"/><use transform="matrix(0.010850694444444444,0,0,0.010850694444444444,53.46137152777778,0)" xlink:href="#aC"/><use transform="matrix(0.010850694444444444,0,0,0.010850694444444444,66.78602430555554,0)" xlink:href="#ay"/><use transform="matrix(0.010850694444444444,0,0,0.010850694444444444,79.91536458333331,0)" xlink:href="#aB"/><use transform="matrix(0.010850694444444444,0,0,0.010850694444444444,85.29730902777776,0)" xlink:href="#aL"/><use transform="matrix(0.010850694444444444,0,0,0.010850694444444444,97.56944444444441,0)" xlink:href="#ar"/><use transform="matrix(0.010850694444444444,0,0,0.010850694444444444,110.04774305555556,0)" xlink:href="#aA"/><use transform="matrix(0.010850694444444444,0,0,0.010850694444444444,122.74305555555556,0)" xlink:href="#aB"/><use transform="matrix(0.010850694444444444,0,0,0.010850694444444444,128.125,0)" xlink:href="#aC"/><use transform="matrix(0.010850694444444444,0,0,0.010850694444444444,141.44965277777777,0)" xlink:href="#ay"/><use transform="matrix(0.010850694444444444,0,0,0.010850694444444444,154.57899305555554,0)" xlink:href="#at"/><use transform="matrix(0.010850694444444444,0,0,0.010850694444444444,165.46223958333331,0)" xlink:href="#aX"/><use transform="matrix(0.010850694444444444,0,0,0.010850694444444444,185.53602430555554,0)" xlink:href="#aq"/><use transform="matrix(0.010850694444444444,0,0,0.010850694444444444,201.76866319444443,0)" xlink:href="#au"/></g><g id="B"><use transform="matrix(0.008173828125000001,0,0,0.008173828125000001,0,0)" xlink:href="#aq"/><use transform="matrix(0.008173828125000001,0,0,0.008173828125000001,12.228046875000002,0)" xlink:href="#ar"/><use transform="matrix(0.008173828125000001,0,0,0.008173828125000001,21.627949218750004,0)" xlink:href="#as"/><use transform="matrix(0.008173828125000001,0,0,0.008173828125000001,32.04140625000001,0)" xlink:href="#ar"/><use transform="matrix(0.008173828125000001,0,0,0.008173828125000001,41.44130859375,0)" xlink:href="#at"/><use transform="matrix(0.008173828125000001,0,0,0.008173828125000001,49.63965820312501,0)" xlink:href="#aJ"/><use transform="matrix(0.008173828125000001,0,0,0.008173828125000001,54.13526367187501,0)" xlink:href="#ay"/><use transform="matrix(0.008173828125000001,0,0,0.008173828125000001,64.025595703125,0)" xlink:href="#az"/><use transform="matrix(0.008173828125000001,0,0,0.008173828125000001,69.338583984375,0)" xlink:href="#aw"/><use transform="matrix(0.008173828125000001,0,0,0.008173828125000001,79.098134765625,0)" xlink:href="#aP"/><use transform="matrix(0.008173828125000001,0,0,0.008173828125000001,83.15235351562501,0)" xlink:href="#aB"/><use transform="matrix(0.008173828125000001,0,0,0.008173828125000001,87.20657226562501,0)" xlink:href="#aQ"/><use transform="matrix(0.008173828125000001,0,0,0.008173828125000001,97.47290039062501,0)" xlink:href="#aw"/><use transform="matrix(0.008173828125000001,0,0,0.008173828125000001,107.23245117187501,0)" xlink:href="#ay"/><use transform="matrix(0.008173828125000001,0,0,0.008173828125000001,117.12278320312501,0)" xlink:href="#aA"/><use transform="matrix(0.008173828125000001,0,0,0.008173828125000001,126.686162109375,0)" xlink:href="#aB"/><use transform="matrix(0.008173828125000001,0,0,0.008173828125000001,130.740380859375,0)" xlink:href="#ar"/></g><path d="M180 0v-1490h190v1322h690V0H180" id="aY"/><path d="M653-1490V0H466v-1314h-10L96-1047v-204l324-239h233" id="aZ"/><g id="C"><use transform="matrix(0.010850694444444444,0,0,0.010850694444444444,0,0)" xlink:href="#aX"/><use transform="matrix(0.010850694444444444,0,0,0.010850694444444444,20.07378472222222,0)" xlink:href="#aY"/><use transform="matrix(0.010850694444444444,0,0,0.010850694444444444,31.62977430555556,0)" xlink:href="#aZ"/><use transform="matrix(0.010850694444444444,0,0,0.010850694444444444,40.66840277777778,0)" xlink:href="#at"/><use transform="matrix(0.010850694444444444,0,0,0.010850694444444444,51.55164930555556,0)" xlink:href="#au"/><use transform="matrix(0.010850694444444444,0,0,0.010850694444444444,65.74435763888889,0)" xlink:href="#av"/><use transform="matrix(0.010850694444444444,0,0,0.010850694444444444,73.74131944444444,0)" xlink:href="#aw"/><use transform="matrix(0.010850694444444444,0,0,0.010850694444444444,86.69704861111111,0)" xlink:href="#aG"/><use transform="matrix(0.010850694444444444,0,0,0.010850694444444444,100.30381944444444,0)" xlink:href="#aB"/><use transform="matrix(0.010850694444444444,0,0,0.010850694444444444,105.68576388888889,0)" xlink:href="#aA"/><use transform="matrix(0.010850694444444444,0,0,0.010850694444444444,118.38107638888889,0)" xlink:href="#aA"/><use transform="matrix(0.010850694444444444,0,0,0.010850694444444444,131.07638888888889,0)" xlink:href="#aB"/><use transform="matrix(0.010850694444444444,0,0,0.010850694444444444,136.45833333333334,0)" xlink:href="#aC"/><use transform="matrix(0.010850694444444444,0,0,0.010850694444444444,149.78298611111111,0)" xlink:href="#ay"/><use transform="matrix(0.010850694444444444,0,0,0.010850694444444444,162.91232638888889,0)" xlink:href="#at"/><use transform="matrix(0.010850694444444444,0,0,0.010850694444444444,173.046875,0)" xlink:href="#aS"/><use transform="matrix(0.010850694444444444,0,0,0.010850694444444444,188.37890625,0)" xlink:href="#aQ"/><use transform="matrix(0.010850694444444444,0,0,0.010850694444444444,202.00737847222223,0)" xlink:href="#aO"/><use transform="matrix(0.010850694444444444,0,0,0.010850694444444444,215.14756944444449,0)" xlink:href="#ar"/></g><path d="M154 0v-137l495-537c165-179 249-281 249-418 0-156-121-253-280-253-170 0-278 110-278 278H158c0-264 200-443 465-443 266 0 455 183 455 416 0 161-73 288-336 568L416-179v12h687V0H154" id="ba"/><path d="M180 0v-1490h528c311 0 458 177 458 395 0 191-114 278-244 313v14c139 9 302 137 302 371 0 225-148 397-499 397H180zm190-168h350c232 0 321-102 321-231 0-149-120-277-311-277H370v508zm0-668h328c160 0 286-101 286-255 0-129-87-231-280-231H370v486" id="bb"/><g id="D"><use transform="matrix(0.010850694444444444,0,0,0.010850694444444444,0,0)" xlink:href="#aX"/><use transform="matrix(0.010850694444444444,0,0,0.010850694444444444,20.07378472222222,0)" xlink:href="#aY"/><use transform="matrix(0.010850694444444444,0,0,0.010850694444444444,32.638888888888886,0)" xlink:href="#ba"/><use transform="matrix(0.010850694444444444,0,0,0.010850694444444444,46.19140625,0)" xlink:href="#at"/><use transform="matrix(0.010850694444444444,0,0,0.010850694444444444,55.44704861111112,0)" xlink:href="#aq"/><use transform="matrix(0.010850694444444444,0,0,0.010850694444444444,71.6796875,0)" xlink:href="#aC"/><use transform="matrix(0.010850694444444444,0,0,0.010850694444444444,85.00434027777777,0)" xlink:href="#ay"/><use transform="matrix(0.010850694444444444,0,0,0.010850694444444444,98.13368055555556,0)" xlink:href="#az"/><use transform="matrix(0.010850694444444444,0,0,0.010850694444444444,105.40364583333331,0)" xlink:href="#av"/><use transform="matrix(0.010850694444444444,0,0,0.010850694444444444,113.40060763888887,0)" xlink:href="#aC"/><use transform="matrix(0.010850694444444444,0,0,0.010850694444444444,126.72526041666664,0)" xlink:href="#aP"/><use transform="matrix(0.010850694444444444,0,0,0.010850694444444444,132.1072048611111,0)" xlink:href="#at"/><use transform="matrix(0.010850694444444444,0,0,0.010850694444444444,142.99045138888886,0)" xlink:href="#bb"/><use transform="matrix(0.010850694444444444,0,0,0.010850694444444444,157.5303819444444,0)" xlink:href="#aC"/><use transform="matrix(0.010850694444444444,0,0,0.010850694444444444,170.85503472222217,0)" xlink:href="#av"/><use transform="matrix(0.010850694444444444,0,0,0.010850694444444444,178.85199652777774,0)" xlink:href="#aG"/><use transform="matrix(0.010850694444444444,0,0,0.010850694444444444,192.45876736111106,0)" xlink:href="#aw"/></g><path d="M635 20c-292 0-500-160-510-396h192c11 142 145 229 315 229 187 0 323-105 323-260 0-161-125-274-346-274H488v-165h121c174 0 294-100 294-254 0-148-104-245-266-245-152 0-291 85-297 230H157c8-234 222-395 484-395 278 0 448 188 448 400 0 168-95 291-247 336v12c190 31 301 169 301 357 0 244-216 425-508 425" id="bc"/><g id="E"><use transform="matrix(0.010850694444444444,0,0,0.010850694444444444,0,0)" xlink:href="#aX"/><use transform="matrix(0.010850694444444444,0,0,0.010850694444444444,20.07378472222222,0)" xlink:href="#aY"/><use transform="matrix(0.010850694444444444,0,0,0.010850694444444444,32.638888888888886,0)" xlink:href="#bc"/><use transform="matrix(0.010850694444444444,0,0,0.010850694444444444,46.36501736111111,0)" xlink:href="#at"/><use transform="matrix(0.010850694444444444,0,0,0.010850694444444444,56.49956597222221,0)" xlink:href="#aM"/><use transform="matrix(0.010850694444444444,0,0,0.010850694444444444,70.75737847222221,0)" xlink:href="#aB"/><use transform="matrix(0.010850694444444444,0,0,0.010850694444444444,76.13932291666666,0)" xlink:href="#aN"/><use transform="matrix(0.010850694444444444,0,0,0.010850694444444444,95.60546874999997,0)" xlink:href="#aO"/><use transform="matrix(0.010850694444444444,0,0,0.010850694444444444,108.7456597222222,0)" xlink:href="#aP"/><use transform="matrix(0.010850694444444444,0,0,0.010850694444444444,114.12760416666664,0)" xlink:href="#ar"/><use transform="matrix(0.010850694444444444,0,0,0.010850694444444444,126.60590277777776,0)" xlink:href="#aA"/><use transform="matrix(0.010850694444444444,0,0,0.010850694444444444,139.30121527777777,0)" xlink:href="#aB"/><use transform="matrix(0.010850694444444444,0,0,0.010850694444444444,144.68315972222223,0)" xlink:href="#aC"/><use transform="matrix(0.010850694444444444,0,0,0.010850694444444444,158.0078125,0)" xlink:href="#ay"/></g><path d="M98-1322v-168h1126v168H757V0H567v-1322H98" id="bd"/><g id="F"><use transform="matrix(0.008173828125000001,0,0,0.008173828125000001,0,0)" xlink:href="#aq"/><use transform="matrix(0.008173828125000001,0,0,0.008173828125000001,12.228046875000002,0)" xlink:href="#ar"/><use transform="matrix(0.008173828125000001,0,0,0.008173828125000001,21.627949218750004,0)" xlink:href="#as"/><use transform="matrix(0.008173828125000001,0,0,0.008173828125000001,32.04140625000001,0)" xlink:href="#ar"/><use transform="matrix(0.008173828125000001,0,0,0.008173828125000001,41.44130859375,0)" xlink:href="#at"/><use transform="matrix(0.008173828125000001,0,0,0.008173828125000001,49.63965820312501,0)" xlink:href="#aJ"/><use transform="matrix(0.008173828125000001,0,0,0.008173828125000001,54.13526367187501,0)" xlink:href="#aC"/><use transform="matrix(0.008173828125000001,0,0,0.008173828125000001,62.86491210937501,0)" xlink:href="#bd"/><use transform="matrix(0.008173828125000001,0,0,0.008173828125000001,72.72254882812501,0)" xlink:href="#at"/><use transform="matrix(0.008173828125000001,0,0,0.008173828125000001,80.92089843750001,0)" xlink:href="#aJ"/><use transform="matrix(0.008173828125000001,0,0,0.008173828125000001,85.41650390625001,0)" xlink:href="#ay"/><use transform="matrix(0.008173828125000001,0,0,0.008173828125000001,95.30683593750001,0)" xlink:href="#aK"/><use transform="matrix(0.008173828125000001,0,0,0.008173828125000001,101.50259765625002,0)" xlink:href="#av"/><use transform="matrix(0.008173828125000001,0,0,0.008173828125000001,107.80461914062502,0)" xlink:href="#ar"/><use transform="matrix(0.008173828125000001,0,0,0.008173828125000001,117.20452148437504,0)" xlink:href="#aw"/><use transform="matrix(0.008173828125000001,0,0,0.008173828125000001,126.96407226562502,0)" xlink:href="#ax"/><use transform="matrix(0.008173828125000001,0,0,0.008173828125000001,135.79998046875002,0)" xlink:href="#az"/><use transform="matrix(0.008173828125000001,0,0,0.008173828125000001,141.27644531250002,0)" xlink:href="#av"/><use transform="matrix(0.008173828125000001,0,0,0.008173828125000001,147.578466796875,0)" xlink:href="#aO"/><use transform="matrix(0.008173828125000001,0,0,0.008173828125000001,157.47697265625,0)" xlink:href="#aA"/><use transform="matrix(0.008173828125000001,0,0,0.008173828125000001,167.0403515625,0)" xlink:href="#az"/><use transform="matrix(0.008173828125000001,0,0,0.008173828125000001,172.51681640625,0)" xlink:href="#aO"/><use transform="matrix(0.008173828125000001,0,0,0.008173828125000001,182.415322265625,0)" xlink:href="#av"/><use transform="matrix(0.008173828125000001,0,0,0.008173828125000001,188.71734375,0)" xlink:href="#ar"/></g><g id="G"><use transform="matrix(0.010850694444444444,0,0,0.010850694444444444,0,0)" xlink:href="#aW"/><use transform="matrix(0.010850694444444444,0,0,0.010850694444444444,16.74262152777778,0)" xlink:href="#aC"/><use transform="matrix(0.010850694444444444,0,0,0.010850694444444444,30.06727430555556,0)" xlink:href="#aG"/><use transform="matrix(0.010850694444444444,0,0,0.010850694444444444,43.674045138888886,0)" xlink:href="#aC"/><use transform="matrix(0.010850694444444444,0,0,0.010850694444444444,56.998697916666664,0)" xlink:href="#ax"/><use transform="matrix(0.010850694444444444,0,0,0.010850694444444444,68.72829861111111,0)" xlink:href="#at"/><use transform="matrix(0.010850694444444444,0,0,0.010850694444444444,79.6115451388889,0)" xlink:href="#aU"/><use transform="matrix(0.010850694444444444,0,0,0.010850694444444444,92.96875000000001,0)" xlink:href="#aM"/><use transform="matrix(0.010850694444444444,0,0,0.010850694444444444,107.22656250000001,0)" xlink:href="#au"/><use transform="matrix(0.010850694444444444,0,0,0.010850694444444444,121.41927083333334,0)" xlink:href="#bc"/><use transform="matrix(0.010850694444444444,0,0,0.010850694444444444,135.14539930555557,0)" xlink:href="#ba"/></g><g id="H"><use transform="matrix(0.010850694444444444,0,0,0.010850694444444444,0,0)" xlink:href="#aM"/><use transform="matrix(0.010850694444444444,0,0,0.010850694444444444,14.2578125,0)" xlink:href="#aw"/><use transform="matrix(0.010850694444444444,0,0,0.010850694444444444,27.213541666666664,0)" xlink:href="#ay"/><use transform="matrix(0.010850694444444444,0,0,0.010850694444444444,40.34288194444444,0)" xlink:href="#ax"/><use transform="matrix(0.010850694444444444,0,0,0.010850694444444444,52.072482638888886,0)" xlink:href="#aC"/><use transform="matrix(0.010850694444444444,0,0,0.010850694444444444,65.39713541666666,0)" xlink:href="#av"/><use transform="matrix(0.010850694444444444,0,0,0.010850694444444444,73.39409722222221,0)" xlink:href="#aw"/><use transform="matrix(0.010850694444444444,0,0,0.010850694444444444,86.34982638888889,0)" xlink:href="#ax"/><use transform="matrix(0.010850694444444444,0,0,0.010850694444444444,98.07942708333333,0)" xlink:href="#at"/><use transform="matrix(0.010850694444444444,0,0,0.010850694444444444,107.33506944444444,0)" xlink:href="#aq"/><use transform="matrix(0.010850694444444444,0,0,0.010850694444444444,123.56770833333333,0)" xlink:href="#aP"/><use transform="matrix(0.010850694444444444,0,0,0.010850694444444444,128.94965277777777,0)" xlink:href="#aB"/><use transform="matrix(0.010850694444444444,0,0,0.010850694444444444,134.33159722222223,0)" xlink:href="#aN"/><use transform="matrix(0.010850694444444444,0,0,0.010850694444444444,153.79774305555557,0)" xlink:href="#ar"/><use transform="matrix(0.010850694444444444,0,0,0.010850694444444444,166.27604166666669,0)" xlink:href="#at"/><use transform="matrix(0.010850694444444444,0,0,0.010850694444444444,175.5316840277778,0)" xlink:href="#aq"/><use transform="matrix(0.010850694444444444,0,0,0.010850694444444444,191.76432291666669,0)" xlink:href="#ar"/><use transform="matrix(0.010850694444444444,0,0,0.010850694444444444,204.2426215277778,0)" xlink:href="#aO"/><use transform="matrix(0.010850694444444444,0,0,0.010850694444444444,217.38281250000003,0)" xlink:href="#aG"/><use transform="matrix(0.010850694444444444,0,0,0.010850694444444444,230.98958333333337,0)" xlink:href="#ar"/><use transform="matrix(0.010850694444444444,0,0,0.010850694444444444,243.46788194444449,0)" xlink:href="#aP"/></g><g id="I"><use transform="matrix(0.010850694444444444,0,0,0.010850694444444444,0,0)" xlink:href="#aS"/><use transform="matrix(0.010850694444444444,0,0,0.010850694444444444,15.33203125,0)" xlink:href="#aA"/><use transform="matrix(0.010850694444444444,0,0,0.010850694444444444,28.02734375,0)" xlink:href="#az"/><use transform="matrix(0.010850694444444444,0,0,0.010850694444444444,35.29730902777778,0)" xlink:href="#aO"/><use transform="matrix(0.010850694444444444,0,0,0.010850694444444444,48.4375,0)" xlink:href="#ar"/><use transform="matrix(0.010850694444444444,0,0,0.010850694444444444,60.91579861111112,0)" xlink:href="#aG"/><use transform="matrix(0.010850694444444444,0,0,0.010850694444444444,74.52256944444444,0)" xlink:href="#aC"/><use transform="matrix(0.010850694444444444,0,0,0.010850694444444444,87.84722222222221,0)" xlink:href="#av"/><use transform="matrix(0.010850694444444444,0,0,0.010850694444444444,95.84418402777777,0)" xlink:href="#aw"/><use transform="matrix(0.010850694444444444,0,0,0.010850694444444444,108.79991319444444,0)" xlink:href="#ax"/><use transform="matrix(0.010850694444444444,0,0,0.010850694444444444,120.52951388888889,0)" xlink:href="#at"/><use transform="matrix(0.010850694444444444,0,0,0.010850694444444444,128.90625,0)" xlink:href="#aI"/><use transform="matrix(0.010850694444444444,0,0,0.010850694444444444,143.10980902777777,0)" xlink:href="#ar"/><use transform="matrix(0.010850694444444444,0,0,0.010850694444444444,155.58810763888889,0)" xlink:href="#aP"/><use transform="matrix(0.010850694444444444,0,0,0.010850694444444444,161.0785590277778,0)" xlink:href="#aV"/><use transform="matrix(0.010850694444444444,0,0,0.010850694444444444,173.56770833333334,0)" xlink:href="#aO"/><use transform="matrix(0.010850694444444444,0,0,0.010850694444444444,186.7078993055556,0)" xlink:href="#aP"/><use transform="matrix(0.010850694444444444,0,0,0.010850694444444444,192.08984375000003,0)" xlink:href="#ar"/><use transform="matrix(0.010850694444444444,0,0,0.010850694444444444,204.56814236111114,0)" xlink:href="#ax"/></g><g id="J"><use transform="matrix(0.010850694444444444,0,0,0.010850694444444444,0,0)" xlink:href="#aS"/><use transform="matrix(0.010850694444444444,0,0,0.010850694444444444,14.898003472222221,0)" xlink:href="#az"/><use transform="matrix(0.010850694444444444,0,0,0.010850694444444444,22.16796875,0)" xlink:href="#av"/><use transform="matrix(0.010850694444444444,0,0,0.010850694444444444,30.533854166666664,0)" xlink:href="#ar"/><use transform="matrix(0.010850694444444444,0,0,0.010850694444444444,43.01215277777777,0)" xlink:href="#as"/><use transform="matrix(0.010850694444444444,0,0,0.010850694444444444,56.835937499999986,0)" xlink:href="#ar"/><use transform="matrix(0.010850694444444444,0,0,0.010850694444444444,69.3142361111111,0)" xlink:href="#ay"/><use transform="matrix(0.010850694444444444,0,0,0.010850694444444444,82.44357638888887,0)" xlink:href="#aB"/><use transform="matrix(0.010850694444444444,0,0,0.010850694444444444,87.82552083333331,0)" xlink:href="#aw"/><use transform="matrix(0.010850694444444444,0,0,0.010850694444444444,100.78124999999997,0)" xlink:href="#aF"/><use transform="matrix(0.010850694444444444,0,0,0.010850694444444444,114.38802083333331,0)" xlink:href="#aP"/><use transform="matrix(0.010850694444444444,0,0,0.010850694444444444,119.76996527777776,0)" xlink:href="#ar"/><use transform="matrix(0.010850694444444444,0,0,0.010850694444444444,132.24826388888886,0)" xlink:href="#ax"/></g><g id="K"><use transform="matrix(0.010850694444444444,0,0,0.010850694444444444,0,0)" xlink:href="#aJ"/><use transform="matrix(0.010850694444444444,0,0,0.010850694444444444,5.967881944444445,0)" xlink:href="#ay"/><use transform="matrix(0.010850694444444444,0,0,0.010850694444444444,18.77170138888889,0)" xlink:href="#aV"/><use transform="matrix(0.010850694444444444,0,0,0.010850694444444444,30.826822916666664,0)" xlink:href="#aw"/><use transform="matrix(0.010850694444444444,0,0,0.010850694444444444,43.78255208333333,0)" xlink:href="#av"/><use transform="matrix(0.010850694444444444,0,0,0.010850694444444444,52.49565972222221,0)" xlink:href="#ay"/><use transform="matrix(0.010850694444444444,0,0,0.010850694444444444,65.62499999999999,0)" xlink:href="#ar"/><use transform="matrix(0.010850694444444444,0,0,0.010850694444444444,78.1032986111111,0)" xlink:href="#aG"/><use transform="matrix(0.010850694444444444,0,0,0.010850694444444444,91.71006944444441,0)" xlink:href="#aw"/><use transform="matrix(0.010850694444444444,0,0,0.010850694444444444,104.66579861111111,0)" xlink:href="#av"/><use transform="matrix(0.010850694444444444,0,0,0.010850694444444444,112.66276041666666,0)" xlink:href="#aC"/><use transform="matrix(0.010850694444444444,0,0,0.010850694444444444,125.98741319444441,0)" xlink:href="#ax"/></g><g id="L"><use transform="matrix(0.008173828125000001,0,0,0.008173828125000001,0,0)" xlink:href="#aq"/><use transform="matrix(0.008173828125000001,0,0,0.008173828125000001,12.228046875000002,0)" xlink:href="#ar"/><use transform="matrix(0.008173828125000001,0,0,0.008173828125000001,21.627949218750004,0)" xlink:href="#as"/><use transform="matrix(0.008173828125000001,0,0,0.008173828125000001,32.04140625000001,0)" xlink:href="#ar"/><use transform="matrix(0.008173828125000001,0,0,0.008173828125000001,41.44130859375,0)" xlink:href="#at"/><use transform="matrix(0.008173828125000001,0,0,0.008173828125000001,49.63965820312501,0)" xlink:href="#au"/><use transform="matrix(0.008173828125000001,0,0,0.008173828125000001,60.24111328125001,0)" xlink:href="#aw"/><use transform="matrix(0.008173828125000001,0,0,0.008173828125000001,70.00066406250001,0)" xlink:href="#av"/><use transform="matrix(0.008173828125000001,0,0,0.008173828125000001,76.30268554687501,0)" xlink:href="#ax"/><use transform="matrix(0.008173828125000001,0,0,0.008173828125000001,85.13859375000001,0)" xlink:href="#aB"/><use transform="matrix(0.008173828125000001,0,0,0.008173828125000001,89.19281250000002,0)" xlink:href="#ax"/><use transform="matrix(0.008173828125000001,0,0,0.008173828125000001,98.02872070312502,0)" xlink:href="#az"/><use transform="matrix(0.008173828125000001,0,0,0.008173828125000001,103.34170898437502,0)" xlink:href="#aw"/><use transform="matrix(0.008173828125000001,0,0,0.008173828125000001,113.10125976562502,0)" xlink:href="#ay"/><use transform="matrix(0.008173828125000001,0,0,0.008173828125000001,122.99159179687501,0)" xlink:href="#aA"/><use transform="matrix(0.008173828125000001,0,0,0.008173828125000001,132.554970703125,0)" xlink:href="#aB"/><use transform="matrix(0.008173828125000001,0,0,0.008173828125000001,136.609189453125,0)" xlink:href="#ar"/></g><path d="M784 20c-382 0-662-292-662-764 0-473 280-766 662-766s660 293 660 766c0 282-99 499-260 629l192 255h-198L1049-33C969 2 880 20 784 20zm-62-486h198l156 205c112-98 183-261 183-483 0-383-209-590-475-590-268 0-477 208-477 590 0 380 209 588 477 588 54 0 106-9 154-25" id="be"/><g id="M"><use transform="matrix(0.010850694444444444,0,0,0.010850694444444444,0,0)" xlink:href="#au"/><use transform="matrix(0.010850694444444444,0,0,0.010850694444444444,14.073350694444445,0)" xlink:href="#aC"/><use transform="matrix(0.010850694444444444,0,0,0.010850694444444444,27.39800347222222,0)" xlink:href="#ax"/><use transform="matrix(0.010850694444444444,0,0,0.010850694444444444,39.127604166666664,0)" xlink:href="#az"/><use transform="matrix(0.010850694444444444,0,0,0.010850694444444444,46.18055555555556,0)" xlink:href="#aQ"/><use transform="matrix(0.010850694444444444,0,0,0.010850694444444444,59.80902777777778,0)" xlink:href="#av"/><use transform="matrix(0.010850694444444444,0,0,0.010850694444444444,67.80598958333333,0)" xlink:href="#aw"/><use transform="matrix(0.010850694444444444,0,0,0.010850694444444444,80.76171875,0)" xlink:href="#aM"/><use transform="matrix(0.010850694444444444,0,0,0.010850694444444444,95.01953125,0)" xlink:href="#be"/><use transform="matrix(0.010850694444444444,0,0,0.010850694444444444,112.01171875,0)" xlink:href="#aY"/><use transform="matrix(0.010850694444444444,0,0,0.010850694444444444,124.57682291666666,0)" xlink:href="#at"/><use transform="matrix(0.010850694444444444,0,0,0.010850694444444444,135.46006944444446,0)" xlink:href="#aD"/><use transform="matrix(0.010850694444444444,0,0,0.010850694444444444,151.49739583333334,0)" xlink:href="#bb"/></g><g id="N"><use transform="matrix(0.010850694444444444,0,0,0.010850694444444444,0,0)" xlink:href="#au"/><use transform="matrix(0.010850694444444444,0,0,0.010850694444444444,14.192708333333332,0)" xlink:href="#av"/><use transform="matrix(0.010850694444444444,0,0,0.010850694444444444,22.189670138888886,0)" xlink:href="#aC"/><use transform="matrix(0.010850694444444444,0,0,0.010850694444444444,35.514322916666664,0)" xlink:href="#aA"/><use transform="matrix(0.010850694444444444,0,0,0.010850694444444444,48.209635416666664,0)" xlink:href="#aw"/><use transform="matrix(0.010850694444444444,0,0,0.010850694444444444,61.16536458333333,0)" xlink:href="#ax"/><use transform="matrix(0.010850694444444444,0,0,0.010850694444444444,72.89496527777777,0)" xlink:href="#aC"/></g><path fill="#333" d="M628 22C291 22 81-210 81-554c0-346 210-578 547-578 265 0 455 142 497 372l-279 52c-25-116-99-188-215-188-160 0-244 139-244 341 0 200 84 341 244 341 116 0 193-74 217-195l279 51C1085-123 896 22 628 22" id="bf"/><path fill="#333" d="M628 22C291 22 81-210 81-554c0-346 210-578 547-578 336 0 547 232 547 578 0 344-211 576-547 576zm0-236c160 0 242-146 242-341 0-197-82-341-242-341S387-753 387-555c0 195 81 341 241 341" id="bg"/><path fill="#333" d="M128 0v-1118h278l12 217c60-163 185-234 319-234 143 0 236 81 288 251 63-172 205-251 359-251 205 0 357 138 357 381V0h-301v-697c0-126-76-187-177-187-114 0-184 79-184 196V0H789v-705c0-109-72-179-174-179-106 0-187 74-187 208V0H128" id="bh"/><path fill="#333" d="M513 14c-232 0-385-159-385-421v-711h300v659c0 139 76 222 202 222 127 0 217-86 217-234v-647h301V0H864l-4-232C797-74 683 14 513 14" id="bi"/><path fill="#333" d="M428-647V0H128v-1118h283l4 231c63-156 176-245 348-245 232 0 384 159 384 421V0H847v-659c0-139-76-222-202-222-128 0-217 86-217 234" id="bj"/><path fill="#333" d="M128 0v-1118h300V0H128zm150-1264c-91 0-165-68-165-154 0-85 74-154 165-154 90 0 165 69 165 154 0 86-75 154-165 154" id="bk"/><path fill="#333" d="M440 22C227 22 68-92 68-313c0-250 202-322 422-343 195-21 271-24 271-105 0-95-63-149-175-149-116 0-187 57-211 129l-275-46c57-194 237-305 487-305 240 0 474 108 474 379V0H777v-155h-10C713-51 605 22 440 22zm85-211c140 0 238-93 238-211v-121c-37 26-156 42-222 51-111 16-185 59-185 149 0 87 70 132 169 132" id="bl"/><path fill="#333" d="M628 22C291 22 81-210 81-554c0-346 210-578 547-578 336 0 547 232 547 578 0 344-211 576-547 576zm0-236c160 0 242-146 242-341 0-197-82-341-242-341S387-753 387-555c0 195 81 341 241 341zM519-1260l139-311h278l-207 311H519" id="bm"/><g id="O"><use transform="matrix(0.008680555555555556,0,0,0.008680555555555556,0,0)" xlink:href="#bf"/><use transform="matrix(0.008680555555555556,0,0,0.008680555555555556,10.460069444444445,0)" xlink:href="#bg"/><use transform="matrix(0.008680555555555556,0,0,0.008680555555555556,21.36284722222222,0)" xlink:href="#bh"/><use transform="matrix(0.008680555555555556,0,0,0.008680555555555556,37.58680555555556,0)" xlink:href="#bi"/><use transform="matrix(0.008680555555555556,0,0,0.008680555555555556,48.65451388888889,0)" xlink:href="#bj"/><use transform="matrix(0.008680555555555556,0,0,0.008680555555555556,59.72222222222222,0)" xlink:href="#bk"/><use transform="matrix(0.008680555555555556,0,0,0.008680555555555556,64.53993055555556,0)" xlink:href="#bf"/><use transform="matrix(0.008680555555555556,0,0,0.008680555555555556,75.17361111111111,0)" xlink:href="#bl"/><use transform="matrix(0.008680555555555556,0,0,0.008680555555555556,85.49479166666667,0)" xlink:href="#bf"/><use transform="matrix(0.008680555555555556,0,0,0.008680555555555556,95.95486111111111,0)" xlink:href="#bk"/><use transform="matrix(0.008680555555555556,0,0,0.008680555555555556,100.77256944444444,0)" xlink:href="#bm"/><use transform="matrix(0.008680555555555556,0,0,0.008680555555555556,111.67534722222223,0)" xlink:href="#bj"/></g><path fill="#333" d="M135 0v-1490h468l242 684c30 94 76 293 111 455 34-161 80-360 110-455l238-684h470V0h-307c0-447-3-765 11-1227-122 503-246 788-395 1227H826C676-435 552-717 427-1215c15 453 11 775 11 1215H135" id="bn"/><path fill="#333" d="M786 20C389 20 94-260 94-744c0-487 299-766 692-766 339 0 597 194 641 529h-309c-28-162-156-258-326-258-233 0-388 179-388 495 0 323 157 493 387 493 170 0 298-97 328-259h309c-34 277-266 530-642 530" id="bo"/><path fill="#333" d="M135 0v-1490h581c339 0 533 210 533 503 0 295-197 500-540 500H440V0H135zm305-733h220c186 0 274-104 274-254s-88-251-275-251H440v505" id="bp"/><g id="P"><use transform="matrix(0.008680555555555556,0,0,0.008680555555555556,0,0)" xlink:href="#bn"/><use transform="matrix(0.008680555555555556,0,0,0.008680555555555556,16.5625,0)" xlink:href="#bo"/><use transform="matrix(0.008680555555555556,0,0,0.008680555555555556,29.713541666666668,0)" xlink:href="#bp"/></g></defs></g></svg>