<svg xmlns="http://www.w3.org/2000/svg" xmlns:xlink="http://www.w3.org/1999/xlink" contentStyleType="text/css" data-diagram-type="DESCRIPTION" height="276px" preserveAspectRatio="none" style="width:1109px;height:276px;background:#FFFFFF;" version="1.1" viewBox="0 0 1109 276" width="1109px" zoomAndPan="magnify"><?plantuml 1.2026.3beta6?><defs/><g><g class="title" data-source-line="1"><text fill="#000000" font-family="sans-serif" font-size="14" font-weight="700" lengthAdjust="spacing" textLength="216.5693" x="442.7153" y="22.9951">Administraci&#243;n del Sistema</text></g><!--cluster Administraci?n--><g class="cluster" data-qualified-name="Administraci.n" data-source-line="5" id="ent0003"><rect fill="none" height="118.36" rx="2.5" ry="2.5" style="stroke:#181818;stroke-width:1;" width="1088" x="7" y="144.0869"/><text fill="#000000" font-family="sans-serif" font-size="14" font-weight="700" lengthAdjust="spacing" textLength="119.0684" x="491.4658" y="159.082">Administraci&#243;n</text></g><!--entity UC1--><g class="entity" data-qualified-name="Administraci.n.UC1" data-source-line="6" id="ent0004"><ellipse cx="179.0048" cy="212.7658" fill="#F1F1F1" rx="156.3948" ry="33.679" style="stroke:#181818;stroke-width:0.5;"/><text fill="#000000" font-family="sans-serif" font-size="14" lengthAdjust="spacing" textLength="295.7705" x="31.1196" y="217.4143">Gestionar usuarios (t&#233;cnicos, estudiantes)</text></g><!--entity UC2--><g class="entity" data-qualified-name="Administraci.n.UC2" data-source-line="7" id="ent0005"><ellipse cx="480.0006" cy="212.769" fill="#F1F1F1" rx="109.2106" ry="24.2421" style="stroke:#181818;stroke-width:0.5;"/><text fill="#000000" font-family="sans-serif" font-size="14" lengthAdjust="spacing" textLength="196.1709" x="381.9151" y="217.4174">Revisar bit&#225;cora de eventos</text></g><!--entity UC3--><g class="entity" data-qualified-name="Administraci.n.UC3" data-source-line="8" id="ent0006"><ellipse cx="736" cy="212.7709" fill="#F1F1F1" rx="111.82" ry="24.764" style="stroke:#181818;stroke-width:0.5;"/><text fill="#000000" font-family="sans-serif" font-size="14" lengthAdjust="spacing" textLength="201.8105" x="635.0948" y="217.4193">Realizar copias de seguridad</text></g><!--entity UC4--><g class="entity" data-qualified-name="Administraci.n.UC4" data-source-line="9" id="ent0007"><ellipse cx="980.9994" cy="212.7628" fill="#F1F1F1" rx="98.0294" ry="22.0059" style="stroke:#181818;stroke-width:0.5;"/><text fill="#000000" font-family="sans-serif" font-size="14" lengthAdjust="spacing" textLength="171.7051" x="895.1468" y="217.4112">Restaurar base de datos</text></g><!--entity admin--><g class="entity" data-qualified-name="admin" data-source-line="3" id="ent0002"><ellipse cx="608" cy="51.2969" fill="#F1F1F1" rx="8" ry="8" style="stroke:#181818;stroke-width:0.5;"/><path d="M608,59.2969 L608,86.2969 M595,67.2969 L621,67.2969 M608,86.2969 L595,101.2969 M608,86.2969 L621,101.2969" fill="none" style="stroke:#181818;stroke-width:0.5;"/><text fill="#000000" font-family="sans-serif" font-size="14" lengthAdjust="spacing" textLength="99.0801" x="558.46" y="115.792">Administrador</text></g><!--link admin to UC1--><g class="link" data-entity-1="ent0002" data-entity-2="ent0004" data-link-type="dependency" data-source-line="12" id="lnk8"><path d="M558.35,89.4369 C506.4,97.9969 422.83,113.7369 353,136.0869 C314.72,148.3369 278.8501,163.5661 246.0901,178.8061" fill="none" id="admin-to-UC1" style="stroke:#181818;stroke-width:1;"/><polygon fill="#181818" points="240.65,181.3369,250.4974,181.1675,245.1835,179.2279,247.123,173.914,240.65,181.3369" style="stroke:#181818;stroke-width:1;"/></g><!--link admin to UC2--><g class="link" data-entity-1="ent0002" data-entity-2="ent0005" data-link-type="dependency" data-source-line="13" id="lnk9"><path d="M570.98,119.4969 C548.97,141.8069 525.9724,165.1343 507.0724,184.3043" fill="none" id="admin-to-UC2" style="stroke:#181818;stroke-width:1;"/><polygon fill="#181818" points="502.86,188.5769,512.0271,184.9762,506.3704,185.0164,506.3303,179.3596,502.86,188.5769" style="stroke:#181818;stroke-width:1;"/></g><!--link admin to UC3--><g class="link" data-entity-1="ent0002" data-entity-2="ent0006" data-link-type="dependency" data-source-line="14" id="lnk10"><path d="M645.02,119.4969 C666.88,141.6569 689.6565,164.7653 708.5465,183.9153" fill="none" id="admin-to-UC3" style="stroke:#181818;stroke-width:1;"/><polygon fill="#181818" points="712.76,188.1869,709.2874,178.9705,709.2487,184.6273,703.592,184.5886,712.76,188.1869" style="stroke:#181818;stroke-width:1;"/></g><!--link admin to UC4--><g class="link" data-entity-1="ent0002" data-entity-2="ent0007" data-link-type="dependency" data-source-line="15" id="lnk11"><path d="M657.92,86.9169 C710.92,93.4669 796.34,107.6369 865,136.0869 C898.77,150.0769 928.5666,170.4886 951.0766,187.7286" fill="none" id="admin-to-UC4" style="stroke:#181818;stroke-width:1;"/><polygon fill="#181818" points="955.84,191.3769,951.127,182.7289,951.8705,188.3367,946.2627,189.0802,955.84,191.3769" style="stroke:#181818;stroke-width:1;"/></g><?plantuml-src NP0nRW9134NxEOMrLP2W24kDX2ZI4t40PyP2bfQPoFPGW3XCIcgEi1UB5o4jI_dzt_zZZx5r19jqvCngWf7xUuP47NoxfYE6WD6AG3CogKW3g83390IXQ9WFNjEyzJHm2G1LAQAw-qLgN3AAZoeA5uKFwsynSomw1tThOin6EdlqxxUVh_4TdLWz_CFM_yKYw6i2dIXRqIU_dFBOyTa3iVoosquh7QfmmlJasoclXbM65mRjUCAnUXMk_XN3VR1Oh1-xlQhbHBKJjVe7?></g></svg>