<svg xmlns="http://www.w3.org/2000/svg" xmlns:xlink="http://www.w3.org/1999/xlink" contentStyleType="text/css" data-diagram-type="DESCRIPTION" height="266px" preserveAspectRatio="none" style="width:1032px;height:266px;background:#FFFFFF;" version="1.1" viewBox="0 0 1032 266" width="1032px" zoomAndPan="magnify"><?plantuml 1.2026.3beta6?><defs/><g><g class="title" data-source-line="1"><text fill="#000000" font-family="sans-serif" font-size="14" font-weight="700" lengthAdjust="spacing" textLength="125.2139" x="449.8931" y="22.9951">Dashboard Web</text></g><!--cluster Dashboard React--><g class="cluster" data-qualified-name="Dashboard React" data-source-line="6" id="ent0004"><rect fill="none" height="108.9" rx="2.5" ry="2.5" style="stroke:#181818;stroke-width:1;" width="1011" x="7" y="144.0969"/><text fill="#000000" font-family="sans-serif" font-size="14" font-weight="700" lengthAdjust="spacing" textLength="134.9688" x="445.0156" y="159.092">Dashboard React</text></g><!--entity UC1--><g class="entity" data-qualified-name="Dashboard React.UC1" data-source-line="7" id="ent0005"><ellipse cx="679.9961" cy="208.0501" fill="#F1F1F1" rx="110.8161" ry="24.5632" style="stroke:#181818;stroke-width:0.5;"/><text fill="#000000" font-family="sans-serif" font-size="14" lengthAdjust="spacing" textLength="199.6436" x="580.1743" y="212.6985">Visualizar datos de sensores</text></g><!--entity UC2--><g class="entity" data-qualified-name="Dashboard React.UC2" data-source-line="8" id="ent0006"><ellipse cx="914.0014" cy="208.0432" fill="#F1F1F1" rx="88.4814" ry="20.0963" style="stroke:#181818;stroke-width:0.5;"/><text fill="#000000" font-family="sans-serif" font-size="14" lengthAdjust="spacing" textLength="150.2949" x="838.8539" y="212.6916">Ver predicciones ML1</text></g><!--entity UC3--><g class="entity" data-qualified-name="Dashboard React.UC3" data-source-line="9" id="ent0007"><ellipse cx="155.9996" cy="208.0468" fill="#F1F1F1" rx="132.7496" ry="28.9499" style="stroke:#181818;stroke-width:0.5;"/><text fill="#000000" font-family="sans-serif" font-size="14" lengthAdjust="spacing" textLength="246.374" x="32.8126" y="212.6952">Controlar riego manual/autom&#225;tico</text></g><!--entity UC4--><g class="entity" data-qualified-name="Dashboard React.UC4" data-source-line="10" id="ent0008"><ellipse cx="429.0039" cy="208.0457" fill="#F1F1F1" rx="105.3439" ry="23.4688" style="stroke:#181818;stroke-width:0.5;"/><text fill="#000000" font-family="sans-serif" font-size="14" lengthAdjust="spacing" textLength="187.7695" x="335.1191" y="212.6941">Generar reportes de alerta</text></g><!--entity tecnico--><g class="entity" data-qualified-name="tecnico" data-source-line="3" id="ent0002"><ellipse cx="574.9954" cy="51.2969" fill="#F1F1F1" rx="8" ry="8" style="stroke:#181818;stroke-width:0.5;"/><path d="M574.9954,59.2969 L574.9954,86.2969 M561.9954,67.2969 L587.9954,67.2969 M574.9954,86.2969 L561.9954,101.2969 M574.9954,86.2969 L587.9954,101.2969" fill="none" style="stroke:#181818;stroke-width:0.5;"/><text fill="#000000" font-family="sans-serif" font-size="14" lengthAdjust="spacing" textLength="119.9707" x="515.01" y="115.792">T&#233;cnico de Riego</text></g><!--entity estudiante--><g class="entity" data-qualified-name="estudiante" data-source-line="4" id="ent0003"><ellipse cx="785.001" cy="51.2969" fill="#F1F1F1" rx="8" ry="8" style="stroke:#181818;stroke-width:0.5;"/><path d="M785.001,59.2969 L785.001,86.2969 M772.001,67.2969 L798.001,67.2969 M785.001,86.2969 L772.001,101.2969 M785.001,86.2969 L798.001,101.2969" fill="none" style="stroke:#181818;stroke-width:0.5;"/><text fill="#000000" font-family="sans-serif" font-size="14" lengthAdjust="spacing" textLength="147.082" x="711.46" y="115.792">Estudiante / Docente</text></g><!--link tecnico to UC1--><g class="link" data-entity-1="ent0002" data-entity-2="ent0005" data-link-type="dependency" data-source-line="13" id="lnk9"><path d="M606.5,119.4869 C624.02,140.3569 641.4116,161.082 656.5516,179.112" fill="none" id="tecnico-to-UC1" style="stroke:#181818;stroke-width:1;"/><polygon fill="#181818" points="660.41,183.7069,657.6857,174.2423,657.1947,179.8778,651.5592,179.3868,660.41,183.7069" style="stroke:#181818;stroke-width:1;"/></g><!--link tecnico to UC2--><g class="link" data-entity-1="ent0002" data-entity-2="ent0006" data-link-type="dependency" data-source-line="14" id="lnk10"><path d="M635.35,102.7769 C653.99,108.6669 674.7,114.6769 694,119.0969 C743.93,130.5369 760.22,117.6269 808,136.0969 C839.81,148.3969 867.0488,167.7989 887.4188,184.3089" fill="none" id="tecnico-to-UC2" style="stroke:#181818;stroke-width:1;"/><polygon fill="#181818" points="892.08,188.0869,887.6068,179.3125,888.1956,184.9386,882.5695,185.5274,892.08,188.0869" style="stroke:#181818;stroke-width:1;"/></g><!--link tecnico to UC3--><g class="link" data-entity-1="ent0002" data-entity-2="ent0007" data-link-type="dependency" data-source-line="15" id="lnk11"><path d="M514.62,89.8069 C459.37,98.0069 375.86,112.9269 306,136.0969 C270.73,147.7969 238.2395,162.9606 209.4095,177.8706" fill="none" id="tecnico-to-UC3" style="stroke:#181818;stroke-width:1;"/><polygon fill="#181818" points="204.08,180.6269,213.9117,180.0455,208.5212,178.33,210.2367,172.9395,204.08,180.6269" style="stroke:#181818;stroke-width:1;"/></g><!--link tecnico to UC4--><g class="link" data-entity-1="ent0002" data-entity-2="ent0008" data-link-type="dependency" data-source-line="16" id="lnk12"><path d="M531.2,119.4869 C506.33,140.7869 480.6169,162.8237 459.4969,180.9137" fill="none" id="tecnico-to-UC4" style="stroke:#181818;stroke-width:1;"/><polygon fill="#181818" points="454.94,184.8169,464.3775,182.0001,458.7374,181.5643,459.1733,175.9242,454.94,184.8169" style="stroke:#181818;stroke-width:1;"/></g><!--link estudiante to UC1--><g class="link" data-entity-1="ent0003" data-entity-2="ent0005" data-link-type="dependency" data-source-line="17" id="lnk13"><path d="M753.5,119.4869 C735.98,140.3569 718.5884,161.082 703.4484,179.112" fill="none" id="estudiante-to-UC1" style="stroke:#181818;stroke-width:1;"/><polygon fill="#181818" points="699.59,183.7069,708.4408,179.3868,702.8053,179.8778,702.3143,174.2423,699.59,183.7069" style="stroke:#181818;stroke-width:1;"/></g><!--link estudiante to UC2--><g class="link" data-entity-1="ent0003" data-entity-2="ent0006" data-link-type="dependency" data-source-line="18" id="lnk14"><path d="M823.7,119.4869 C847.01,142.0769 871.3822,165.7204 890.0822,183.8504" fill="none" id="estudiante-to-UC2" style="stroke:#181818;stroke-width:1;"/><polygon fill="#181818" points="894.39,188.0269,890.7126,178.8903,890.8002,184.5465,885.144,184.634,894.39,188.0269" style="stroke:#181818;stroke-width:1;"/></g><?plantuml-src PL0xJWD13Etd5DRsKPHDQfe4qK0J0QcTsQSmqcOSsTu6n64eSuvSZDdLaX-Td_q-jZrv2rgnVMo5jQ4DjY5mT56gNa_7c5CKQa3hX9rKn4QEeVb7UZJlciJPGLDQIKIf1XxEWn0KqJdlIb9rYLgZM5Jq5OWwGsGhq_Ta7RVfavKQTh4-sf1D53QulYrdDtme7HHDYZ59Xj7BysparTUyfMHNQOkjzeVGddF9cNBdiZ_zUBbdLCslLK_8q5w3WwXZs8PRgFF8NeJl4CQ7q6JoCAntY-ixFB_3Yt1vrDdYNwl-1G00?></g></svg>