<svg xmlns="http://www.w3.org/2000/svg" xmlns:xlink="http://www.w3.org/1999/xlink" contentStyleType="text/css" data-diagram-type="DESCRIPTION" height="2133px" preserveAspectRatio="none" style="width:1819px;height:2133px;background:#FFFFFF;" version="1.1" viewBox="0 0 1819 2133" width="1819px" zoomAndPan="magnify"><?plantuml 1.2026.3beta6?><defs/><g><g class="title" data-source-line="1"><text fill="#000000" font-family="sans-serif" font-size="14" font-weight="700" lengthAdjust="spacing" textLength="419.2891" x="696.4505" y="22.9951">Diagrama de Paquetes - Sistema Inteligente de Agua</text></g><!--cluster Sistema Inteligente de Agua--><g class="cluster" data-qualified-name="Sistema Inteligente de Agua" data-source-line="6" id="ent0002"><rect fill="none" height="2075" rx="2.5" ry="2.5" style="stroke:#181818;stroke-width:1;" width="1719.19" x="86" y="44.2969"/><text fill="#000000" font-family="sans-serif" font-size="14" font-weight="700" lengthAdjust="spacing" textLength="224.4785" x="833.3557" y="59.292">Sistema Inteligente de Agua</text></g><!--cluster Captaci?n de Niebla--><g class="cluster" data-qualified-name="Sistema Inteligente de Agua.Captaci.n de Niebla" data-source-line="8" id="ent0003"><rect fill="none" height="214" rx="2.5" ry="2.5" style="stroke:#181818;stroke-width:1;" width="568" x="118" y="1873.2969"/><text fill="#000000" font-family="sans-serif" font-size="14" font-weight="700" lengthAdjust="spacing" textLength="158.1084" x="322.9458" y="1888.292">Captaci&#243;n de Niebla</text></g><!--cluster Estaci?n IoT--><g class="cluster" data-qualified-name="Sistema Inteligente de Agua.Estaci.n IoT" data-source-line="14" id="ent0007"><rect fill="none" height="214" rx="2.5" ry="2.5" style="stroke:#181818;stroke-width:1;" width="513.94" x="153.91" y="1619.2969"/><text fill="#000000" font-family="sans-serif" font-size="14" font-weight="700" lengthAdjust="spacing" textLength="95.9697" x="362.8951" y="1634.292">Estaci&#243;n IoT</text></g><!--cluster Interoperabilidad MCP--><g class="cluster" data-qualified-name="Sistema Inteligente de Agua.Interoperabilidad MCP" data-source-line="20" id="ent0011"><rect fill="none" height="214" rx="2.5" ry="2.5" style="stroke:#181818;stroke-width:1;" width="558.47" x="127.17" y="1365.2969"/><text fill="#000000" font-family="sans-serif" font-size="14" font-weight="700" lengthAdjust="spacing" textLength="177.0029" x="317.9035" y="1380.292">Interoperabilidad MCP</text></g><!--cluster Modelos ML--><g class="cluster" data-qualified-name="Sistema Inteligente de Agua.Modelos ML" data-source-line="26" id="ent0015"><rect fill="none" height="214" rx="2.5" ry="2.5" style="stroke:#181818;stroke-width:1;" width="748.96" x="795" y="1365.2969"/><text fill="#000000" font-family="sans-serif" font-size="14" font-weight="700" lengthAdjust="spacing" textLength="93.543" x="1122.7085" y="1380.292">Modelos ML</text></g><!--cluster Backend (FastAPI)--><g class="cluster" data-qualified-name="Sistema Inteligente de Agua.Backend .FastAPI." data-source-line="32" id="ent0019"><rect fill="none" height="214" rx="2.5" ry="2.5" style="stroke:#181818;stroke-width:1;" width="620.17" x="864.06" y="857.2969"/><text fill="#000000" font-family="sans-serif" font-size="14" font-weight="700" lengthAdjust="spacing" textLength="145.2227" x="1101.5337" y="872.292">Backend (FastAPI)</text></g><!--cluster Dashboard Web (React)--><g class="cluster" data-qualified-name="Sistema Inteligente de Agua.Dashboard Web .React." data-source-line="38" id="ent0023"><rect fill="none" height="214" rx="2.5" ry="2.5" style="stroke:#181818;stroke-width:1;" width="662.47" x="418.51" y="1111.2969"/><text fill="#000000" font-family="sans-serif" font-size="14" font-weight="700" lengthAdjust="spacing" textLength="187.5986" x="655.9457" y="1126.292">Dashboard Web (React)</text></g><!--cluster Base de Datos (PostgreSQL)--><g class="cluster" data-qualified-name="Sistema Inteligente de Agua.Base de Datos .PostgreSQL." data-source-line="44" id="ent0027"><rect fill="none" height="214" rx="2.5" ry="2.5" style="stroke:#181818;stroke-width:1;" width="509.36" x="1263.83" y="603.2969"/><text fill="#000000" font-family="sans-serif" font-size="14" font-weight="700" lengthAdjust="spacing" textLength="222.8242" x="1407.0979" y="618.292">Base de Datos (PostgreSQL)</text></g><!--cluster Administraci?n--><g class="cluster" data-qualified-name="Sistema Inteligente de Agua.Administraci.n" data-source-line="50" id="ent0031"><rect fill="none" height="214" rx="2.5" ry="2.5" style="stroke:#181818;stroke-width:1;" width="647.57" x="858.05" y="95.2969"/><text fill="#000000" font-family="sans-serif" font-size="14" font-weight="700" lengthAdjust="spacing" textLength="119.0684" x="1122.3008" y="110.292">Administraci&#243;n</text></g><!--cluster Configuraci?n--><g class="cluster" data-qualified-name="Sistema Inteligente de Agua.Configuraci.n" data-source-line="56" id="ent0035"><rect fill="none" height="214" rx="2.5" ry="2.5" style="stroke:#181818;stroke-width:1;" width="249.91" x="1264.34" y="349.2969"/><text fill="#000000" font-family="sans-serif" font-size="14" font-weight="700" lengthAdjust="spacing" textLength="109.7715" x="1334.4093" y="364.292">Configuraci&#243;n</text></g><!--entity Registro de Atrapanieblas--><g class="entity" data-qualified-name="Sistema Inteligente de Agua.Captaci.n de Niebla.Registro de Atrapanieblas" data-source-line="9" id="ent0004"><rect fill="#F1F1F1" height="46.2969" rx="2.5" ry="2.5" style="stroke:#181818;stroke-width:0.5;" width="221.5146" x="142" y="2017.1469"/><rect fill="#F1F1F1" height="10" style="stroke:#181818;stroke-width:0.5;" width="15" x="343.5146" y="2022.1469"/><rect fill="#F1F1F1" height="2" style="stroke:#181818;stroke-width:0.5;" width="4" x="341.5146" y="2024.1469"/><rect fill="#F1F1F1" height="2" style="stroke:#181818;stroke-width:0.5;" width="4" x="341.5146" y="2028.1469"/><text fill="#000000" font-family="sans-serif" font-size="14" lengthAdjust="spacing" textLength="181.5146" x="157" y="2050.142">Registro de Atrapanieblas</text></g><!--entity Monitoreo de Caudal--><g class="entity" data-qualified-name="Sistema Inteligente de Agua.Captaci.n de Niebla.Monitoreo de Caudal" data-source-line="10" id="ent0005"><rect fill="#F1F1F1" height="46.2969" rx="2.5" ry="2.5" style="stroke:#181818;stroke-width:0.5;" width="185.3799" x="160.06" y="1936.1469"/><rect fill="#F1F1F1" height="10" style="stroke:#181818;stroke-width:0.5;" width="15" x="325.4399" y="1941.1469"/><rect fill="#F1F1F1" height="2" style="stroke:#181818;stroke-width:0.5;" width="4" x="323.4399" y="1943.1469"/><rect fill="#F1F1F1" height="2" style="stroke:#181818;stroke-width:0.5;" width="4" x="323.4399" y="1947.1469"/><text fill="#000000" font-family="sans-serif" font-size="14" lengthAdjust="spacing" textLength="145.3799" x="175.06" y="1969.142">Monitoreo de Caudal</text></g><!--entity Mantenimiento de Mallas--><g class="entity" data-qualified-name="Sistema Inteligente de Agua.Captaci.n de Niebla.Mantenimiento de Mallas" data-source-line="11" id="ent0006"><rect fill="#F1F1F1" height="46.2969" rx="2.5" ry="2.5" style="stroke:#181818;stroke-width:0.5;" width="216.1758" x="445.82" y="1957.1469"/><rect fill="#F1F1F1" height="10" style="stroke:#181818;stroke-width:0.5;" width="15" x="641.9958" y="1962.1469"/><rect fill="#F1F1F1" height="2" style="stroke:#181818;stroke-width:0.5;" width="4" x="639.9958" y="1964.1469"/><rect fill="#F1F1F1" height="2" style="stroke:#181818;stroke-width:0.5;" width="4" x="639.9958" y="1968.1469"/><text fill="#000000" font-family="sans-serif" font-size="14" lengthAdjust="spacing" textLength="176.1758" x="460.82" y="1990.142">Mantenimiento de Mallas</text></g><!--entity Sensor BME680--><g class="entity" data-qualified-name="Sistema Inteligente de Agua.Estaci.n IoT.Sensor BME680" data-source-line="15" id="ent0008"><rect fill="#F1F1F1" height="46.2969" rx="2.5" ry="2.5" style="stroke:#181818;stroke-width:0.5;" width="149.6895" x="177.91" y="1743.1469"/><rect fill="#F1F1F1" height="10" style="stroke:#181818;stroke-width:0.5;" width="15" x="307.5995" y="1748.1469"/><rect fill="#F1F1F1" height="2" style="stroke:#181818;stroke-width:0.5;" width="4" x="305.5995" y="1750.1469"/><rect fill="#F1F1F1" height="2" style="stroke:#181818;stroke-width:0.5;" width="4" x="305.5995" y="1754.1469"/><text fill="#000000" font-family="sans-serif" font-size="14" lengthAdjust="spacing" textLength="109.6895" x="192.91" y="1776.142">Sensor BME680</text></g><!--entity Caudal?metro--><g class="entity" data-qualified-name="Sistema Inteligente de Agua.Estaci.n IoT.Caudal.metro" data-source-line="16" id="ent0009"><rect fill="#F1F1F1" height="46.2969" rx="2.5" ry="2.5" style="stroke:#181818;stroke-width:0.5;" width="134.5342" x="185.49" y="1662.1469"/><rect fill="#F1F1F1" height="10" style="stroke:#181818;stroke-width:0.5;" width="15" x="300.0242" y="1667.1469"/><rect fill="#F1F1F1" height="2" style="stroke:#181818;stroke-width:0.5;" width="4" x="298.0242" y="1669.1469"/><rect fill="#F1F1F1" height="2" style="stroke:#181818;stroke-width:0.5;" width="4" x="298.0242" y="1673.1469"/><text fill="#000000" font-family="sans-serif" font-size="14" lengthAdjust="spacing" textLength="94.5342" x="200.49" y="1695.142">Caudal&#237;metro</text></g><!--entity Conectividad ESP32--><g class="entity" data-qualified-name="Sistema Inteligente de Agua.Estaci.n IoT.Conectividad ESP32" data-source-line="17" id="ent0010"><rect fill="#F1F1F1" height="46.2969" rx="2.5" ry="2.5" style="stroke:#181818;stroke-width:0.5;" width="179.8701" x="463.98" y="1743.1469"/><rect fill="#F1F1F1" height="10" style="stroke:#181818;stroke-width:0.5;" width="15" x="623.8501" y="1748.1469"/><rect fill="#F1F1F1" height="2" style="stroke:#181818;stroke-width:0.5;" width="4" x="621.8501" y="1750.1469"/><rect fill="#F1F1F1" height="2" style="stroke:#181818;stroke-width:0.5;" width="4" x="621.8501" y="1754.1469"/><text fill="#000000" font-family="sans-serif" font-size="14" lengthAdjust="spacing" textLength="139.8701" x="478.98" y="1776.142">Conectividad ESP32</text></g><!--entity Servidor MCP--><g class="entity" data-qualified-name="Sistema Inteligente de Agua.Interoperabilidad MCP.Servidor MCP" data-source-line="21" id="ent0012"><rect fill="#F1F1F1" height="46.2969" rx="2.5" ry="2.5" style="stroke:#181818;stroke-width:0.5;" width="133.3857" x="186.06" y="1509.1469"/><rect fill="#F1F1F1" height="10" style="stroke:#181818;stroke-width:0.5;" width="15" x="299.4457" y="1514.1469"/><rect fill="#F1F1F1" height="2" style="stroke:#181818;stroke-width:0.5;" width="4" x="297.4457" y="1516.1469"/><rect fill="#F1F1F1" height="2" style="stroke:#181818;stroke-width:0.5;" width="4" x="297.4457" y="1520.1469"/><text fill="#000000" font-family="sans-serif" font-size="14" lengthAdjust="spacing" textLength="93.3857" x="201.06" y="1542.142">Servidor MCP</text></g><!--entity Cliente MCP (Sensores)--><g class="entity" data-qualified-name="Sistema Inteligente de Agua.Interoperabilidad MCP.Cliente MCP .Sensores." data-source-line="22" id="ent0013"><rect fill="#F1F1F1" height="46.2969" rx="2.5" ry="2.5" style="stroke:#181818;stroke-width:0.5;" width="203.1602" x="151.17" y="1428.1469"/><rect fill="#F1F1F1" height="10" style="stroke:#181818;stroke-width:0.5;" width="15" x="334.3302" y="1433.1469"/><rect fill="#F1F1F1" height="2" style="stroke:#181818;stroke-width:0.5;" width="4" x="332.3302" y="1435.1469"/><rect fill="#F1F1F1" height="2" style="stroke:#181818;stroke-width:0.5;" width="4" x="332.3302" y="1439.1469"/><text fill="#000000" font-family="sans-serif" font-size="14" lengthAdjust="spacing" textLength="163.1602" x="166.17" y="1461.142">Cliente MCP (Sensores)</text></g><!--entity Cliente MCP (Dashboard)--><g class="entity" data-qualified-name="Sistema Inteligente de Agua.Interoperabilidad MCP.Cliente MCP .Dashboard." data-source-line="23" id="ent0014"><rect fill="#F1F1F1" height="46.2969" rx="2.5" ry="2.5" style="stroke:#181818;stroke-width:0.5;" width="215.4648" x="446.18" y="1509.1469"/><rect fill="#F1F1F1" height="10" style="stroke:#181818;stroke-width:0.5;" width="15" x="641.6448" y="1514.1469"/><rect fill="#F1F1F1" height="2" style="stroke:#181818;stroke-width:0.5;" width="4" x="639.6448" y="1516.1469"/><rect fill="#F1F1F1" height="2" style="stroke:#181818;stroke-width:0.5;" width="4" x="639.6448" y="1520.1469"/><text fill="#000000" font-family="sans-serif" font-size="14" lengthAdjust="spacing" textLength="175.4648" x="461.18" y="1542.142">Cliente MCP (Dashboard)</text></g><!--entity ML1 - Predicci?n Volumen Diario--><g class="entity" data-qualified-name="Sistema Inteligente de Agua.Modelos ML.ML1 - Predicci.n Volumen Diario" data-source-line="27" id="ent0016"><rect fill="#F1F1F1" height="46.2969" rx="2.5" ry="2.5" style="stroke:#181818;stroke-width:0.5;" width="267.4385" x="838.6" y="1509.1469"/><rect fill="#F1F1F1" height="10" style="stroke:#181818;stroke-width:0.5;" width="15" x="1086.0385" y="1514.1469"/><rect fill="#F1F1F1" height="2" style="stroke:#181818;stroke-width:0.5;" width="4" x="1084.0385" y="1516.1469"/><rect fill="#F1F1F1" height="2" style="stroke:#181818;stroke-width:0.5;" width="4" x="1084.0385" y="1520.1469"/><text fill="#000000" font-family="sans-serif" font-size="14" lengthAdjust="spacing" textLength="227.4385" x="853.6" y="1542.142">ML1 - Predicci&#243;n Volumen Diario</text></g><!--entity ML2 - C?lculo de Riego ?ptimo (Edge)--><g class="entity" data-qualified-name="Sistema Inteligente de Agua.Modelos ML.ML2 - C.lculo de Riego .ptimo .Edge." data-source-line="28" id="ent0017"><rect fill="#F1F1F1" height="46.2969" rx="2.5" ry="2.5" style="stroke:#181818;stroke-width:0.5;" width="306.6357" x="819" y="1428.1469"/><rect fill="#F1F1F1" height="10" style="stroke:#181818;stroke-width:0.5;" width="15" x="1105.6357" y="1433.1469"/><rect fill="#F1F1F1" height="2" style="stroke:#181818;stroke-width:0.5;" width="4" x="1103.6357" y="1435.1469"/><rect fill="#F1F1F1" height="2" style="stroke:#181818;stroke-width:0.5;" width="4" x="1103.6357" y="1439.1469"/><text fill="#000000" font-family="sans-serif" font-size="14" lengthAdjust="spacing" textLength="266.6357" x="834" y="1461.142">ML2 - C&#225;lculo de Riego &#211;ptimo (Edge)</text></g><!--entity ML3 - Simulaci?n de Escenarios--><g class="entity" data-qualified-name="Sistema Inteligente de Agua.Modelos ML.ML3 - Simulaci.n de Escenarios" data-source-line="29" id="ent0018"><rect fill="#F1F1F1" height="46.2969" rx="2.5" ry="2.5" style="stroke:#181818;stroke-width:0.5;" width="261.3271" x="1258.64" y="1449.1469"/><rect fill="#F1F1F1" height="10" style="stroke:#181818;stroke-width:0.5;" width="15" x="1499.9671" y="1454.1469"/><rect fill="#F1F1F1" height="2" style="stroke:#181818;stroke-width:0.5;" width="4" x="1497.9671" y="1456.1469"/><rect fill="#F1F1F1" height="2" style="stroke:#181818;stroke-width:0.5;" width="4" x="1497.9671" y="1460.1469"/><text fill="#000000" font-family="sans-serif" font-size="14" lengthAdjust="spacing" textLength="221.3271" x="1273.64" y="1482.142">ML3 - Simulaci&#243;n de Escenarios</text></g><!--entity API REST--><g class="entity" data-qualified-name="Sistema Inteligente de Agua.Backend .FastAPI..API REST" data-source-line="33" id="ent0020"><rect fill="#F1F1F1" height="46.2969" rx="2.5" ry="2.5" style="stroke:#181818;stroke-width:0.5;" width="102.6104" x="921.01" y="1001.1469"/><rect fill="#F1F1F1" height="10" style="stroke:#181818;stroke-width:0.5;" width="15" x="1003.6204" y="1006.1469"/><rect fill="#F1F1F1" height="2" style="stroke:#181818;stroke-width:0.5;" width="4" x="1001.6204" y="1008.1469"/><rect fill="#F1F1F1" height="2" style="stroke:#181818;stroke-width:0.5;" width="4" x="1001.6204" y="1012.1469"/><text fill="#000000" font-family="sans-serif" font-size="14" lengthAdjust="spacing" textLength="62.6104" x="936.01" y="1034.142">API REST</text></g><!--entity L?gica de Negocio--><g class="entity" data-qualified-name="Sistema Inteligente de Agua.Backend .FastAPI..L.gica de Negocio" data-source-line="34" id="ent0021"><rect fill="#F1F1F1" height="46.2969" rx="2.5" ry="2.5" style="stroke:#181818;stroke-width:0.5;" width="168.5088" x="888.06" y="920.1469"/><rect fill="#F1F1F1" height="10" style="stroke:#181818;stroke-width:0.5;" width="15" x="1036.5688" y="925.1469"/><rect fill="#F1F1F1" height="2" style="stroke:#181818;stroke-width:0.5;" width="4" x="1034.5688" y="927.1469"/><rect fill="#F1F1F1" height="2" style="stroke:#181818;stroke-width:0.5;" width="4" x="1034.5688" y="931.1469"/><text fill="#000000" font-family="sans-serif" font-size="14" lengthAdjust="spacing" textLength="128.5088" x="903.06" y="953.142">L&#243;gica de Negocio</text></g><!--entity Servicio de ML--><g class="entity" data-qualified-name="Sistema Inteligente de Agua.Backend .FastAPI..Servicio de ML" data-source-line="35" id="ent0022"><rect fill="#F1F1F1" height="46.2969" rx="2.5" ry="2.5" style="stroke:#181818;stroke-width:0.5;" width="141.8623" x="1318.37" y="1001.1469"/><rect fill="#F1F1F1" height="10" style="stroke:#181818;stroke-width:0.5;" width="15" x="1440.2323" y="1006.1469"/><rect fill="#F1F1F1" height="2" style="stroke:#181818;stroke-width:0.5;" width="4" x="1438.2323" y="1008.1469"/><rect fill="#F1F1F1" height="2" style="stroke:#181818;stroke-width:0.5;" width="4" x="1438.2323" y="1012.1469"/><text fill="#000000" font-family="sans-serif" font-size="14" lengthAdjust="spacing" textLength="101.8623" x="1333.37" y="1034.142">Servicio de ML</text></g><!--entity Visualizaci?n Tiempo Real--><g class="entity" data-qualified-name="Sistema Inteligente de Agua.Dashboard Web .React..Visualizaci.n Tiempo Real" data-source-line="39" id="ent0024"><rect fill="#F1F1F1" height="46.2969" rx="2.5" ry="2.5" style="stroke:#181818;stroke-width:0.5;" width="222.7998" x="442.51" y="1255.1469"/><rect fill="#F1F1F1" height="10" style="stroke:#181818;stroke-width:0.5;" width="15" x="645.3098" y="1260.1469"/><rect fill="#F1F1F1" height="2" style="stroke:#181818;stroke-width:0.5;" width="4" x="643.3098" y="1262.1469"/><rect fill="#F1F1F1" height="2" style="stroke:#181818;stroke-width:0.5;" width="4" x="643.3098" y="1266.1469"/><text fill="#000000" font-family="sans-serif" font-size="14" lengthAdjust="spacing" textLength="182.7998" x="457.51" y="1288.142">Visualizaci&#243;n Tiempo Real</text></g><!--entity Control de Riego--><g class="entity" data-qualified-name="Sistema Inteligente de Agua.Dashboard Web .React..Control de Riego" data-source-line="40" id="ent0025"><rect fill="#F1F1F1" height="46.2969" rx="2.5" ry="2.5" style="stroke:#181818;stroke-width:0.5;" width="156.9971" x="475.41" y="1174.1469"/><rect fill="#F1F1F1" height="10" style="stroke:#181818;stroke-width:0.5;" width="15" x="612.4071" y="1179.1469"/><rect fill="#F1F1F1" height="2" style="stroke:#181818;stroke-width:0.5;" width="4" x="610.4071" y="1181.1469"/><rect fill="#F1F1F1" height="2" style="stroke:#181818;stroke-width:0.5;" width="4" x="610.4071" y="1185.1469"/><text fill="#000000" font-family="sans-serif" font-size="14" lengthAdjust="spacing" textLength="116.9971" x="490.41" y="1207.142">Control de Riego</text></g><!--entity Reportes y Alertas--><g class="entity" data-qualified-name="Sistema Inteligente de Agua.Dashboard Web .React..Reportes y Alertas" data-source-line="41" id="ent0026"><rect fill="#F1F1F1" height="46.2969" rx="2.5" ry="2.5" style="stroke:#181818;stroke-width:0.5;" width="169.3291" x="887.65" y="1255.1469"/><rect fill="#F1F1F1" height="10" style="stroke:#181818;stroke-width:0.5;" width="15" x="1036.9791" y="1260.1469"/><rect fill="#F1F1F1" height="2" style="stroke:#181818;stroke-width:0.5;" width="4" x="1034.9791" y="1262.1469"/><rect fill="#F1F1F1" height="2" style="stroke:#181818;stroke-width:0.5;" width="4" x="1034.9791" y="1266.1469"/><text fill="#000000" font-family="sans-serif" font-size="14" lengthAdjust="spacing" textLength="129.3291" x="902.65" y="1288.142">Reportes y Alertas</text></g><!--entity Historial de Sensores--><g class="entity" data-qualified-name="Sistema Inteligente de Agua.Base de Datos .PostgreSQL..Historial de Sensores" data-source-line="45" id="ent0028"><rect fill="#F1F1F1" height="46.2969" rx="2.5" ry="2.5" style="stroke:#181818;stroke-width:0.5;" width="188.1758" x="1295.21" y="727.1469"/><rect fill="#F1F1F1" height="10" style="stroke:#181818;stroke-width:0.5;" width="15" x="1463.3858" y="732.1469"/><rect fill="#F1F1F1" height="2" style="stroke:#181818;stroke-width:0.5;" width="4" x="1461.3858" y="734.1469"/><rect fill="#F1F1F1" height="2" style="stroke:#181818;stroke-width:0.5;" width="4" x="1461.3858" y="738.1469"/><text fill="#000000" font-family="sans-serif" font-size="14" lengthAdjust="spacing" textLength="148.1758" x="1310.21" y="760.142">Historial de Sensores</text></g><!--entity Modelos ML Guardados--><g class="entity" data-qualified-name="Sistema Inteligente de Agua.Base de Datos .PostgreSQL..Modelos ML Guardados" data-source-line="46" id="ent0029"><rect fill="#F1F1F1" height="46.2969" rx="2.5" ry="2.5" style="stroke:#181818;stroke-width:0.5;" width="202.9414" x="1287.83" y="646.1469"/><rect fill="#F1F1F1" height="10" style="stroke:#181818;stroke-width:0.5;" width="15" x="1470.7714" y="651.1469"/><rect fill="#F1F1F1" height="2" style="stroke:#181818;stroke-width:0.5;" width="4" x="1468.7714" y="653.1469"/><rect fill="#F1F1F1" height="2" style="stroke:#181818;stroke-width:0.5;" width="4" x="1468.7714" y="657.1469"/><text fill="#000000" font-family="sans-serif" font-size="14" lengthAdjust="spacing" textLength="162.9414" x="1302.83" y="679.142">Modelos ML Guardados</text></g><!--entity Usuarios y Logs--><g class="entity" data-qualified-name="Sistema Inteligente de Agua.Base de Datos .PostgreSQL..Usuarios y Logs" data-source-line="47" id="ent0030"><rect fill="#F1F1F1" height="46.2969" rx="2.5" ry="2.5" style="stroke:#181818;stroke-width:0.5;" width="150.2295" x="1598.96" y="727.1469"/><rect fill="#F1F1F1" height="10" style="stroke:#181818;stroke-width:0.5;" width="15" x="1729.1895" y="732.1469"/><rect fill="#F1F1F1" height="2" style="stroke:#181818;stroke-width:0.5;" width="4" x="1727.1895" y="734.1469"/><rect fill="#F1F1F1" height="2" style="stroke:#181818;stroke-width:0.5;" width="4" x="1727.1895" y="738.1469"/><text fill="#000000" font-family="sans-serif" font-size="14" lengthAdjust="spacing" textLength="110.2295" x="1613.96" y="760.142">Usuarios y Logs</text></g><!--entity Gesti?n de Usuarios--><g class="entity" data-qualified-name="Sistema Inteligente de Agua.Administraci.n.Gesti.n de Usuarios" data-source-line="51" id="ent0032"><rect fill="#F1F1F1" height="46.2969" rx="2.5" ry="2.5" style="stroke:#181818;stroke-width:0.5;" width="180.4717" x="882.08" y="219.1469"/><rect fill="#F1F1F1" height="10" style="stroke:#181818;stroke-width:0.5;" width="15" x="1042.5517" y="224.1469"/><rect fill="#F1F1F1" height="2" style="stroke:#181818;stroke-width:0.5;" width="4" x="1040.5517" y="226.1469"/><rect fill="#F1F1F1" height="2" style="stroke:#181818;stroke-width:0.5;" width="4" x="1040.5517" y="230.1469"/><text fill="#000000" font-family="sans-serif" font-size="14" lengthAdjust="spacing" textLength="140.4717" x="897.08" y="252.142">Gesti&#243;n de Usuarios</text></g><!--entity Bit?cora de Eventos--><g class="entity" data-qualified-name="Sistema Inteligente de Agua.Administraci.n.Bit.cora de Eventos" data-source-line="52" id="ent0033"><rect fill="#F1F1F1" height="46.2969" rx="2.5" ry="2.5" style="stroke:#181818;stroke-width:0.5;" width="180.5264" x="882.05" y="138.1469"/><rect fill="#F1F1F1" height="10" style="stroke:#181818;stroke-width:0.5;" width="15" x="1042.5764" y="143.1469"/><rect fill="#F1F1F1" height="2" style="stroke:#181818;stroke-width:0.5;" width="4" x="1040.5764" y="145.1469"/><rect fill="#F1F1F1" height="2" style="stroke:#181818;stroke-width:0.5;" width="4" x="1040.5764" y="149.1469"/><text fill="#000000" font-family="sans-serif" font-size="14" lengthAdjust="spacing" textLength="140.5264" x="897.05" y="171.142">Bit&#225;cora de Eventos</text></g><!--entity Copias de Seguridad--><g class="entity" data-qualified-name="Sistema Inteligente de Agua.Administraci.n.Copias de Seguridad" data-source-line="53" id="ent0034"><rect fill="#F1F1F1" height="46.2969" rx="2.5" ry="2.5" style="stroke:#181818;stroke-width:0.5;" width="184.6484" x="1296.97" y="219.1469"/><rect fill="#F1F1F1" height="10" style="stroke:#181818;stroke-width:0.5;" width="15" x="1461.6184" y="224.1469"/><rect fill="#F1F1F1" height="2" style="stroke:#181818;stroke-width:0.5;" width="4" x="1459.6184" y="226.1469"/><rect fill="#F1F1F1" height="2" style="stroke:#181818;stroke-width:0.5;" width="4" x="1459.6184" y="230.1469"/><text fill="#000000" font-family="sans-serif" font-size="14" lengthAdjust="spacing" textLength="144.6484" x="1311.97" y="252.142">Copias de Seguridad</text></g><!--entity Par?metros de sistema--><g class="entity" data-qualified-name="Sistema Inteligente de Agua.Configuraci.n.Par.metros de sistema" data-source-line="57" id="ent0036"><rect fill="#F1F1F1" height="46.2969" rx="2.5" ry="2.5" style="stroke:#181818;stroke-width:0.5;" width="201.9092" x="1288.34" y="493.1469"/><rect fill="#F1F1F1" height="10" style="stroke:#181818;stroke-width:0.5;" width="15" x="1470.2492" y="498.1469"/><rect fill="#F1F1F1" height="2" style="stroke:#181818;stroke-width:0.5;" width="4" x="1468.2492" y="500.1469"/><rect fill="#F1F1F1" height="2" style="stroke:#181818;stroke-width:0.5;" width="4" x="1468.2492" y="504.1469"/><text fill="#000000" font-family="sans-serif" font-size="14" lengthAdjust="spacing" textLength="161.9092" x="1303.34" y="526.142">Par&#225;metros de sistema</text></g><!--entity Umbrales--><g class="entity" data-qualified-name="Sistema Inteligente de Agua.Configuraci.n.Umbrales" data-source-line="58" id="ent0037"><rect fill="#F1F1F1" height="46.2969" rx="2.5" ry="2.5" style="stroke:#181818;stroke-width:0.5;" width="106.9033" x="1335.85" y="412.1469"/><rect fill="#F1F1F1" height="10" style="stroke:#181818;stroke-width:0.5;" width="15" x="1422.7533" y="417.1469"/><rect fill="#F1F1F1" height="2" style="stroke:#181818;stroke-width:0.5;" width="4" x="1420.7533" y="419.1469"/><rect fill="#F1F1F1" height="2" style="stroke:#181818;stroke-width:0.5;" width="4" x="1420.7533" y="423.1469"/><text fill="#000000" font-family="sans-serif" font-size="14" lengthAdjust="spacing" textLength="66.9033" x="1350.85" y="445.142">Umbrales</text></g><!--link Dashboard Web (React) to Backend (FastAPI)--><g class="link" data-entity-1="ent0023" data-entity-2="ent0019" data-link-type="dependency" data-source-line="63" id="lnk38"><path d="M577.8077,1110.8312 C577.9751,1110.6337 578.1433,1110.4352 578.3123,1110.2359 C578.6502,1109.8374 578.9913,1109.4355 579.3353,1109.0303 C580.0234,1108.2198 580.7236,1107.3961 581.4356,1106.5596 C582.8596,1104.8867 584.3308,1103.1626 585.8467,1101.3912 C591.9102,1094.3056 598.6881,1086.4625 606.0175,1078.1019 C635.335,1044.6594 673.475,1002.9369 710,968.2969 C735.43,944.1769 748.37,945.0669 771,918.2969 C775.63,912.8269 773,908.2069 779,904.2969 C796.7175,892.7494 817.3619,885.6744 838.4195,881.5698 C843.6839,880.5437 848.9742,879.7032 854.251,879.0249 C856.8894,878.6858 859.5244,878.3872 862.1512,878.1262 C862.4795,878.0936 856.8351,878.6342 857.1632,878.6027" fill="none" id="Dashboard Web (React)-to-Backend (FastAPI)" style="stroke:#181818;stroke-width:1;"/><polygon fill="#181818" points="863.1358,878.0301,853.7952,874.9073,858.1587,878.5073,854.5587,882.8708,863.1358,878.0301" style="stroke:#181818;stroke-width:1;"/><text fill="#000000" font-family="sans-serif" font-size="13" lengthAdjust="spacing" textLength="59.0142" x="711" y="914.3638">consume</text></g><!--link Backend (FastAPI) to Interoperabilidad MCP--><g class="link" data-entity-1="ent0019" data-entity-2="ent0011" data-link-type="dependency" data-source-line="64" id="lnk39"><path d="M863.6657,876.82 C863.2473,876.8191 862.8283,876.8184 862.4086,876.8182 C861.5693,876.8176 860.7274,876.8184 859.883,876.8207 C853.128,876.8388 846.2143,876.948 839.1866,877.168 C825.1311,877.6079 810.6194,878.4907 796.0081,879.9723 C766.7856,882.9356 737.165,888.2944 710,897.2969 C553.85,949.0369 511.96,980.4969 402.51,1103.2969 C355.205,1156.3769 318.43,1227.2169 293.2788,1285.4756 C280.7031,1314.605 271.0334,1340.5891 264.4064,1359.6352 C263.9922,1360.8255 263.5899,1361.9888 263.1995,1363.1241 C263.0043,1363.6917 264.7531,1358.5749 264.5639,1359.1284" fill="none" id="Backend (FastAPI)-to-Interoperabilidad MCP" style="stroke:#181818;stroke-width:1;"/><polygon fill="#181818" points="262.6229,1364.8058,269.3193,1357.5837,264.2404,1360.0747,261.7494,1354.9958,262.6229,1364.8058" style="stroke:#181818;stroke-width:1;"/><text fill="#000000" font-family="sans-serif" font-size="13" lengthAdjust="spacing" textLength="22.9785" x="542.91" y="896.3638">usa</text></g><!--link Backend (FastAPI) to Base de Datos (PostgreSQL)--><g class="link" data-entity-1="ent0019" data-entity-2="ent0027" data-link-type="dependency" data-source-line="65" id="lnk40"><path d="M1124.031,857.0584 C1130.1968,855.944 1136.4351,854.8165 1142.7217,853.6803 C1155.2949,851.4078 1168.0613,849.1005 1180.8275,846.7931 C1231.8925,837.5638 1282.9556,828.3347 1321.645,821.3417 C1326.4812,820.4676 1331.124,819.6284 1335.5493,818.8285 C1337.762,818.4286 1339.9203,818.0385 1342.0212,817.6587 C1342.5464,817.5638 1337.1637,818.5367 1337.6817,818.4431" fill="none" id="Backend (FastAPI)-to-Base de Datos (PostgreSQL)" style="stroke:#181818;stroke-width:1;"/><polygon fill="#181818" points="1343.586,817.3759,1334.0181,815.0405,1338.6658,818.2652,1335.441,822.9129,1343.586,817.3759" style="stroke:#181818;stroke-width:1;"/><text fill="#000000" font-family="sans-serif" font-size="13" lengthAdjust="spacing" textLength="51.8477" x="1166.64" y="836.3638">persiste</text></g><!--link Backend (FastAPI) to Modelos ML--><g class="link" data-entity-1="ent0019" data-entity-2="ent0015" data-link-type="dependency" data-source-line="66" id="lnk41"><path d="M863.8536,872.2446 C863.5287,872.2682 863.2037,872.2925 862.8787,872.3175 C862.2287,872.3675 861.5785,872.4204 860.9283,872.4761 C859.6277,872.5876 858.3268,872.7107 857.0263,872.8457 C854.4253,873.1159 851.8256,873.4341 849.2328,873.8043 C844.0473,874.5447 838.8893,875.4927 833.8027,876.6789 C813.4563,881.4237 794.2525,889.9794 779,904.2969 C743.35,937.7669 764.86,964.0669 760.8,1012.7969 C749.55,1147.9069 698.91,1207.9069 779,1317.2969 C792.185,1335.3069 810.3225,1348.9925 830.2403,1359.392 C832.73,1360.692 835.2476,1361.9406 837.7867,1363.1398 C839.0563,1363.7395 834.8588,1361.8667 836.1385,1362.442" fill="none" id="Backend (FastAPI)-to-Modelos ML" style="stroke:#181818;stroke-width:1;"/><polygon fill="#181818" points="841.6109,1364.902,835.0423,1357.5636,837.0505,1362.852,831.7622,1364.8602,841.6109,1364.902" style="stroke:#181818;stroke-width:1;"/><text fill="#000000" font-family="sans-serif" font-size="13" lengthAdjust="spacing" textLength="48.0581" x="716.5" y="1025.8638">ejecuta</text></g><!--link Interoperabilidad MCP to Estaci?n IoT--><g class="link" data-entity-1="ent0011" data-entity-2="ent0007" data-link-type="dependency" data-source-line="67" id="lnk42"><path d="M127.0472,1386.5302 C126.7653,1386.5998 126.4837,1386.6703 126.2023,1386.7416 C108.1956,1391.3031 91.3075,1399.2619 78,1412.2969 C51.07,1438.6669 46.92,1536.0769 52.46,1617.7969 C58.15,1701.7069 17.89,1746.4669 78,1805.2969 C104.625,1831.3569 145.5625,1837.1219 181.1237,1836.0169 C190.0141,1835.7406 198.5684,1835.035 206.479,1834.1098 C208.4567,1833.8785 204.448,1834.4362 206.3404,1834.1807" fill="none" id="Interoperabilidad MCP-to-Estaci&#243;n IoT" style="stroke:#181818;stroke-width:1;"/><polygon fill="#181818" points="212.2865,1833.3779,202.8322,1830.618,207.3314,1834.0469,203.9026,1838.5461,212.2865,1833.3779" style="stroke:#181818;stroke-width:1;"/><text fill="#000000" font-family="sans-serif" font-size="13" lengthAdjust="spacing" textLength="62.9688" x="7" y="1613.8638">comunica</text></g><!--link Estaci?n IoT to Captaci?n de Niebla--><g class="link" data-entity-1="ent0007" data-entity-2="ent0003" data-link-type="dependency" data-source-line="68" id="lnk43"><path d="M252.75,1833.547 C252.75,1833.6313 252.75,1833.7161 252.75,1833.8015 C252.75,1834.1428 252.75,1834.4923 252.75,1834.8497 C252.75,1836.2791 252.75,1837.8338 252.75,1839.4888 C252.75,1846.1088 252.75,1854.3344 252.75,1862.5744 C252.75,1864.6344 252.75,1866.6953 252.75,1868.7322 C252.75,1869.7507 252.75,1870.7631 252.75,1871.7665 C252.75,1872.2682 252.75,1866.7676 252.75,1867.2644" fill="none" id="Estaci&#243;n IoT-to-Captaci&#243;n de Niebla" style="stroke:#181818;stroke-width:1;"/><polygon fill="#181818" points="252.75,1873.2644,256.75,1864.2644,252.75,1868.2644,248.75,1864.2644,252.75,1873.2644" style="stroke:#181818;stroke-width:1;"/><text fill="#000000" font-family="sans-serif" font-size="13" lengthAdjust="spacing" textLength="66.8281" x="208.25" y="1867.3638">monitorea</text></g><!--link Modelos ML to Base de Datos (PostgreSQL)--><g class="link" data-entity-1="ent0015" data-entity-2="ent0027" data-link-type="dependency" data-source-line="69" id="lnk44"><path d="M1058.818,1365.1169 C1059.3386,1364.8746 1059.8594,1364.6303 1060.3802,1364.3842 C1061.4218,1363.8919 1062.4637,1363.3919 1063.5052,1362.8843 C1065.5884,1361.869 1067.6702,1360.8229 1069.7462,1359.7453 C1073.8982,1357.5901 1078.0266,1355.3089 1082.0945,1352.8964 C1098.3663,1343.2463 1113.67,1331.4944 1125.64,1317.2969 C1249.02,1170.9469 1134.76,1058.7569 1247.83,904.2969 C1269.74,874.3669 1304.11,850.8844 1333.3675,834.7544 C1340.6819,830.7219 1347.6767,827.1489 1354.0775,824.0496 C1357.2778,822.5 1360.3297,821.0687 1363.1987,819.7577 C1364.6332,819.1022 1366.022,818.4767 1367.3608,817.8815 C1367.6954,817.7327 1362.5384,820.0096 1362.8668,819.8646" fill="none" id="Modelos ML-to-Base de Datos (PostgreSQL)" style="stroke:#181818;stroke-width:1;"/><polygon fill="#181818" points="1368.3554,817.4408,1358.5066,817.4174,1363.7815,819.4606,1361.7383,824.7356,1368.3554,817.4408" style="stroke:#181818;stroke-width:1;"/><text fill="#000000" font-family="sans-serif" font-size="13" lengthAdjust="spacing" textLength="71.1128" x="1156.64" y="937.3638">lee/escribe</text></g><!--link Administraci?n to Base de Datos (PostgreSQL)--><g class="link" data-entity-1="ent0031" data-entity-2="ent0027" data-link-type="dependency" data-source-line="70" id="lnk45"><path d="M975.1689,309.8799 C975.2731,310.3441 975.3819,310.8262 975.4953,311.3257 C975.9487,313.3239 976.4751,315.6025 977.0764,318.1448 C979.4818,328.3141 983.0863,342.7041 988.0183,360.257 C997.8822,395.3628 1013.0556,443.12 1034.5638,495.0656 C1077.58,598.9569 1145.935,719.6019 1247.83,789.2969 C1251.0319,791.4875 1254.3714,793.4843 1257.8196,795.3028 C1259.5438,796.2121 1261.295,797.0768 1263.0698,797.8989 C1263.2916,798.0016 1258.0541,795.6156 1258.2766,795.717" fill="none" id="Administraci&#243;n-to-Base de Datos (PostgreSQL)" style="stroke:#181818;stroke-width:1;"/><polygon fill="#181818" points="1263.7364,798.2051,1257.2055,790.8331,1259.1866,796.1317,1253.888,798.1129,1263.7364,798.2051" style="stroke:#181818;stroke-width:1;"/><text fill="#000000" font-family="sans-serif" font-size="13" lengthAdjust="spacing" textLength="55.8911" x="1164.64" y="704.3638">gestiona</text></g><!--link Administraci?n to Configuraci?n--><g class="link" data-entity-1="ent0031" data-entity-2="ent0035" data-link-type="dependency" data-source-line="71" id="lnk46"><path d="M1018.0527,309.3807 C1018.5708,309.4743 1019.0926,309.5686 1019.618,309.6636 C1021.7194,310.0434 1023.8782,310.4336 1026.0914,310.8337 C1030.5178,311.6337 1035.1616,312.4731 1039.9988,313.3473 C1078.6956,320.3416 1129.7625,329.5712 1180.8275,338.8006 C1206.36,343.4153 1231.892,348.0299 1255.8771,352.365 C1257.3762,352.6359 1258.8692,352.9058 1260.3558,353.1745 C1261.0991,353.3088 1261.8408,353.4429 1262.5808,353.5766 C1262.9509,353.6435 1257.4161,352.6431 1257.7853,352.7099" fill="none" id="Administraci&#243;n-to-Configuraci&#243;n" style="stroke:#181818;stroke-width:1;"/><polygon fill="#181818" points="1263.6897,353.777,1255.5446,348.2401,1258.7694,352.8877,1254.1217,356.1125,1263.6897,353.777" style="stroke:#181818;stroke-width:1;"/><text fill="#000000" font-family="sans-serif" font-size="13" lengthAdjust="spacing" textLength="40.6758" x="1172.14" y="331.3638">define</text></g><!--link Configuraci?n to Backend (FastAPI)--><g class="link" data-entity-1="ent0035" data-entity-2="ent0019" data-link-type="dependency" data-source-line="72" id="lnk47"><path d="M1263.7364,387.3886 C1263.5139,387.49 1263.2916,387.5921 1263.0698,387.6949 C1261.295,388.517 1259.5438,389.3817 1257.8196,390.2909 C1254.3714,392.1095 1251.0319,394.1063 1247.83,396.2969 C1145.935,465.9919 1077.58,586.6369 1034.5638,690.5281 C1013.0556,742.4738 997.8822,790.2309 988.0183,825.3367 C985.5523,834.1132 983.4182,842.0989 981.5999,849.1617 C981.1453,850.9274 980.7105,852.6354 980.2951,854.2837 C980.0874,855.1078 981.3361,850.0952 981.1382,850.8892" fill="none" id="Configuraci&#243;n-to-Backend (FastAPI)" style="stroke:#181818;stroke-width:1;"/><polygon fill="#181818" points="979.6867,856.711,985.7451,848.946,980.8963,851.8595,977.9827,847.0106,979.6867,856.711" style="stroke:#181818;stroke-width:1;"/><text fill="#000000" font-family="sans-serif" font-size="13" lengthAdjust="spacing" textLength="38.5557" x="1173.14" y="410.3638">aplica</text></g><?plantuml-src ZLHBRXD14DtFAKhUO4j4G28Xn2AIuvWGoOwC7S82PL6UgKoAz7GFtJsH074AJf03iCeHV36gspFZu9_YHHnFrNklFg_6irS4fuovnG8X8vZWzueyEJY06JjFylHSUrASato5Z7vUOPAuEzOb2WfAJEymfvd_8LIMKeywLvGekl7W3LZERpra729iT9BK-T3Pmz-1Nqa2qAOEiFIOyk9HXumBfhcAEI2VhrFAXScQ2FOMIzGnmLqlusEZsHjBCM60LOQgYQ1eQYvOj6DqZAh6_VvFV-WQ-NDpsGhFI3jZuMGyVFlkTKsvv5_yBKWgQfuP7Pg_vmmp6CucHuUR2c48rfHaSSug9eu7aoTALj2Y9GyRKiLnOl84kijAoFMs1K_HtSuDsgotAJis6IdZO3ngjSQZDxByYQMCqsNFLqPL1UdW4yjDK-FHeQGD5WyghLGStfGfDx3uKtek37I7MKwzDlae6gger6gDGvUI3enR1duY_v3EeFi1dUzFpdjjUV83fiFPPSqyMZpcd4RhNeXysjONHoO_urf7cmhjLE0BpQ4x9KpzIkMANOMAVzRLNZ8LfG59KgkToe9Ls_TruyNIs70-Fw2lo7hSsfkBHZz5BvFlJeppkQNPfz5A_gCOsbZ6oDyijxLpip8ugwH-p4mJ-Yn5XtcA-iZaMwJxMS4w7CkohrRlZ9nlrjAGr9mdx1SFgR5nnCFxS2ckdK79w9ObvfKDhjsKb47Ti4JN52Te5m_nI2A1MxuBcZwAkKL5TGF2zq967vmZX-H0Yh5oyfb8Tok7EZDmS0pov-3ufH1fAAjG970ugK9iR5mlsRLl0Mrrstlef4OxyNqdsHQFk1r7ArYfQmzkdmC4B8Hn7diOdjwj8EWRfPKFaZjAYg2rjrXiiQYqd8y0ru8HiFsrAxYYVgK6uDDIdjET8df5BhKy3mrkEF8v57cmgz6u4xzkEi5aTCCwAAx7zZW0InM6ymy0?></g></svg>