<svg xmlns="http://www.w3.org/2000/svg" xmlns:xlink="http://www.w3.org/1999/xlink" contentStyleType="text/css" data-diagram-type="DESCRIPTION" height="261px" preserveAspectRatio="none" style="width:1023px;height:261px;background:#FFFFFF;" version="1.1" viewBox="0 0 1023 261" width="1023px" zoomAndPan="magnify"><?plantuml 1.2026.3beta6?><defs/><g><g class="title" data-source-line="1"><text fill="#000000" font-family="sans-serif" font-size="14" font-weight="700" lengthAdjust="spacing" textLength="213.582" x="401.209" y="22.9951">Estaci&#243;n Meteorol&#243;gica IoT</text></g><!--cluster Estaci?n IoT--><g class="cluster" data-qualified-name="Estaci.n IoT" data-source-line="6" id="ent0004"><rect fill="none" height="103.49" rx="2.5" ry="2.5" style="stroke:#181818;stroke-width:1;" width="1002" x="7" y="144.0969"/><text fill="#000000" font-family="sans-serif" font-size="14" font-weight="700" lengthAdjust="spacing" textLength="95.9697" x="460.0151" y="159.092">Estaci&#243;n IoT</text></g><!--entity UC1--><g class="entity" data-qualified-name="Estaci.n IoT.UC1" data-source-line="7" id="ent0005"><ellipse cx="901.9961" cy="205.3501" fill="#F1F1F1" rx="91.3161" ry="20.6632" style="stroke:#181818;stroke-width:0.5;"/><text fill="#000000" font-family="sans-serif" font-size="14" lengthAdjust="spacing" textLength="156.7139" x="823.6392" y="209.9985">Registrar temperatura</text></g><!--entity UC2--><g class="entity" data-qualified-name="Estaci.n IoT.UC2" data-source-line="8" id="ent0006"><ellipse cx="411.002" cy="205.3473" fill="#F1F1F1" rx="114.602" ry="25.3204" style="stroke:#181818;stroke-width:0.5;"/><text fill="#000000" font-family="sans-serif" font-size="14" lengthAdjust="spacing" textLength="207.7988" x="307.1026" y="209.9957">Registrar presi&#243;n atmosf&#233;rica</text></g><!--entity UC3--><g class="entity" data-qualified-name="Estaci.n IoT.UC3" data-source-line="9" id="ent0007"><ellipse cx="667.9961" cy="205.3441" fill="#F1F1F1" rx="107.4361" ry="23.8872" style="stroke:#181818;stroke-width:0.5;"/><text fill="#000000" font-family="sans-serif" font-size="14" lengthAdjust="spacing" textLength="192.3223" x="571.8349" y="209.9925">Registrar humedad relativa</text></g><!--entity UC4--><g class="entity" data-qualified-name="Estaci.n IoT.UC4" data-source-line="10" id="ent0008"><ellipse cx="142.0037" cy="205.3516" fill="#F1F1F1" rx="119.2237" ry="26.2447" style="stroke:#181818;stroke-width:0.5;"/><text fill="#000000" font-family="sans-serif" font-size="14" lengthAdjust="spacing" textLength="217.6973" x="33.1551" y="210.0001">Visualizar datos en tiempo real</text></g><!--entity tecnico--><g class="entity" data-qualified-name="tecnico" data-source-line="3" id="ent0002"><ellipse cx="141.9954" cy="51.2969" fill="#F1F1F1" rx="8" ry="8" style="stroke:#181818;stroke-width:0.5;"/><path d="M141.9954,59.2969 L141.9954,86.2969 M128.9954,67.2969 L154.9954,67.2969 M141.9954,86.2969 L128.9954,101.2969 M141.9954,86.2969 L154.9954,101.2969" fill="none" style="stroke:#181818;stroke-width:0.5;"/><text fill="#000000" font-family="sans-serif" font-size="14" lengthAdjust="spacing" textLength="119.9707" x="82.01" y="115.792">T&#233;cnico de Riego</text></g><!--entity sensor--><g class="entity" data-qualified-name="sensor" data-source-line="4" id="ent0003"><ellipse cx="667.9955" cy="51.2969" fill="#F1F1F1" rx="8" ry="8" style="stroke:#181818;stroke-width:0.5;"/><path d="M667.9955,59.2969 L667.9955,86.2969 M654.9955,67.2969 L680.9955,67.2969 M667.9955,86.2969 L654.9955,101.2969 M667.9955,86.2969 L680.9955,101.2969" fill="none" style="stroke:#181818;stroke-width:0.5;"/><text fill="#000000" font-family="sans-serif" font-size="14" lengthAdjust="spacing" textLength="154.7109" x="590.64" y="115.792">Sistema IoT (BME680)</text></g><!--link sensor to UC1--><g class="link" data-entity-1="ent0003" data-entity-2="ent0005" data-link-type="dependency" data-source-line="13" id="lnk9"><path d="M745.54,113.3769 C761.45,120.4269 777.93,128.1769 793,136.0969 C821.65,151.1669 847.8277,167.7287 869.4577,182.1487" fill="none" id="sensor-to-UC1" style="stroke:#181818;stroke-width:1;"/><polygon fill="#181818" points="874.45,185.4769,869.1803,177.1564,870.2897,182.7034,864.7427,183.8128,874.45,185.4769" style="stroke:#181818;stroke-width:1;"/></g><!--link sensor to UC2--><g class="link" data-entity-1="ent0003" data-entity-2="ent0006" data-link-type="dependency" data-source-line="14" id="lnk10"><path d="M590.28,114.6369 C574.54,121.5269 558.17,128.8969 543,136.0969 C512.7,150.4769 484.4315,165.0373 458.7315,178.6573" fill="none" id="sensor-to-UC2" style="stroke:#181818;stroke-width:1;"/><polygon fill="#181818" points="453.43,181.4669,463.2554,180.7868,457.8479,179.1255,459.5092,173.7181,453.43,181.4669" style="stroke:#181818;stroke-width:1;"/></g><!--link sensor to UC3--><g class="link" data-entity-1="ent0003" data-entity-2="ent0007" data-link-type="dependency" data-source-line="15" id="lnk11"><path d="M668,119.3369 C668,139.4369 668,157.6069 668,175.0269" fill="none" id="sensor-to-UC3" style="stroke:#181818;stroke-width:1;"/><polygon fill="#181818" points="668,181.0269,672,172.0269,668,176.0269,664,172.0269,668,181.0269" style="stroke:#181818;stroke-width:1;"/></g><!--link tecnico to UC4--><g class="link" data-entity-1="ent0002" data-entity-2="ent0008" data-link-type="dependency" data-source-line="16" id="lnk12"><path d="M142,119.3369 C142,138.5969 142,155.5869 142,172.7969" fill="none" id="tecnico-to-UC4" style="stroke:#181818;stroke-width:1;"/><polygon fill="#181818" points="142,178.7969,146,169.7969,142,173.7969,138,169.7969,142,178.7969" style="stroke:#181818;stroke-width:1;"/></g><?plantuml-src RP0nJWD134NxEOMr5HIH88aG5GLH2eeq8T1RisQnD3kER2y5Y0EbpX7sOeo6ZI1IoZ_p_l-sdJqHhCqnydZCi24dKKdZiUE8y2Ix432wA3IxyH0pHu6MOClKIGDeu5GVJz0pcrDVZN3rk5dVtTzSLyuecsW8Ij4nTwMq-MijT0DV0M0mYcZbRqjTILBKKj3lIT47nHhqihgz3EwLhAQXzs9luq7B1fDbVjdoFlJKOWjA2Pq_JlJYF_tADc3YpuAtw6906PpBK59ic2RBCdo7yBiZp6OFTSepEJ-NYp0TRjBB7m00?></g></svg>