<svg xmlns="http://www.w3.org/2000/svg" xmlns:xlink="http://www.w3.org/1999/xlink" contentStyleType="text/css" data-diagram-type="DESCRIPTION" height="322px" preserveAspectRatio="none" style="width:2212px;height:322px;background:#FFFFFF;" version="1.1" viewBox="0 0 2212 322" width="2212px" zoomAndPan="magnify"><?plantuml 1.2026.3beta6?><defs/><g><g class="title" data-source-line="1"><text fill="#000000" font-family="sans-serif" font-size="14" font-weight="700" lengthAdjust="spacing" textLength="428.9277" x="888.0361" y="22.9951">Sistema Inteligente de Agua - Casos de Uso Generales</text></g><!--cluster Sistema Inteligente de Agua--><g class="cluster" data-qualified-name="Sistema Inteligente de Agua" data-source-line="9" id="ent0007"><rect fill="none" height="173.32" rx="2.5" ry="2.5" style="stroke:#181818;stroke-width:1;" width="2191" x="7" y="135.0869"/><text fill="#000000" font-family="sans-serif" font-size="14" font-weight="700" lengthAdjust="spacing" textLength="224.4785" x="990.2607" y="150.082">Sistema Inteligente de Agua</text></g><!--cluster Captaci?n de Niebla--><g class="cluster" data-qualified-name="Sistema Inteligente de Agua.Captaci.n de Niebla" data-source-line="10" id="ent0008"><rect fill="none" height="85.5" rx="2.5" ry="2.5" style="stroke:#181818;stroke-width:1;" width="362" x="1128" y="188.4969"/><text fill="#000000" font-family="sans-serif" font-size="14" font-weight="700" lengthAdjust="spacing" textLength="158.1084" x="1229.9458" y="203.492">Captaci&#243;n de Niebla</text></g><!--cluster Estaci?n IoT--><g class="cluster" data-qualified-name="Sistema Inteligente de Agua.Estaci.n IoT" data-source-line="14" id="ent0011"><rect fill="none" height="106.32" rx="2.5" ry="2.5" style="stroke:#181818;stroke-width:1;" width="284" x="1890" y="178.0869"/><text fill="#000000" font-family="sans-serif" font-size="14" font-weight="700" lengthAdjust="spacing" textLength="95.9697" x="1984.0151" y="193.082">Estaci&#243;n IoT</text></g><!--cluster Modelos ML--><g class="cluster" data-qualified-name="Sistema Inteligente de Agua.Modelos ML" data-source-line="17" id="ent0013"><rect fill="none" height="96.66" rx="2.5" ry="2.5" style="stroke:#181818;stroke-width:1;" width="699" x="405" y="182.9169"/><text fill="#000000" font-family="sans-serif" font-size="14" font-weight="700" lengthAdjust="spacing" textLength="93.543" x="707.7285" y="197.912">Modelos ML</text></g><!--cluster Dashboard--><g class="cluster" data-qualified-name="Sistema Inteligente de Agua.Dashboard" data-source-line="22" id="ent0017"><rect fill="none" height="84.53" rx="2.5" ry="2.5" style="stroke:#181818;stroke-width:1;" width="350" x="31" y="188.9869"/><text fill="#000000" font-family="sans-serif" font-size="14" font-weight="700" lengthAdjust="spacing" textLength="85.3809" x="163.3096" y="203.982">Dashboard</text></g><!--cluster Administraci?n--><g class="cluster" data-qualified-name="Sistema Inteligente de Agua.Administraci.n" data-source-line="26" id="ent0020"><rect fill="none" height="87.94" rx="2.5" ry="2.5" style="stroke:#181818;stroke-width:1;" width="352" x="1514" y="187.2769"/><text fill="#000000" font-family="sans-serif" font-size="14" font-weight="700" lengthAdjust="spacing" textLength="119.0684" x="1630.4658" y="202.272">Administraci&#243;n</text></g><!--entity UC1--><g class="entity" data-qualified-name="Sistema Inteligente de Agua.Captaci.n de Niebla.UC1" data-source-line="11" id="ent0009"><ellipse cx="1400.9992" cy="240.7467" fill="#F1F1F1" rx="73.4492" ry="17.0898" style="stroke:#181818;stroke-width:0.5;"/><text fill="#000000" font-family="sans-serif" font-size="14" lengthAdjust="spacing" textLength="114.9463" x="1343.526" y="245.3952">Registrar caudal</text></g><!--entity UC2--><g class="entity" data-qualified-name="Sistema Inteligente de Agua.Captaci.n de Niebla.UC2" data-source-line="12" id="ent0010"><ellipse cx="1218.0017" cy="240.7472" fill="#F1F1F1" rx="74.2517" ry="17.2503" style="stroke:#181818;stroke-width:0.5;"/><text fill="#000000" font-family="sans-serif" font-size="14" lengthAdjust="spacing" textLength="116.9082" x="1159.5476" y="245.3957">Configurar malla</text></g><!--entity UC3--><g class="entity" data-qualified-name="Sistema Inteligente de Agua.Estaci.n IoT.UC3" data-source-line="15" id="ent0012"><ellipse cx="2032.001" cy="240.7451" fill="#F1F1F1" rx="126.291" ry="27.6582" style="stroke:#181818;stroke-width:0.5;"/><text fill="#000000" font-family="sans-serif" font-size="14" lengthAdjust="spacing" textLength="232.7295" x="1915.6363" y="245.3935">Registrar temp/presi&#243;n/humedad</text></g><!--entity UC4--><g class="entity" data-qualified-name="Sistema Inteligente de Agua.Modelos ML.UC4" data-source-line="18" id="ent0014"><ellipse cx="517.0004" cy="240.749" fill="#F1F1F1" rx="95.9104" ry="21.5821" style="stroke:#181818;stroke-width:0.5;"/><text fill="#000000" font-family="sans-serif" font-size="14" lengthAdjust="spacing" textLength="167.002" x="433.4994" y="245.3974">Predecir volumen (ML1)</text></g><!--entity UC5--><g class="entity" data-qualified-name="Sistema Inteligente de Agua.Modelos ML.UC5" data-source-line="19" id="ent0015"><ellipse cx="986.0017" cy="240.7492" fill="#F1F1F1" rx="102.1617" ry="22.8323" style="stroke:#181818;stroke-width:0.5;"/><text fill="#000000" font-family="sans-serif" font-size="14" lengthAdjust="spacing" textLength="180.8105" x="895.5964" y="245.3976">Calcular riego edge (ML2)</text></g><!--entity UC6--><g class="entity" data-qualified-name="Sistema Inteligente de Agua.Modelos ML.UC6" data-source-line="20" id="ent0016"><ellipse cx="748.0027" cy="240.7494" fill="#F1F1F1" rx="100.5627" ry="22.5125" style="stroke:#181818;stroke-width:0.5;"/><text fill="#000000" font-family="sans-serif" font-size="14" lengthAdjust="spacing" textLength="177.2969" x="659.3542" y="245.3978">Simular escenarios (ML3)</text></g><!--entity UC7--><g class="entity" data-qualified-name="Sistema Inteligente de Agua.Dashboard.UC7" data-source-line="23" id="ent0018"><ellipse cx="119.0049" cy="240.7519" fill="#F1F1F1" rx="71.8249" ry="16.765" style="stroke:#181818;stroke-width:0.5;"/><text fill="#000000" font-family="sans-serif" font-size="14" lengthAdjust="spacing" textLength="110.9404" x="63.5347" y="245.4003">Visualizar datos</text></g><!--entity UC8--><g class="entity" data-qualified-name="Sistema Inteligente de Agua.Dashboard.UC8" data-source-line="24" id="ent0019"><ellipse cx="294.9964" cy="240.7502" fill="#F1F1F1" rx="69.6164" ry="16.3233" style="stroke:#181818;stroke-width:0.5;"/><text fill="#000000" font-family="sans-serif" font-size="14" lengthAdjust="spacing" textLength="105.4102" x="242.2914" y="245.3986">Controlar riego</text></g><!--entity UC9--><g class="entity" data-qualified-name="Sistema Inteligente de Agua.Administraci.n.UC9" data-source-line="27" id="ent0021"><ellipse cx="1610.0023" cy="240.7453" fill="#F1F1F1" rx="80.3423" ry="18.4685" style="stroke:#181818;stroke-width:0.5;"/><text fill="#000000" font-family="sans-serif" font-size="14" lengthAdjust="spacing" textLength="131.4824" x="1544.2611" y="245.3938">Gestionar usuarios</text></g><!--entity UC10--><g class="entity" data-qualified-name="Sistema Inteligente de Agua.Administraci.n.UC10" data-source-line="28" id="ent0022"><ellipse cx="1787.9977" cy="240.7424" fill="#F1F1F1" rx="62.1777" ry="14.8355" style="stroke:#181818;stroke-width:0.5;"/><text fill="#000000" font-family="sans-serif" font-size="14" lengthAdjust="spacing" textLength="85.8389" x="1745.0783" y="245.3909">Ver bit&#225;cora</text></g><!--entity tecnico--><g class="entity" data-qualified-name="tecnico" data-source-line="3" id="ent0002"><ellipse cx="516.9954" cy="51.2969" fill="#F1F1F1" rx="8" ry="8" style="stroke:#181818;stroke-width:0.5;"/><path d="M516.9954,59.2969 L516.9954,86.2969 M503.9954,67.2969 L529.9954,67.2969 M516.9954,86.2969 L503.9954,101.2969 M516.9954,86.2969 L529.9954,101.2969" fill="none" style="stroke:#181818;stroke-width:0.5;"/><text fill="#000000" font-family="sans-serif" font-size="14" lengthAdjust="spacing" textLength="119.9707" x="457.01" y="115.792">T&#233;cnico de Riego</text></g><!--entity estudiante--><g class="entity" data-qualified-name="estudiante" data-source-line="4" id="ent0003"><ellipse cx="236.0008" cy="51.2969" fill="#F1F1F1" rx="8" ry="8" style="stroke:#181818;stroke-width:0.5;"/><path d="M236.0008,59.2969 L236.0008,86.2969 M223.0008,67.2969 L249.0008,67.2969 M236.0008,86.2969 L223.0008,101.2969 M236.0008,86.2969 L249.0008,101.2969" fill="none" style="stroke:#181818;stroke-width:0.5;"/><text fill="#000000" font-family="sans-serif" font-size="14" lengthAdjust="spacing" textLength="138.1816" x="166.91" y="115.792">Estudiante/Docente</text></g><!--entity admin--><g class="entity" data-qualified-name="admin" data-source-line="5" id="ent0004"><ellipse cx="1699" cy="51.2969" fill="#F1F1F1" rx="8" ry="8" style="stroke:#181818;stroke-width:0.5;"/><path d="M1699,59.2969 L1699,86.2969 M1686,67.2969 L1712,67.2969 M1699,86.2969 L1686,101.2969 M1699,86.2969 L1712,101.2969" fill="none" style="stroke:#181818;stroke-width:0.5;"/><text fill="#000000" font-family="sans-serif" font-size="14" lengthAdjust="spacing" textLength="99.0801" x="1649.46" y="115.792">Administrador</text></g><!--entity sensor--><g class="entity" data-qualified-name="sensor" data-source-line="6" id="ent0005"><ellipse cx="1489.0023" cy="51.2969" fill="#F1F1F1" rx="8" ry="8" style="stroke:#181818;stroke-width:0.5;"/><path d="M1489.0023,59.2969 L1489.0023,86.2969 M1476.0023,67.2969 L1502.0023,67.2969 M1489.0023,86.2969 L1476.0023,101.2969 M1489.0023,86.2969 L1502.0023,101.2969" fill="none" style="stroke:#181818;stroke-width:0.5;"/><text fill="#000000" font-family="sans-serif" font-size="14" lengthAdjust="spacing" textLength="73.6846" x="1452.16" y="115.792">Sensor IoT</text></g><!--entity mcp--><g class="entity" data-qualified-name="mcp" data-source-line="7" id="ent0006"><ellipse cx="985.9984" cy="51.2969" fill="#F1F1F1" rx="8" ry="8" style="stroke:#181818;stroke-width:0.5;"/><path d="M985.9984,59.2969 L985.9984,86.2969 M972.9984,67.2969 L998.9984,67.2969 M985.9984,86.2969 L972.9984,101.2969 M985.9984,86.2969 L998.9984,101.2969" fill="none" style="stroke:#181818;stroke-width:0.5;"/><text fill="#000000" font-family="sans-serif" font-size="14" lengthAdjust="spacing" textLength="91.1367" x="940.43" y="115.792">Sistema MCP</text></g><!--link sensor to UC1--><g class="link" data-entity-1="ent0005" data-entity-2="ent0009" data-link-type="dependency" data-source-line="32" id="lnk23"><path d="M1468.15,119.3369 C1449.75,152.3369 1426.7233,193.6272 1413.0933,218.0572" fill="none" id="sensor-to-UC1" style="stroke:#181818;stroke-width:1;"/><polygon fill="#181818" points="1410.17,223.2969,1418.0481,217.3862,1412.6061,218.9305,1411.0619,213.4885,1410.17,223.2969" style="stroke:#181818;stroke-width:1;"/></g><!--link sensor to UC3--><g class="link" data-entity-1="ent0005" data-entity-2="ent0012" data-link-type="dependency" data-source-line="33" id="lnk24"><path d="M1526.17,94.0069 C1554.77,102.6969 1595.45,113.7869 1632,119.0869 C1683.49,126.5669 1816.53,110.9569 1866,127.0869 C1920.31,144.7969 1968.6634,182.0844 1999.6334,209.4444" fill="none" id="sensor-to-UC3" style="stroke:#181818;stroke-width:1;"/><polygon fill="#181818" points="2004.13,213.4169,2000.0334,204.4604,2000.3828,210.1065,1994.7368,210.4559,2004.13,213.4169" style="stroke:#181818;stroke-width:1;"/></g><!--link tecnico to UC2--><g class="link" data-entity-1="ent0002" data-entity-2="ent0010" data-link-type="dependency" data-source-line="34" id="lnk25"><path d="M577.46,88.3669 C656.72,96.5869 800.12,110.7569 923,119.0869 C943.08,120.4569 1085.55,119.0369 1104,127.0869 C1151.17,147.6969 1186.3148,192.4031 1204.0548,218.3631" fill="none" id="tecnico-to-UC2" style="stroke:#181818;stroke-width:1;"/><polygon fill="#181818" points="1207.44,223.3169,1205.6647,213.6293,1204.619,219.1887,1199.0596,218.143,1207.44,223.3169" style="stroke:#181818;stroke-width:1;"/></g><!--link tecnico to UC4--><g class="link" data-entity-1="ent0002" data-entity-2="ent0014" data-link-type="dependency" data-source-line="35" id="lnk26"><path d="M517,119.3369 C517,150.5069 517,187.7669 517,213.0469" fill="none" id="tecnico-to-UC4" style="stroke:#181818;stroke-width:1;"/><polygon fill="#181818" points="517,219.0469,521,210.0469,517,214.0469,513,210.0469,517,219.0469" style="stroke:#181818;stroke-width:1;"/></g><!--link tecnico to UC6--><g class="link" data-entity-1="ent0002" data-entity-2="ent0016" data-link-type="dependency" data-source-line="36" id="lnk27"><path d="M577.45,101.1969 C595.08,108.0869 613.92,116.7569 630,127.0869 C670.27,152.9669 704.8621,189.25 726.3921,214" fill="none" id="tecnico-to-UC6" style="stroke:#181818;stroke-width:1;"/><polygon fill="#181818" points="730.33,218.5269,727.441,209.1113,727.0484,214.7545,721.4052,214.3618,730.33,218.5269" style="stroke:#181818;stroke-width:1;"/></g><!--link tecnico to UC7--><g class="link" data-entity-1="ent0002" data-entity-2="ent0018" data-link-type="dependency" data-source-line="37" id="lnk28"><path d="M456.57,95.4469 C418.44,103.4869 368.06,113.2269 323,119.0869 C297.6,122.3969 230.65,115.1269 208,127.0869 C167,148.7369 141.2325,193.0052 128.7625,218.5452" fill="none" id="tecnico-to-UC7" style="stroke:#181818;stroke-width:1;"/><polygon fill="#181818" points="126.13,223.9369,133.6732,217.6044,128.3237,219.4438,126.4843,214.0944,126.13,223.9369" style="stroke:#181818;stroke-width:1;"/></g><!--link tecnico to UC8--><g class="link" data-entity-1="ent0002" data-entity-2="ent0019" data-link-type="dependency" data-source-line="38" id="lnk29"><path d="M456.57,101.0269 C439.17,107.8869 420.68,116.5869 405,127.0869 C363.44,154.9369 328.7771,195.8034 310.2771,219.5534" fill="none" id="tecnico-to-UC8" style="stroke:#181818;stroke-width:1;"/><polygon fill="#181818" points="306.59,224.2869,315.2763,219.6448,309.6626,220.3424,308.965,214.7287,306.59,224.2869" style="stroke:#181818;stroke-width:1;"/></g><!--link mcp to UC5--><g class="link" data-entity-1="ent0006" data-entity-2="ent0015" data-link-type="dependency" data-source-line="39" id="lnk30"><path d="M986,119.3369 C986,149.9669 986,186.2469 986,211.7069" fill="none" id="mcp-to-UC5" style="stroke:#181818;stroke-width:1;"/><polygon fill="#181818" points="986,217.7069,990,208.7069,986,212.7069,982,208.7069,986,217.7069" style="stroke:#181818;stroke-width:1;"/></g><!--link estudiante to UC7--><g class="link" data-entity-1="ent0003" data-entity-2="ent0018" data-link-type="dependency" data-source-line="40" id="lnk31"><path d="M208.27,119.3369 C183.54,152.6969 152.1245,195.0778 134.1745,219.2778" fill="none" id="estudiante-to-UC7" style="stroke:#181818;stroke-width:1;"/><polygon fill="#181818" points="130.6,224.0969,139.1744,219.2513,133.5787,220.081,132.749,214.4853,130.6,224.0969" style="stroke:#181818;stroke-width:1;"/></g><!--link estudiante to UC4--><g class="link" data-entity-1="ent0003" data-entity-2="ent0014" data-link-type="dependency" data-source-line="41" id="lnk32"><path d="M305.35,97.5969 C330.08,104.6969 357.59,114.3969 381,127.0869 C427.36,152.2269 468.591,190.1806 493.431,215.1806" fill="none" id="estudiante-to-UC4" style="stroke:#181818;stroke-width:1;"/><polygon fill="#181818" points="497.66,219.4369,494.154,210.2332,494.1358,215.89,488.479,215.8718,497.66,219.4369" style="stroke:#181818;stroke-width:1;"/></g><!--link admin to UC9--><g class="link" data-entity-1="ent0004" data-entity-2="ent0021" data-link-type="dependency" data-source-line="42" id="lnk33"><path d="M1677.91,119.3369 C1659.61,151.7869 1636.8786,192.1014 1622.9186,216.8414" fill="none" id="admin-to-UC9" style="stroke:#181818;stroke-width:1;"/><polygon fill="#181818" points="1619.97,222.0669,1627.8765,216.1943,1622.4272,217.7123,1620.9092,212.2629,1619.97,222.0669" style="stroke:#181818;stroke-width:1;"/></g><!--link admin to UC10--><g class="link" data-entity-1="ent0004" data-entity-2="ent0022" data-link-type="dependency" data-source-line="43" id="lnk34"><path d="M1720.09,119.3369 C1739.32,153.4269 1763.7417,196.7412 1777.1017,220.4212" fill="none" id="admin-to-UC10" style="stroke:#181818;stroke-width:1;"/><polygon fill="#181818" points="1780.05,225.6469,1779.1114,215.8428,1777.5931,221.2921,1772.1438,219.7739,1780.05,225.6469" style="stroke:#181818;stroke-width:1;"/></g><?plantuml-src VPDBRjmm38RtEWKngtOncCmZhqs0m2c209aYo2JTSoJM4I1R0psoI973TDbrZp0NAwNAazX6ih9_yiDFKgA23ePWetsW1k6c3MHqJVm1HN1PHuGfLEYjJ_hHMxYcbXmQyaAW3DR1v67_HxPQsaJSQwhj1D13e1pie6y-HAMHZMTNLgO2cQ93k0ClLQDRRiUXiYupc29TUaEjv--DVSWvd-KXMSPOLtSvsyYT48vamBRcAIUVZ3c1NmBW7LlXBg3K-xzjGhvhsfe20KHF4Zr3zrJdLXr8Z0fDhlfOpVjKPTkVkeu9Qz0acqmjc7hj5-LJAZNpW1zMuobsivqZdzZPKsn8eIgsox7jsYeoV8Nhsv7ddID5KZjujePjMlYolfr_BLQhmHneP3HStgLR1b8r9NpHuSTzVAERJ9Fd-qQdkG6cbnrzCkxp2ltJrg9JepP_Q1_Hw1UsKnYiBnwdeuCEpXuwBD3PkD3RakNJ7fMxvhtKbflcKCoj5w_pGLlaOAl3_hUqhhlM-L6kzoh4_-M4wVGYxqHFBaLv84Kl1derq2S3VJhGPuANlVmVYxTdTS17ePN83wkeyvwQ7_q3?></g></svg>