<svg xmlns="http://www.w3.org/2000/svg" xmlns:xlink="http://www.w3.org/1999/xlink" contentStyleType="text/css" data-diagram-type="DESCRIPTION" height="277px" preserveAspectRatio="none" style="width:1005px;height:277px;background:#FFFFFF;" version="1.1" viewBox="0 0 1005 277" width="1005px" zoomAndPan="magnify"><?plantuml 1.2026.3beta6?><defs/><g><g class="title" data-source-line="1"><text fill="#000000" font-family="sans-serif" font-size="14" font-weight="700" lengthAdjust="spacing" textLength="235.3818" x="381.3091" y="22.9951">Modelos de Machine Learning</text></g><!--cluster Modelos ML--><g class="cluster" data-qualified-name="Modelos ML" data-source-line="6" id="ent0004"><rect fill="none" height="119.35" rx="2.5" ry="2.5" style="stroke:#181818;stroke-width:1;" width="984" x="7" y="144.0869"/><text fill="#000000" font-family="sans-serif" font-size="14" font-weight="700" lengthAdjust="spacing" textLength="93.543" x="452.2285" y="159.082">Modelos ML</text></g><!--entity UC1--><g class="entity" data-qualified-name="Modelos ML.UC1" data-source-line="7" id="ent0005"><ellipse cx="168.0029" cy="213.2635" fill="#F1F1F1" rx="145.1329" ry="31.4266" style="stroke:#181818;stroke-width:0.5;"/><text fill="#000000" font-family="sans-serif" font-size="14" lengthAdjust="spacing" textLength="272.3369" x="31.8345" y="217.9119">Predecir volumen diario de agua (ML1)</text></g><!--entity UC2--><g class="entity" data-qualified-name="Modelos ML.UC2" data-source-line="8" id="ent0006"><ellipse cx="837.998" cy="213.2645" fill="#F1F1F1" rx="137.438" ry="29.8876" style="stroke:#181818;stroke-width:0.5;"/><text fill="#000000" font-family="sans-serif" font-size="14" lengthAdjust="spacing" textLength="256.2314" x="709.8822" y="217.9129">Calcular riego &#243;ptimo en edge (ML2)</text></g><!--entity UC3--><g class="entity" data-qualified-name="Modelos ML.UC3" data-source-line="9" id="ent0007"><ellipse cx="507.0044" cy="213.2698" fill="#F1F1F1" rx="158.8644" ry="34.1729" style="stroke:#181818;stroke-width:0.5;"/><text fill="#000000" font-family="sans-serif" font-size="14" lengthAdjust="spacing" textLength="300.8906" x="356.5591" y="217.9182">Simular escenarios de disponibilidad (ML3)</text></g><!--entity tecnico--><g class="entity" data-qualified-name="tecnico" data-source-line="3" id="ent0002"><ellipse cx="337.9954" cy="51.2969" fill="#F1F1F1" rx="8" ry="8" style="stroke:#181818;stroke-width:0.5;"/><path d="M337.9954,59.2969 L337.9954,86.2969 M324.9954,67.2969 L350.9954,67.2969 M337.9954,86.2969 L324.9954,101.2969 M337.9954,86.2969 L350.9954,101.2969" fill="none" style="stroke:#181818;stroke-width:0.5;"/><text fill="#000000" font-family="sans-serif" font-size="14" lengthAdjust="spacing" textLength="119.9707" x="278.01" y="115.792">T&#233;cnico de Riego</text></g><!--entity mcp--><g class="entity" data-qualified-name="mcp" data-source-line="4" id="ent0003"><ellipse cx="837.9984" cy="51.2969" fill="#F1F1F1" rx="8" ry="8" style="stroke:#181818;stroke-width:0.5;"/><path d="M837.9984,59.2969 L837.9984,86.2969 M824.9984,67.2969 L850.9984,67.2969 M837.9984,86.2969 L824.9984,101.2969 M837.9984,86.2969 L850.9984,101.2969" fill="none" style="stroke:#181818;stroke-width:0.5;"/><text fill="#000000" font-family="sans-serif" font-size="14" lengthAdjust="spacing" textLength="91.1367" x="792.43" y="115.792">Sistema MCP</text></g><!--link tecnico to UC1--><g class="link" data-entity-1="ent0002" data-entity-2="ent0005" data-link-type="dependency" data-source-line="12" id="lnk8"><path d="M289.28,119.2869 C263.09,139.3669 235.9912,160.1358 211.5012,178.9158" fill="none" id="tecnico-to-UC1" style="stroke:#181818;stroke-width:1;"/><polygon fill="#181818" points="206.74,182.5669,216.3159,180.2643,210.7077,179.5243,211.4478,173.916,206.74,182.5669" style="stroke:#181818;stroke-width:1;"/></g><!--link mcp to UC2--><g class="link" data-entity-1="ent0003" data-entity-2="ent0006" data-link-type="dependency" data-source-line="13" id="lnk9"><path d="M838,119.2869 C838,139.5969 838,158.3369 838,177.1969" fill="none" id="mcp-to-UC2" style="stroke:#181818;stroke-width:1;"/><polygon fill="#181818" points="838,183.1969,842,174.1969,838,178.1969,834,174.1969,838,183.1969" style="stroke:#181818;stroke-width:1;"/></g><!--link tecnico to UC3--><g class="link" data-entity-1="ent0002" data-entity-2="ent0007" data-link-type="dependency" data-source-line="14" id="lnk10"><path d="M386.43,119.2869 C411.3,138.4669 436.5585,157.9431 460.4085,176.3331" fill="none" id="tecnico-to-UC3" style="stroke:#181818;stroke-width:1;"/><polygon fill="#181818" points="465.16,179.9969,460.4752,171.3336,461.2004,176.9437,455.5902,177.6689,465.16,179.9969" style="stroke:#181818;stroke-width:1;"/></g><?plantuml-src NOyzRiCm38LtdOBmr0uPOkzPlDf0a9y3i1IX4D2F8SbTYXoeSu-GYqKIOY3eHl3nutilIxOCSz1iGm9THgIRU8Q9CNhnHYca729qbySlUQ5GZqx29dI02JAtvNPqbfJP8SpZiScE5gKYKqPlYa-t6SrJ1pyAO4rCc8fmZAoP9C9tiAjZ3remIZD3io9ypDF-ixsyZljtS4HBgyK8iMQ2nz-InGKe7rWRhbo_SVqxTnRNC4x4lbgrzbhI4hnyYHMDkjB3HW_ghjIhBknsXnQaz7lD_JzjU080?></g></svg>